<?xml version="1.0" encoding="UTF-8" standalone="no"?>
<svg
   version="1.1"
   viewBox="0 0 3725.9 1469.8"
   id="svg6"
   sodipodi:docname="atarixe.svg"
   inkscape:version="1.3.2 (091e20e, 2023-11-25, custom)"
   xmlns:inkscape="http://www.inkscape.org/namespaces/inkscape"
   xmlns:sodipodi="http://sodipodi.sourceforge.net/DTD/sodipodi-0.dtd"
   xmlns="http://www.w3.org/2000/svg"
   xmlns:svg="http://www.w3.org/2000/svg">
  <defs
     id="defs6" />
  <sodipodi:namedview
     id="namedview6"
     pagecolor="#505050"
     bordercolor="#eeeeee"
     borderopacity="1"
     inkscape:showpageshadow="0"
     inkscape:pageopacity="0"
     inkscape:pagecheckerboard="0"
     inkscape:deskcolor="#505050"
     inkscape:zoom="0.48185517"
     inkscape:cx="1926.9276"
     inkscape:cy="1468.2835"
     inkscape:window-width="3840"
     inkscape:window-height="2126"
     inkscape:window-x="-11"
     inkscape:window-y="-11"
     inkscape:window-maximized="1"
     inkscape:current-layer="svg6" />
  <path
     class="st0"
     d="m 3658.2,59.8 v 199.7 h -613.6 -59.8 v 59.8 192.8 59.8 h 59.8 557.5 l -130.6,164.6 h -426.9 -59.8 v 59.8 389.2 59.8 h 59.8 292.3 148.1 117 L 3471.5,1410 H 3111.4 2809 2710.2 V 1269.8 796.4 736.6 h -59.8 -147.6 L 3039.6,59.9 h 360.1 258.5 m -973,-0.1 -506,637.9 -29.5,37.2 29.5,37.2 424.3,534.9 81.7,103 H 2670.3 2449 l -370.5,-467.1 -46.9,-59.1 -46.9,59.1 -370.5,467.1 H 1378 L 1884,772.1 1913.5,734.9 1884,697.7 1378,59.8 h 236.3 l 370.5,467.1 46.9,59.1 46.9,-59.1 L 2449,59.8 h 236.2 M 1643.1,0 h -389 l 583,734.9 -583,734.9 h 389 l 388.5,-489.7 388.5,489.7 h 250.2 138.7 302.4 373.6 15.4 l 225.5,-284.3 H 3485 3336.9 3044.6 V 796.4 h 455.8 L 3725.9,512.1 H 3044.6 V 319.3 H 3718 V 0 0 h -318.3 -373.8 -15.2 L 2379,796.4 h 271.4 v 473.4 L 2226.1,734.9 2809,0 h -389 l -388.5,489.7"
     style="fill:#ffffff;stroke-width:1.11111"
     id="path1"
     transform="matrix(0.9,0,0,0.9,168.75876,82.178178)" />
  <path
     class="st0"
     d="m 601.7,486.6 c -93.7,0 -187.6,0 -281.5,0 0,25.4 0,50.5 0,75.9 34.6,0 69,0 103.7,0 0,140.7 0,281.1 0,421.8 24.7,0 49.5,0 74.2,0 0,-140.7 0,-281.1 0,-421.8 34.6,0 69,0 103.7,0 -0.1,-25.4 -0.1,-50.6 -0.1,-75.9 z"
     style="fill:#ffffff;stroke-width:1.11111"
     id="path2"
     transform="matrix(0.9,0,0,0.9,168.75876,82.178178)" />
  <path
     class="st0"
     d="m 226.3,498.9 c -10.2,-8.9 -23.5,-13.2 -36.8,-13.2 -17.6,0 -35.3,7.4 -46.3,21.5 -11,12.3 -12.9,29.1 -17.7,44.2 C 83.6,695.6 41.8,839.9 0,984.1 c 25.9,0 51.6,0 77.4,0 12.2,-41.8 24.2,-83.6 36.5,-125.2 33.5,0 66.9,-0.1 100.3,-0.1 16.7,0 33.4,0 50.2,0.1 12.2,41.8 24.2,83.6 36.3,125.2 25.9,0 51.9,0 77.8,0 -44,-151.3 -88.1,-302.4 -132.1,-453.7 -3.6,-11.9 -10.3,-23.2 -20.1,-31.5 z M 170.8,788 c -12.2,0 -24.3,0 -36.5,-0.1 18.2,-62.7 36.3,-125.4 54.7,-188.1 18.3,62.7 36.5,125.4 54.6,188.1 -24.2,0 -48.5,0.1 -72.8,0.1 z"
     style="fill:#ffffff;stroke-width:1.11111"
     id="path3"
     transform="matrix(0.9,0,0,0.9,168.75876,82.178178)" />
  <path
     class="st0"
     d="m 752.5,487.3 c -4.6,-1.2 -9.3,-1.8 -14.1,-1.8 -19,0 -37.8,9.3 -48.6,24.9 -8.6,11.3 -10.3,25.7 -14.6,38.9 -42.1,144.9 -84.3,289.9 -126.1,435 25.7,0 51.6,0 77.3,0 12,-41.8 24.3,-83.4 36.3,-125.2 50,0 100.2,0 150.3,0 12.2,41.8 24.1,83.4 36.1,125.2 26,-0.2 51.9,0 78,-0.2 C 883.2,833 839,681.9 795.1,530.8 789.7,510.2 773.6,492.1 752.5,487.3 Z m -69.1,300.8 c 18,-62.9 36.3,-125.8 54.5,-188.5 18,62.9 36.5,125.6 54.5,188.5 -36.3,0 -72.6,0 -109,0 z"
     style="fill:#ffffff;stroke-width:1.11111"
     id="path4"
     transform="matrix(0.9,0,0,0.9,168.75876,82.178178)" />
  <path
     class="st0"
     d="m 1320.1,984.3 c 26.2,0 78.6,0 78.6,0 V 486.6 h -78.6 c 0,0 0,331.8 0,497.7 z"
     style="fill:#ffffff;stroke-width:1.11111"
     id="path5"
     transform="matrix(0.9,0,0,0.9,168.75876,82.178178)" />
  <path
     class="st0"
     d="m 1164.9,777.5 c 14.6,-10.8 31.5,-18 45.1,-30.2 25.7,-22.3 39.7,-55.7 42.3,-89.1 3.8,-31.9 2.2,-65.8 -12.7,-94.9 -21.6,-44.9 -69,-75.9 -118.9,-76.8 -19.8,0 -39.4,0.1 -59.2,0.1 -9.9,0 -19.7,0 -29.6,-0.1 -0.6,0 -1.2,0 -1.8,0 -6.9,0 -13.8,0.9 -20.4,3.1 -24.3,7.7 -42.5,31.9 -42.8,57.6 0,145.8 0,291.3 0,437.1 25,0 49.9,0 74.9,0 0,-135.3 -0.2,-270.7 0,-406 0,-8.6 7.9,-16.1 16.5,-16.1 0.1,0 0.2,0 0.3,0 12.8,0 25.6,0.1 38.4,0.1 6.4,0 12.8,0 19.2,-0.1 0.6,0 1.3,0 1.9,0 27,0 52.2,20.9 58,47.2 5,20.7 5.7,44 -5.7,63 -14.7,25.2 -41.1,41.1 -67.8,51.4 -14,5.5 -26.6,15.9 -31.9,30.3 -6.7,18.7 -3.8,40.4 7.5,56.9 38.2,57.7 76.2,115.6 114.6,173.4 29.5,0 58.8,0 88.1,0 -40.1,-60.1 -81,-119.8 -120.3,-180.4 -4.1,-8.7 -3.8,-20.5 4.3,-26.5 z"
     style="fill:#ffffff;stroke-width:1.11111"
     id="path6"
     transform="matrix(0.9,0,0,0.9,168.75876,82.178178)" />
</svg>
