<?xml version="1.0" encoding="UTF-8" standalone="no"?>
<svg
   viewBox="0 0 648 751"
   fill="none"
   version="1.1"
   id="svg1"
   sodipodi:docname="epic.svg"
   inkscape:version="1.3.2 (091e20e, 2023-11-25, custom)"
   xmlns:inkscape="http://www.inkscape.org/namespaces/inkscape"
   xmlns:sodipodi="http://sodipodi.sourceforge.net/DTD/sodipodi-0.dtd"
   xmlns="http://www.w3.org/2000/svg"
   xmlns:svg="http://www.w3.org/2000/svg">
  <sodipodi:namedview
     id="namedview1"
     pagecolor="#505050"
     bordercolor="#eeeeee"
     borderopacity="1"
     inkscape:showpageshadow="0"
     inkscape:pageopacity="0"
     inkscape:pagecheckerboard="0"
     inkscape:deskcolor="#505050"
     inkscape:zoom="2.5579228"
     inkscape:cx="323.89562"
     inkscape:cy="375.5"
     inkscape:window-width="3840"
     inkscape:window-height="2126"
     inkscape:window-x="-11"
     inkscape:window-y="-11"
     inkscape:window-maximized="1"
     inkscape:current-layer="svg1" />
  <path
     fill-rule="evenodd"
     clip-rule="evenodd"
     d="m 647.167,58.79 v 518.235 c 0,4.86 -0.198,9.375 -0.627,13.557 -0.977,9.375 -1.161,18.459 -9.88,28.802 -0.851,1.013 -9.752,7.637 -9.752,7.637 -4.789,2.348 -8.057,4.077 -13.459,6.251 L 352.656,742.536 c -13.54,6.206 -19.201,8.625 -29.035,8.43 v 0.002 c -0.013,0 -0.025,0 -0.038,0 -0.014,0 -0.026,0 -0.039,0 v -0.002 c -9.833,0.195 -15.495,-2.224 -29.033,-8.43 L 33.716,633.272 c -5.4,-2.174 -8.669,-3.903 -13.457,-6.251 0,0 -8.902,-6.624 -9.754,-7.637 C 1.787,609.041 1.603,599.957 0.625,590.582 0.196,586.4 0,581.885 0,577.025 V 58.79 C 0,15.842 15.843,0 58.771,0 h 529.625 c 42.927,0 58.771,15.842 58.771,58.79 z m -94.125,460.912 v -2.87 l -0.12,-1.314 -0.12,-1.195 -0.239,-1.196 -0.238,-1.196 -0.239,-1.076 -0.352,-1.076 -0.359,-1.075 -0.477,-0.956 -0.599,-1.077 -0.59,-0.956 -0.718,-1.075 -0.71,-0.957 -0.836,-0.836 -0.83,-0.957 -0.956,-0.836 -0.949,-0.838 -0.951,-0.597 -0.956,-0.717 -0.948,-0.598 -1.069,-0.597 -1.076,-0.599 -1.189,-0.597 -1.188,-0.477 -1.188,-0.599 -1.315,-0.471 -1.068,-0.358 -1.069,-0.359 -1.196,-0.359 -1.068,-0.358 -1.188,-0.359 -1.19,-0.359 -1.196,-0.238 -1.308,-0.359 -1.188,-0.359 -1.306,-0.238 -1.308,-0.36 -1.308,-0.358 -1.316,-0.358 -1.188,-0.24 -1.068,-0.359 -1.076,-0.239 -0.95,-0.358 -0.949,-0.239 -1.428,-0.477 -1.315,-0.479 -1.188,-0.479 -0.949,-0.597 -1.076,-0.597 -0.829,-0.838 -0.479,-0.717 -0.589,-1.315 -0.122,-1.553 v -0.24 l 0.122,-1.195 0.469,-1.076 0.717,-1.076 1.07,-0.957 0.837,-0.477 0.949,-0.479 1.068,-0.239 1.196,-0.24 1.308,-0.238 h 2.616 l 1.068,0.12 1.196,0.118 1.188,0.12 1.188,0.24 1.188,0.239 1.196,0.24 1.188,0.357 1.188,0.36 1.31,0.358 0.956,0.478 1.068,0.359 0.949,0.477 1.076,0.479 0.949,0.477 1.068,0.479 0.958,0.599 1.068,0.477 0.956,0.717 0.95,0.598 1.068,0.598 0.956,0.716 0.711,-0.956 0.597,-0.956 0.71,-0.956 0.718,-0.956 0.71,-1.076 0.598,-0.956 0.716,-0.956 0.712,-0.957 0.596,-0.956 0.711,-0.956 0.717,-0.957 0.599,-0.956 0.709,-1.075 0.718,-0.957 0.71,-0.956 0.598,-0.956 0.709,-0.958 -0.948,-0.716 -0.949,-0.717 -0.956,-0.719 -0.951,-0.596 -1.075,-0.717 -0.949,-0.599 -1.069,-0.597 -1.076,-0.597 -0.95,-0.479 -1.069,-0.597 -1.195,-0.479 -1.069,-0.479 -1.068,-0.477 -1.069,-0.359 -1.195,-0.477 -1.069,-0.24 -1.07,-0.359 -1.194,-0.358 -1.07,-0.239 -1.188,-0.24 -1.188,-0.239 -1.076,-0.238 -1.189,-0.239 -1.308,-0.12 -1.188,-0.239 -1.315,-0.12 h -1.188 l -1.308,-0.12 -1.308,-0.118 h -5.118 l -1.188,0.118 -1.188,0.12 -1.196,0.12 -1.188,0.119 -1.07,0.24 -1.188,0.239 -1.074,0.238 -1.071,0.239 -0.949,0.24 -1.076,0.359 -1.188,0.477 -1.188,0.36 -1.076,0.477 -1.068,0.598 -1.07,0.478 -1.076,0.598 -0.948,0.597 -0.95,0.717 -0.956,0.718 -0.83,0.597 -0.956,0.837 -0.83,0.958 -0.836,0.836 -0.83,0.956 -0.718,0.956 -0.711,0.957 -0.596,1.075 -0.592,1.077 -0.477,1.075 -0.479,1.076 -0.471,1.076 -0.238,1.074 -0.359,1.078 -0.24,1.076 -0.239,1.074 -0.12,1.196 -0.118,1.076 -0.12,1.195 v 2.751 l 0.12,1.313 0.118,1.196 0.12,1.195 0.239,1.076 0.24,1.196 0.359,0.956 0.35,1.076 0.359,0.957 0.479,0.829 0.597,1.075 0.591,0.957 0.598,0.836 0.71,0.836 0.717,0.838 0.831,0.837 0.836,0.836 0.829,0.719 0.956,0.597 0.949,0.717 1.07,0.598 0.956,0.597 1.189,0.597 1.068,0.598 1.195,0.478 1.189,0.478 1.188,0.478 1.308,0.479 1.076,0.359 1.068,0.358 1.071,0.359 1.186,0.24 1.076,0.357 1.19,0.359 1.186,0.24 1.196,0.359 1.188,0.238 1.308,0.359 1.19,0.239 1.306,0.358 1.196,0.239 1.188,0.359 1.07,0.238 1.076,0.36 0.948,0.239 0.83,0.24 1.427,0.596 1.196,0.479 1.068,0.478 0.949,0.478 0.958,0.717 0.829,0.717 0.599,0.836 0.478,1.196 0.118,1.435 v 0.239 l -0.118,1.196 -0.36,1.074 -0.478,0.958 -0.71,0.837 -0.956,0.717 -0.83,0.478 -0.956,0.358 -1.07,0.239 -1.068,0.24 -1.196,0.239 -1.308,0.118 h -2.616 l -1.306,-0.118 h -1.19 l -1.194,-0.239 -1.308,-0.12 -1.188,-0.239 -1.188,-0.238 -1.196,-0.24 -1.068,-0.359 -1.19,-0.359 -1.188,-0.358 -1.074,-0.478 -1.071,-0.358 -1.068,-0.479 -1.076,-0.477 -1.069,-0.479 -0.948,-0.599 -1.078,-0.477 -0.948,-0.599 -1.069,-0.716 -0.956,-0.597 -1.069,-0.717 -0.956,-0.718 -1.07,-0.717 -0.949,-0.717 -0.717,0.956 -0.83,0.836 -0.717,0.957 -0.829,0.956 -0.718,0.836 -0.71,0.957 -0.836,0.956 -0.711,0.838 -0.837,0.956 -0.71,0.836 -0.837,0.957 -0.709,0.956 -0.718,0.836 -0.83,0.956 -0.718,0.957 -0.829,0.838 -0.717,0.956 0.949,0.836 0.836,0.717 0.951,0.717 0.956,0.718 1.898,1.434 0.956,0.598 0.95,0.597 1.076,0.599 0.949,0.596 1.069,0.598 1.075,0.479 1.069,0.589 1.07,0.479 1.074,0.479 1.19,0.478 1.069,0.358 1.188,0.358 1.075,0.479 1.189,0.359 1.188,0.358 1.069,0.24 1.195,0.358 1.188,0.238 1.188,0.24 1.189,0.239 1.196,0.239 1.188,0.12 1.188,0.238 1.308,0.12 1.195,0.12 1.189,0.12 h 1.307 l 1.189,0.119 h 4.999 l 1.189,-0.119 1.307,-0.12 1.196,-0.12 1.068,-0.12 1.189,-0.118 1.196,-0.24 1.068,-0.239 1.07,-0.239 1.188,-0.24 1.076,-0.357 1.188,-0.36 1.188,-0.357 1.188,-0.479 1.196,-0.479 1.068,-0.597 1.069,-0.479 1.076,-0.597 0.949,-0.717 0.95,-0.59 0.956,-0.717 0.83,-0.717 0.955,-0.838 0.711,-0.717 0.837,-0.837 0.709,-0.836 0.599,-0.956 0.711,-0.956 0.597,-0.958 0.597,-0.956 0.471,-1.074 0.479,-0.958 0.477,-1.076 0.36,-1.196 0.232,-1.076 0.357,-1.194 0.24,-1.196 0.119,-1.314 0.12,-1.196 z m -82.389,25.216 v -19.719 h -46.655 v -14.821 h 41.416 v -18.522 h -41.416 v -14.224 h 46.057 v -19.725 h -68.782 v 87.011 z m -86.954,0 v -87.011 h -24.392 l -0.597,0.957 -0.591,1.075 -0.717,0.949 -0.599,1.076 -0.589,0.956 -0.599,1.078 -0.709,0.948 -0.599,1.077 -0.596,0.956 -0.592,0.956 -0.716,1.068 -0.592,0.957 -0.597,1.075 -0.597,0.957 -0.71,1.068 -0.6,0.956 -0.589,0.956 -0.599,1.071 -0.597,0.955 -0.711,1.076 -0.596,0.957 -0.598,1.068 -0.591,0.957 -0.717,1.075 -0.59,0.949 -0.598,0.956 -0.598,1.076 -0.71,0.958 -0.598,1.076 -0.592,0.949 -0.596,1.076 -0.71,0.956 -0.598,1.068 -0.597,0.957 -0.591,-0.957 -0.597,-1.068 -0.719,-0.956 -0.59,-1.076 -0.598,-0.949 -0.59,-1.076 -0.598,-0.958 -0.717,-1.076 -0.591,-0.956 -0.598,-0.949 -0.59,-1.075 -0.597,-0.957 -0.717,-1.068 -0.592,-0.957 -0.598,-1.076 -0.589,-0.955 -0.599,-1.071 -0.717,-0.956 -0.591,-0.956 -0.597,-1.068 -0.597,-0.957 -0.711,-1.075 -0.597,-0.957 -0.591,-1.068 -0.599,-0.956 -0.596,-0.956 -0.712,-1.077 -0.597,-0.948 -0.591,-1.078 -0.597,-0.956 -0.599,-1.076 -0.709,-0.949 -0.597,-1.075 -0.591,-0.957 h -24.4 v 87.011 h 22.613 v -51.212 l 0.71,0.956 0.6,1.084 0.709,0.954 0.597,1.076 0.718,0.958 0.59,1.074 0.718,0.964 0.59,1.076 0.718,0.956 0.597,1.076 0.711,0.956 0.597,1.084 0.711,0.956 0.597,1.076 0.711,0.956 0.597,1.083 0.717,0.956 0.71,1.076 0.598,0.956 0.71,1.083 0.598,0.956 0.718,1.076 0.589,0.956 0.717,1.084 0.591,0.956 0.717,1.074 0.599,0.958 0.709,1.076 0.598,0.964 0.71,1.074 0.598,0.956 0.71,1.076 0.599,0.964 0.716,1.076 h 0.472 l 0.597,-0.956 0.711,-1.084 0.597,-0.956 0.718,-0.956 0.59,-1.076 0.716,-0.957 0.591,-0.963 0.599,-1.074 0.717,-0.958 0.591,-0.956 0.717,-0.962 0.591,-1.076 0.716,-0.956 0.598,-0.958 0.591,-1.082 0.717,-0.956 0.59,-0.958 0.717,-1.074 0.591,-0.958 0.717,-0.962 0.599,-1.076 0.59,-0.956 0.718,-0.956 0.59,-1.083 0.716,-0.957 0.599,-0.956 0.709,-0.956 0.599,-1.083 0.589,-0.956 0.719,-0.957 0.597,-1.075 0.71,-0.957 0.598,-0.956 0.711,-1.084 0.596,-0.956 v 51.452 z M 244.91,510.139 h -20.109 l 0.47,-1.076 0.359,-1.083 0.479,-1.196 0.478,-1.076 0.351,-1.082 0.477,-1.076 0.479,-1.196 0.472,-1.083 0.357,-1.076 0.479,-1.075 0.477,-1.082 0.352,-1.196 0.479,-1.076 0.477,-1.083 0.36,-1.076 0.471,-1.076 0.479,-1.201 0.477,-1.078 0.352,-1.074 0.479,-1.083 0.478,-1.196 0.358,-1.083 0.47,-1.076 0.479,1.076 0.359,1.083 0.47,1.196 0.479,1.083 0.359,1.074 0.477,1.078 0.472,1.201 0.357,1.076 0.479,1.076 0.479,1.083 0.35,1.076 0.479,1.196 0.36,1.082 0.469,1.075 0.479,1.076 0.36,1.083 0.477,1.196 0.471,1.076 0.359,1.082 0.478,1.076 0.471,1.196 0.359,1.083 z m 38.083,34.779 -0.478,-1.078 -0.478,-1.076 -0.47,-1.076 -0.36,-1.194 -0.478,-1.07 -0.478,-1.074 -0.472,-1.076 -0.954,-2.152 -0.471,-1.196 -0.479,-1.076 -0.36,-1.075 -0.47,-1.076 -0.956,-2.152 -0.478,-1.195 -0.47,-1.076 -0.479,-1.077 -0.479,-1.075 -0.35,-1.076 -0.479,-1.076 -0.479,-1.196 -0.478,-1.074 -0.471,-1.076 -0.479,-1.076 -0.477,-1.076 -0.472,-1.076 -0.357,-1.196 -0.479,-1.075 -0.472,-1.076 -0.477,-1.076 -0.479,-1.076 -0.477,-1.076 -0.472,-1.195 -0.478,-1.076 -0.358,-1.076 -0.471,-1.076 -0.479,-1.074 -0.478,-1.076 -0.478,-1.196 -0.472,-1.076 -0.956,-2.152 -0.352,-1.075 -0.477,-1.077 -0.479,-1.068 -0.47,-1.196 -0.479,-1.075 -0.479,-1.077 -0.477,-1.076 -0.471,-1.075 -0.36,-1.076 -0.477,-1.196 -0.471,-1.075 -1.434,-3.228 -0.472,-1.076 -0.478,-1.196 -0.358,-1.074 -0.471,-1.076 -0.479,-1.076 -0.477,-1.076 -0.471,-1.076 -0.478,-1.195 -0.958,-2.152 -0.35,-1.076 -0.479,-1.075 -0.479,-1.077 -0.47,-1.195 -0.479,-1.076 -0.477,-1.076 -0.479,-1.076 -0.471,-1.076 -0.358,-1.074 -0.478,-1.196 -0.472,-1.076 -0.956,-2.152 h -22.016 l -0.47,1.076 -0.479,1.076 -0.477,1.076 -0.36,1.196 -0.471,1.074 -0.477,1.076 -0.479,1.076 -0.471,1.076 -0.478,1.076 -0.479,1.195 -0.479,1.077 -0.35,1.075 -0.958,2.152 -0.47,1.076 -0.479,1.195 -0.477,1.076 -0.472,1.076 -0.478,1.076 -0.358,1.076 -0.478,1.074 -0.472,1.196 -0.477,1.076 -0.479,1.076 -0.472,1.076 -0.477,1.076 -0.479,1.075 -0.358,1.196 -0.471,1.076 -0.479,1.075 -0.477,1.076 -0.472,1.077 -0.477,1.075 -0.478,1.196 -0.472,1.068 -0.358,1.077 -0.479,1.075 -0.477,1.076 -0.471,1.076 -0.479,1.076 -0.478,1.196 -0.471,1.076 -0.479,1.074 -0.358,1.076 -0.478,1.076 -0.472,1.076 -0.477,1.195 -0.477,1.076 -0.472,1.076 -0.956,2.152 -0.359,1.075 -0.471,1.196 -0.478,1.076 -0.479,1.076 -0.471,1.076 -0.478,1.076 -0.479,1.074 -0.471,1.196 -0.358,1.076 -0.478,1.076 -0.478,1.075 -0.472,1.077 -0.478,1.076 -0.478,1.195 -0.471,1.076 -0.479,1.076 -0.357,1.076 -0.479,1.075 -0.47,1.076 -0.479,1.196 -0.479,1.076 -0.47,1.076 -0.478,1.076 -0.478,1.074 -0.359,1.07 -0.472,1.194 -0.477,1.076 -0.479,1.076 -0.471,1.078 h 24.034 l 0.478,-1.078 0.359,-1.076 0.477,-1.076 0.472,-1.194 0.359,-1.07 0.479,-1.074 0.47,-1.076 0.359,-1.076 0.479,-1.076 0.477,-1.076 0.352,-1.076 0.477,-1.195 0.479,-1.076 0.359,-1.076 0.47,-1.076 h 34.152 l 0.479,1.076 0.359,1.076 0.478,1.076 0.472,1.195 0.358,1.076 0.956,2.152 0.352,1.076 0.478,1.076 0.478,1.074 0.352,1.07 0.478,1.194 0.478,1.076 0.358,1.076 0.472,1.078 z M 178.378,533.09 v -38.843 h -39.272 v 17.445 h 17.376 v 10.878 l -0.951,0.598 -0.836,0.478 -1.068,0.478 -0.956,0.479 -1.07,0.477 -1.068,0.24 -1.188,0.358 -1.196,0.238 -1.188,0.24 -1.188,0.12 -1.308,0.119 -1.316,0.12 h -2.735 l -1.308,-0.12 -1.188,-0.119 -1.188,-0.238 -1.196,-0.24 -1.188,-0.359 -1.189,-0.359 -1.075,-0.477 -1.068,-0.479 -1.071,-0.478 -0.956,-0.598 -0.948,-0.597 -0.949,-0.717 -0.957,-0.718 -0.828,-0.717 -0.719,-0.836 -0.829,-0.837 -0.718,-0.836 -0.71,-0.958 -0.598,-0.956 -0.597,-0.956 -0.591,-1.076 -0.477,-1.077 -0.479,-1.195 -0.352,-0.956 -0.358,-1.076 -0.239,-1.074 -0.24,-1.078 -0.239,-1.074 -0.12,-1.196 -0.118,-1.076 -0.112,-1.195 v -2.751 l 0.112,-1.194 0.118,-1.195 0.24,-1.316 0.239,-1.075 0.239,-1.189 0.358,-1.195 0.472,-1.076 0.359,-1.076 0.477,-1.076 0.599,-0.956 0.589,-1.076 0.598,-0.956 0.592,-0.837 0.717,-0.956 0.829,-0.837 0.718,-0.836 0.829,-0.718 0.837,-0.717 0.83,-0.716 0.957,-0.599 0.948,-0.598 0.956,-0.598 1.069,-0.477 1.07,-0.479 1.068,-0.358 1.076,-0.358 1.069,-0.24 1.188,-0.238 1.076,-0.12 1.188,-0.119 h 2.496 l 1.315,0.119 1.308,0.12 1.189,0.118 1.188,0.239 1.188,0.24 1.076,0.239 1.068,0.358 1.069,0.359 0.956,0.359 0.95,0.478 0.956,0.478 1.068,0.598 0.95,0.596 0.956,0.599 0.95,0.597 0.949,0.718 0.956,0.598 0.949,0.836 0.956,0.718 0.711,-0.956 0.836,-0.838 0.712,-0.956 0.836,-0.956 0.709,-0.956 0.718,-0.837 0.83,-0.956 0.716,-0.956 0.831,-0.956 0.717,-0.839 0.71,-0.956 0.837,-0.956 0.711,-0.836 0.717,-0.957 0.829,-0.956 0.718,-0.956 0.829,-0.836 0.717,-0.957 -0.949,-0.718 -0.956,-0.836 -0.949,-0.717 -0.956,-0.717 -0.95,-0.599 -0.949,-0.716 -1.076,-0.599 -0.949,-0.597 -1.068,-0.597 -0.958,-0.598 -1.068,-0.478 -1.069,-0.598 -1.076,-0.478 -1.068,-0.479 -1.069,-0.477 -1.076,-0.359 -0.95,-0.359 -1.068,-0.238 -1.076,-0.359 -1.07,-0.24 -1.068,-0.239 -1.075,-0.238 -1.189,-0.239 -1.188,-0.24 -1.076,-0.119 -1.308,-0.24 -1.188,-0.118 h -1.188 l -1.308,-0.12 -1.316,-0.12 h -5.111 l -1.196,0.12 -1.189,0.12 -1.187,0.118 -1.189,0.12 -1.195,0.239 -1.189,0.12 -1.188,0.239 -1.07,0.358 -1.194,0.239 -1.068,0.359 -1.068,0.24 -1.078,0.477 -1.188,0.36 -0.949,0.357 -1.189,0.599 -1.075,0.477 -1.069,0.479 -1.068,0.597 -1.076,0.598 -1.07,0.598 -0.948,0.598 -0.957,0.597 -0.949,0.717 -0.956,0.598 -0.95,0.717 -0.83,0.717 -0.956,0.838 -0.83,0.716 -0.836,0.838 -0.83,0.835 -0.718,0.837 -0.829,0.836 -0.717,0.839 -0.711,0.956 -0.717,0.956 -0.71,0.956 -0.598,0.956 -0.596,0.956 -0.592,0.957 -0.598,0.956 -0.597,1.076 -0.471,1.076 -0.956,2.152 -0.472,1.075 -0.478,1.196 -0.359,1.076 -0.359,1.195 -0.35,1.076 -0.24,1.196 -0.359,1.194 -0.239,1.076 -0.118,1.196 -0.239,1.188 -0.121,1.315 -0.112,1.196 v 1.195 l -0.119,1.314 v 3.946 l 0.119,1.194 0.112,1.196 0.121,1.196 0.117,1.075 0.24,1.196 0.12,1.076 0.239,1.195 0.359,1.077 0.238,1.195 0.352,1.074 0.239,1.076 0.479,1.078 0.358,0.956 0.472,1.074 0.956,2.152 0.471,1.076 0.597,0.956 0.598,1.076 0.592,0.958 0.596,0.954 0.71,0.958 0.598,0.956 0.717,0.837 0.711,0.956 0.717,0.836 0.829,0.837 0.838,0.838 0.829,0.716 0.837,0.837 0.83,0.717 0.836,0.718 0.95,0.717 0.95,0.716 0.956,0.719 0.949,0.596 0.956,0.598 1.069,0.598 0.948,0.592 1.078,0.597 1.068,0.479 1.069,0.477 1.076,0.477 1.187,0.479 1.069,0.359 1.069,0.477 1.076,0.36 1.188,0.239 1.07,0.358 1.194,0.239 1.068,0.239 1.19,0.24 1.188,0.238 1.196,0.12 1.188,0.12 1.188,0.119 1.308,0.12 1.188,0.119 h 5.12 l 1.306,-0.119 1.196,-0.12 1.308,-0.119 1.188,-0.12 1.308,-0.12 1.19,-0.12 1.194,-0.238 1.188,-0.239 1.07,-0.239 1.196,-0.238 1.068,-0.36 1.188,-0.358 1.069,-0.36 1.075,-0.358 1.07,-0.359 1.068,-0.479 1.196,-0.477 1.068,-0.479 1.188,-0.477 1.07,-0.599 1.074,-0.47 1.07,-0.598 1.069,-0.598 1.076,-0.596 0.949,-0.599 0.956,-0.597 0.95,-0.718 0.949,-0.597 0.956,-0.717 0.831,-0.599 0.956,-0.717 z m 330.33,-263.41 v 64.992 c 0,11.519 -5.324,16.863 -16.371,16.863 h -8.192 c -11.46,0 -16.784,-5.344 -16.784,-16.863 V 152.856 c 0,-11.517 5.324,-16.861 16.784,-16.861 h 7.37 c 11.053,0 16.377,5.344 16.377,16.861 v 56.359 h 42.977 v -58.827 c 0,-35.783 -17.193,-53.06 -52.8,-53.06 h -21.292 c -35.608,0 -53.216,17.685 -53.216,53.475 v 185.922 c 0,35.791 17.608,53.475 53.216,53.475 h 21.699 c 35.616,0 53.215,-17.684 53.215,-53.475 V 269.68 Z m -152.1,118.052 h 43.805 V 99.796 h -43.805 z m -63.559,-160.01 c 0,11.518 -5.316,16.869 -16.369,16.869 H 258.665 V 138.463 h 18.015 c 11.053,0 16.369,5.345 16.369,16.861 z M 283.635,99.796 h -68.77 v 287.936 h 43.8 V 283.25 h 24.97 c 35.614,0 53.214,-17.684 53.214,-53.467 v -76.512 c 0,-35.789 -17.6,-53.475 -53.214,-53.475 z M 139.274,261.037 h 51.578 v -39.896 h -51.578 v -81.448 h 53.631 V 99.797 H 95.476 v 287.935 h 98.245 V 347.835 H 139.274 Z M 321.562,690.289 449.544,648.083 H 198.805 Z"
     fill="#ffffff"
     clip-path="url(#clip1)"
     id="path1"
     transform="matrix(0.24975,0,0,0.24975,239.25664,276.00521)"
     style="stroke-width:4.004" />
  <defs
     id="defs1">
    <clipPath
       id="clip1">
      <rect
         width="647.167"
         height="750.977"
         fill="white"
         id="rect1" />
    </clipPath>
  </defs>
  <script
     id="script1" />
</svg>
