<?xml version="1.0" encoding="UTF-8" standalone="no"?>
<svg
   version="1.1"
   viewBox="0 0 264 128"
   id="svg12"
   sodipodi:docname="j2me.svg"
   inkscape:version="1.3.2 (091e20e, 2023-11-25, custom)"
   xmlns:inkscape="http://www.inkscape.org/namespaces/inkscape"
   xmlns:sodipodi="http://sodipodi.sourceforge.net/DTD/sodipodi-0.dtd"
   xmlns="http://www.w3.org/2000/svg"
   xmlns:svg="http://www.w3.org/2000/svg">
  <defs
     id="defs12" />
  <sodipodi:namedview
     id="namedview12"
     pagecolor="#505050"
     bordercolor="#eeeeee"
     borderopacity="1"
     inkscape:showpageshadow="0"
     inkscape:pageopacity="0"
     inkscape:pagecheckerboard="0"
     inkscape:deskcolor="#505050"
     inkscape:zoom="2.4043561"
     inkscape:cx="75.903898"
     inkscape:cy="-14.764868"
     inkscape:window-width="3840"
     inkscape:window-height="2126"
     inkscape:window-x="-11"
     inkscape:window-y="-11"
     inkscape:window-maximized="1"
     inkscape:current-layer="svg12" />
  <path
     style="fill:#ffffff;fill-opacity:1;fill-rule:nonzero;stroke:none;stroke-width:1.25"
     d="m 264,98.604 c -2.055,0 -3.998,0.04 -5.941,-0.02 -1.151,-0.033 -1.75,-0.62 -1.983,-1.794 -0.126,-0.626 -0.099,-1.28 -0.219,-1.907 -0.206,-1.073 -0.792,-1.367 -1.75,-0.866 -0.559,0.32 -1.084,0.68 -1.577,1.086 -5.555,4.335 -11.743,5.668 -18.569,3.995 -5.456,-1.334 -9.002,-5.802 -9.401,-11.556 -0.632,-9.108 5.329,-14.87 12.202,-16.783 2.695,-0.754 5.562,-0.927 8.363,-1.254 2.475,-0.293 4.97,-0.427 7.445,-0.66 1.377,-0.133 1.823,-0.613 1.703,-1.967 -0.199,-2.28 -0.266,-4.608 -0.791,-6.815 -0.852,-3.62 -3.433,-5.454 -7.046,-5.821 -5.416,-0.56 -10.672,0.24 -15.775,2.134 -0.406,0.153 -0.838,0.427 -1.237,0.387 -0.36,-0.034 -0.865,-0.334 -1.012,-0.654 -0.372,-0.853 -0.585,-1.787 -0.865,-2.687 -0.386,-1.22 -0.126,-1.907 1.038,-2.34 6.367,-2.368 12.848,-4.168 19.72,-3.508 2.176,0.187 4.325,0.634 6.401,1.321 5.083,1.753 7.465,5.727 8.742,10.795 0.612,2.407 0.506,4.734 0.519,7.095 0.053,10.115 0.02,20.237 0.02,30.359 z M 249.536,74.653 c -3.034,0.067 -6.048,0.213 -8.988,1.1 -3.859,1.174 -6.041,3.661 -6.441,7.762 -0.499,5.141 2.582,8.988 7.658,9.375 2.628,0.206 5.037,-0.634 7.385,-1.694 2.768,-1.24 4.545,-3.341 4.817,-6.381 0.266,-2.987 0.227,-6.008 0.273,-9.015 0.007,-0.754 -0.506,-1.147 -1.271,-1.147 -1.144,-0.007 -2.288,0 -3.433,0 z m 0,0"
     id="path1"
     transform="matrix(0.8,0,0,0.8,30.777527,13.727488)" />
  <path
     style="fill:#ffffff;fill-opacity:1;fill-rule:nonzero;stroke:none;stroke-width:1.25"
     d="m 168.287,78.234 c 0,5.961 0,11.922 0,17.883 0,2.08 -0.406,2.487 -2.475,2.507 -0.606,0 -1.211,0.02 -1.817,0 -2.155,-0.093 -3.073,-1 -3.326,-3.167 -0.067,-0.6 -0.313,-1.174 -0.479,-1.767 -0.619,0.28 -1.331,0.447 -1.85,0.853 -3.439,2.694 -7.265,4.508 -11.616,5.101 -4.352,0.594 -8.463,-0.16 -12.202,-2.533 -2.682,-1.707 -3.946,-4.395 -4.591,-7.375 -1.51,-6.995 0.585,-14.63 10.013,-18.19 3.832,-1.427 7.871,-2.194 11.949,-2.268 1.544,-0.04 3.081,-0.06 4.618,-0.1 1.33,-0.033 2.062,-0.493 2.342,-1.667 0.758,-3.24 0.572,-6.387 -1.125,-9.328 -1.537,-2.661 -4.045,-3.594 -6.913,-3.961 -4.73,-0.613 -9.241,0.427 -13.732,1.721 -0.805,0.226 -1.597,0.506 -2.395,0.78 -0.845,0.286 -1.271,-0.087 -1.477,-0.88 -0.18,-0.681 -0.346,-1.367 -0.592,-2.028 -0.606,-1.627 -0.313,-2.44 1.35,-2.953 2.795,-0.874 5.602,-1.741 8.443,-2.408 5.389,-1.26 10.799,-1.467 16.188,0.1 6.014,1.741 9.521,6.315 9.607,12.616 0.033,2.847 0,5.688 0,8.535 v 8.535 z m -9.155,2.553 h -0.067 c 0,-1.52 0.014,-3.047 0,-4.561 -0.013,-1.273 -0.306,-1.587 -1.55,-1.573 -1.75,0.013 -3.506,-0.027 -5.249,0.127 -2.103,0.18 -4.238,0.353 -6.281,0.846 -4.338,1.054 -6.374,3.341 -6.893,7.548 -0.372,3.028 0.1,5.855 2.695,7.849 2.289,1.753 4.93,2.293 7.738,1.707 3.1,-0.647 5.715,-2.347 8.25,-4.141 1.144,-0.814 1.364,-2.107 1.364,-3.441 -0.007,-1.453 -0.007,-2.907 -0.007,-4.361 z m 0,0"
     id="path2"
     transform="matrix(0.8,0,0,0.8,30.777527,13.727488)" />
  <path
     style="fill:#ffffff;fill-opacity:1;fill-rule:nonzero;stroke:none;stroke-width:1.25"
     d="m 198.785,89.222 c 1.324,-3.967 2.815,-7.888 3.946,-11.909 1.836,-6.568 3.506,-13.189 5.103,-19.817 0.545,-2.287 0.698,-4.674 0.958,-7.035 0.186,-1.66 0.339,-1.9 2.022,-1.913 2.229,-0.027 4.451,-0.027 6.667,0.04 1.191,0.033 1.49,0.487 1.224,1.653 -3,13.11 -6.081,26.199 -10.938,38.788 -0.945,2.454 -1.982,4.874 -3.034,7.295 -0.818,1.88 -1.776,2.353 -3.819,2.3 -2.455,-0.067 -4.916,-0.053 -7.371,0 -1.724,0.033 -2.283,-0.293 -2.801,-1.96 -4.784,-15.35 -9.561,-30.7 -14.338,-46.056 -0.1,-0.32 -0.18,-0.653 -0.233,-0.987 -0.113,-0.706 0.16,-1.1 0.918,-1.093 1.923,0 3.846,-0.014 5.762,0 1.909,0.013 3.286,0.973 3.925,2.787 1.045,2.961 2.096,5.921 2.988,8.942 2.601,8.808 5.123,17.643 7.684,26.458 0.246,0.834 0.625,1.627 0.945,2.441 z m 0,0"
     id="path3"
     transform="matrix(0.8,0,0,0.8,30.777527,13.727488)" />
  <path
     style="fill:#ffffff;fill-opacity:1;fill-rule:nonzero;stroke:none;stroke-width:1.25"
     d="m 120.956,63.817 c 0,7.515 0.086,15.023 -0.034,22.531 -0.066,4.121 -0.186,8.269 -0.798,12.329 -1.124,7.502 -5.056,13.163 -11.816,16.824 -2.761,1.5 -6.301,-0.46 -7.232,-2.507 -0.346,-0.754 -0.406,-1.354 0.485,-1.861 5.662,-3.254 8.417,-8.395 9.102,-14.729 0.286,-2.647 0.319,-5.335 0.326,-8.009 0.053,-12.315 0.08,-24.631 0.073,-36.953 0,-5.895 -0.093,-11.776 -0.126,-17.664 -0.013,-3.067 0.625,-3.694 3.692,-3.587 1.278,0.04 2.555,0.12 3.826,0.273 1.437,0.18 1.989,0.74 2.222,2.187 0.107,0.741 0.153,1.481 0.133,2.227 0.014,9.642 0.014,19.291 0,28.939 z m 0,0"
     id="path4"
     transform="matrix(0.8,0,0,0.8,30.777527,13.727488)" />
  <path
     style="fill:#ffffff;fill-opacity:1;fill-rule:nonzero;stroke:none;stroke-width:1.25"
     d="m 62.247,0.012 c 0.12,0.146 0.3,0.273 0.346,0.44 1.165,4.607 1.484,9.202 -0.173,13.782 -1.191,3.281 -3.14,6.048 -5.602,8.469 -4.091,4.027 -8.23,8.001 -12.295,12.055 -1.364,1.361 -2.581,2.861 -3.825,4.328 -3.899,4.581 -4.658,9.655 -2.096,15.103 1.271,2.687 2.814,5.241 4.218,7.861 0.166,0.307 0.293,0.641 0.432,0.967 l -0.292,0.234 c -0.4,-0.454 -0.792,-0.927 -1.211,-1.367 -3.553,-3.668 -6.66,-7.735 -9.275,-12.129 -2.022,-3.401 -2.069,-6.802 0.166,-10.016 1.597,-2.28 3.36,-4.527 5.396,-6.408 4.012,-3.707 8.29,-7.134 12.409,-10.722 1.936,-1.68 3.885,-3.374 5.628,-5.247 3.793,-4.094 5.616,-9.082 6.028,-14.616 0.04,-0.527 -0.126,-1.067 -0.166,-1.601 -0.027,-0.36 0,-0.727 0,-1.093 z m 0,0"
     id="path5"
     transform="matrix(0.8,0,0,0.8,30.777527,13.727488)" />
  <path
     style="fill:#ffffff;fill-opacity:1;fill-rule:nonzero;stroke:none;stroke-width:1.25"
     d="m 73.285,25.443 c -3.692,2.774 -7.305,5.268 -10.672,8.075 -2.095,1.761 -3.965,3.861 -5.648,6.035 -2.342,3.02 -2.349,6.301 -0.293,9.555 1.257,2 2.555,3.981 3.719,6.034 1.231,2.167 2.142,4.475 1.763,7.055 -0.08,0.707 -0.273,1.387 -0.572,2.034 -1.583,3.114 -4.045,5.401 -6.873,7.315 l -0.233,-0.154 c 0.173,-0.28 0.333,-0.573 0.519,-0.847 2.196,-3.227 2.243,-6.501 0.147,-9.782 -0.719,-1.14 -1.597,-2.18 -2.389,-3.273 -1.783,-2.448 -3.32,-5.028 -3.912,-8.055 -0.911,-4.595 0.419,-8.562 3.506,-11.989 3.314,-3.668 7.326,-6.375 11.77,-8.435 2.675,-1.241 5.456,-2.294 8.197,-3.421 0.246,-0.1 0.545,-0.087 0.971,-0.147 z m 0,0"
     id="path6"
     transform="matrix(0.8,0,0,0.8,30.777527,13.727488)" />
  <path
     style="fill:#ffffff;fill-opacity:1;fill-rule:nonzero;stroke:none;stroke-width:1.25"
     d="m 89.193,110.673 c 0.745,0.814 0.572,1.467 -0.013,1.894 -1.377,1.013 -2.735,2.127 -4.265,2.847 -3.779,1.76 -7.831,2.701 -11.916,3.427 -8.616,1.534 -17.332,2.041 -26.054,2.307 -9.175,0.274 -18.336,0.087 -27.485,-0.493 -5.189,-0.333 -10.332,-1 -15.349,-2.42 -1.097,-0.327 -2.155,-0.774 -3.14,-1.347 -1.098,-0.627 -1.271,-1.581 -0.486,-2.574 0.566,-0.754 1.264,-1.4 2.063,-1.901 3.08,-1.767 6.453,-2.653 10.046,-2.893 -0.332,0.153 -0.672,0.293 -0.998,0.453 -0.945,0.453 -1.903,0.873 -2.807,1.387 -0.746,0.413 -1.231,1.067 -1.158,1.987 0.073,0.92 0.699,1.42 1.47,1.627 2.469,0.653 4.93,1.42 7.439,1.814 11.31,1.727 22.681,2.027 34.084,1.34 7.399,-0.454 14.797,-0.9 22.182,-1.54 4.697,-0.407 9.375,-1.101 13.779,-2.981 1.257,-0.547 2.322,-1.254 2.608,-2.934 z m 0,0"
     id="path7"
     transform="matrix(0.8,0,0,0.8,30.777527,13.727488)" />
  <path
     style="fill:#ffffff;fill-opacity:1;fill-rule:nonzero;stroke:none;stroke-width:1.25"
     d="m 66.971,105.019 c -3.453,0.86 -6.873,1.907 -10.366,2.554 -8.682,1.627 -17.365,1.446 -25.947,-0.747 -1.59,-0.42 -3.107,-1.08 -4.504,-1.954 -1.97,-1.234 -1.903,-2.947 0.026,-4.281 0.759,-0.52 1.617,-0.9 2.628,-1.453 0.087,2.573 1.697,3.2 3.606,3.4 8.55,0.934 17.186,0.72 25.682,-0.633 2.269,-0.367 4.085,-0.24 5.915,1.067 0.918,0.653 1.969,1.133 2.954,1.693 z m 0,0"
     id="path8"
     transform="matrix(0.8,0,0,0.8,30.777527,13.727488)" />
  <path
     style="fill:#ffffff;fill-opacity:1;fill-rule:nonzero;stroke:none;stroke-width:1.25"
     d="m 68.615,90.989 c -3.846,0.814 -7.672,1.761 -11.531,2.441 -7.631,1.32 -15.309,0.88 -22.98,0.32 -3.712,-0.267 -7.372,-0.754 -10.865,-2.134 -1.024,-0.407 -2.022,-0.813 -2.175,-2.114 -0.16,-1.307 0.452,-2.307 1.53,-2.974 0.938,-0.58 1.936,-1.053 2.981,-1.627 -0.34,3.048 0.193,3.561 3.193,4.381 1.763,0.487 3.653,0.587 5.496,0.687 9.907,0.52 19.713,-0.473 29.48,-2.034 0.652,-0.066 1.304,0.074 1.863,0.407 1.052,0.64 2.003,1.454 3.008,2.207 z m 0,0"
     id="path9"
     transform="matrix(0.8,0,0,0.8,30.777527,13.727488)" />
  <path
     style="fill:#ffffff;fill-opacity:1;fill-rule:nonzero;stroke:none;stroke-width:1.25"
     d="m 72.666,74.893 c -1.889,2.254 -4.371,2.38 -6.766,2.707 -9.414,1.28 -18.842,2.567 -28.363,2.527 -8.19,-0.033 -16.387,-0.226 -24.404,-2.154 -0.599,-0.12 -1.171,-0.32 -1.716,-0.58 -0.346,-0.18 -0.832,-0.6 -0.812,-0.88 0.027,-0.42 0.346,-1 0.705,-1.193 1.597,-0.867 3.2,-1.774 4.91,-2.368 2.828,-0.986 5.722,-1.76 8.596,-2.593 0.3,-0.094 0.646,-0.014 1.038,0.173 -0.605,0.287 -1.231,0.567 -1.843,0.854 -1.131,0.533 -2.269,1.04 -3.373,1.627 -0.778,0.406 -1.371,1.013 -1.211,2.02 0.16,1.007 0.991,1.167 1.79,1.36 4.524,1.107 9.148,1.054 13.752,1.18 10.985,0.314 21.869,-0.886 32.747,-2.12 z m 0,0"
     id="path10"
     transform="matrix(0.8,0,0,0.8,30.777527,13.727488)" />
  <path
     style="fill:#ffffff;fill-opacity:1;fill-rule:nonzero;stroke:none;stroke-width:1.25"
     d="m 25.555,125.656 c 2.069,0 4.151,-0.127 6.214,0.02 10.033,0.693 20.059,0.847 30.093,0.067 8.582,-0.674 17.118,-1.627 25.255,-4.661 2.169,-0.814 4.232,-1.921 6.341,-2.894 0.233,-0.107 0.466,-0.22 0.698,-0.327 l 0.207,0.24 c -0.759,0.674 -1.451,1.427 -2.276,2.007 -3.899,2.714 -8.316,4.121 -12.907,5.041 -10.925,2.174 -21.956,2.988 -33.073,2.847 -6.82,-0.086 -13.606,-0.466 -20.279,-2.02 -0.094,-0.02 -0.187,-0.06 -0.28,-0.087 z m 0,0"
     id="path11"
     transform="matrix(0.8,0,0,0.8,30.777527,13.727488)" />
  <path
     style="fill:#ffffff;fill-opacity:1;fill-rule:nonzero;stroke:none;stroke-width:1.25"
     d="m 79.785,91.463 c 0.978,-0.76 1.976,-1.514 2.934,-2.274 2.329,-1.86 4.638,-3.767 6.175,-6.361 0.845,-1.421 1.616,-3.014 1.949,-4.621 0.951,-4.588 -1.836,-8.262 -6.547,-8.915 -0.831,-0.114 -1.676,-0.154 -2.508,-0.234 l -0.04,-0.286 c 1.238,-0.167 2.462,-0.454 3.699,-0.48 3.26,-0.074 5.975,1.247 8.164,3.6 2.242,2.407 2.681,6.282 1.011,9.275 -0.685,1.274 -1.543,2.448 -2.548,3.488 -3.001,3 -6.64,5.267 -10.645,6.634 -0.499,0.174 -1.025,0.274 -1.544,0.407 z m 0,0"
     id="path12"
     transform="matrix(0.8,0,0,0.8,30.777527,13.727488)" />
</svg>
