<?xml version="1.0" encoding="UTF-8" standalone="no"?>
<svg
   version="1.1"
   viewBox="0 0 3839 1608.5"
   id="svg18"
   sodipodi:docname="n64dd.svg"
   inkscape:version="1.3.2 (091e20e, 2023-11-25, custom)"
   xmlns:inkscape="http://www.inkscape.org/namespaces/inkscape"
   xmlns:sodipodi="http://sodipodi.sourceforge.net/DTD/sodipodi-0.dtd"
   xmlns="http://www.w3.org/2000/svg"
   xmlns:svg="http://www.w3.org/2000/svg">
  <defs
     id="defs18" />
  <sodipodi:namedview
     id="namedview18"
     pagecolor="#505050"
     bordercolor="#eeeeee"
     borderopacity="1"
     inkscape:showpageshadow="0"
     inkscape:pageopacity="0"
     inkscape:pagecheckerboard="0"
     inkscape:deskcolor="#505050"
     inkscape:zoom="0.66137015"
     inkscape:cx="1919.5"
     inkscape:cy="803.6347"
     inkscape:window-width="3840"
     inkscape:window-height="2126"
     inkscape:window-x="-11"
     inkscape:window-y="-11"
     inkscape:window-maximized="1"
     inkscape:current-layer="svg18" />
  <path
     class="st0"
     d="m 1927.2,215.4 34.6,34.6 20,-20 -30.1,-30.1 h 66.9 v 16.4 c 0,3 -2.4,5.4 -5.4,5.4 H 1996 V 250 h 32 c 10.4,0 18.9,-8.5 18.9,-18.9 V 221.7 200 h 41.6 V 178.1 H 2047 v -9.7 h 25.8 V 90.3 h -10.1 v 0 h -55.1 v -9.7 h 81 V 58.7 h -81 V 46 h -28.3 v 12.7 h -81.1 v 21.9 h 81.1 v 9.7 h -49.8 v 0 h -15.4 v 78.1 h 28.3 v 0 h 76.3 v 9.7 H 1898.2 V 200 h 44.4 z m 117.3,-64.5 h -36.9 v -16.8 h 36.9 z m 0,-43.1 v 8.8 h -36.9 v -8.8 z m -65.2,8.8 h -36.9 v -8.8 h 36.9 z m -36.9,17.5 h 36.9 v 16.8 h -36.9 z"
     style="fill:#ffffff;stroke-width:1.11111"
     id="path1"
     transform="matrix(0.9,0,0,0.9,178.41749,149.69242)" />
  <path
     class="st0"
     d="m 2155.7,189.1 v 0 -3.7 h 36.8 v 64.7 h 28.3 v -64.7 h 36.9 v 14.6 0 16.4 c 0,3 -2.4,5.4 -5.4,5.4 h -17.2 v 28.3 h 32 c 10.4,0 18.9,-8.5 18.9,-18.9 v -9.4 -67.1 0 -96.1 h -7.9 v 0 h -141.4 -9.4 v 130.6 c 0.1,17.7 -10.6,32.5 -23.1,45.1 6.7,6.6 17.2,15.5 23.9,22.1 17.8,-17.9 27.7,-42.1 27.6,-67.3 z m 0,-32 v -20.9 h 36.8 v 20.9 z m 102.1,-49.2 h -36.9 v -21 h 36.9 z m -65.3,0 h -36.8 v -21 h 36.8 z m 28.3,49.2 v -20.9 h 36.9 v 20.9 z"
     style="fill:#ffffff;stroke-width:1.11111"
     id="path2"
     transform="matrix(0.9,0,0,0.9,178.41749,149.69242)" />
  <rect
     x="2500.2"
     y="59.599998"
     class="st0"
     width="15.1"
     height="45.5"
     style="fill:#ffffff;stroke-width:1.11111"
     id="rect2"
     transform="matrix(0.9,0,0,0.9,178.41749,149.69242)" />
  <rect
     x="2534.3999"
     y="59.599998"
     class="st0"
     width="15.1"
     height="45.5"
     style="fill:#ffffff;stroke-width:1.11111"
     id="rect3"
     transform="matrix(0.9,0,0,0.9,178.41749,149.69242)" />
  <path
     class="st0"
     d="m 3160,160.4 c 29,2 56.7,13.4 83.2,27.1 5,-9.7 12.1,-26.1 17.1,-35.8 -31.2,-16.1 -65.6,-24.4 -100.3,-24.8 V 64.5 h -32.8 v 185.6 h 32.8 z"
     style="fill:#ffffff;stroke-width:1.11111"
     id="path3"
     transform="matrix(0.9,0,0,0.9,178.41749,149.69242)" />
  <rect
     x="3308.6001"
     y="61.299999"
     class="st0"
     width="122"
     height="32.799999"
     style="fill:#ffffff;stroke-width:1.11111"
     id="rect4"
     transform="matrix(0.9,0,0,0.9,178.41749,149.69242)" />
  <path
     class="st0"
     d="m 3545.1,250 h 32.8 V 135.4 C 3601,117.2 3619.6,93 3631,64.5 h -36 c -23.7,45.8 -71.2,75.1 -123.6,74.9 v 32.8 c 26,0.1 51.1,-5.8 73.7,-16.5 z"
     style="fill:#ffffff;stroke-width:1.11111"
     id="path4"
     transform="matrix(0.9,0,0,0.9,178.41749,149.69242)" />
  <rect
     x="2387.1001"
     y="63.099998"
     class="st0"
     width="93"
     height="32.799999"
     style="fill:#ffffff;stroke-width:1.11111"
     id="rect5"
     transform="matrix(0.9,0,0,0.9,178.41749,149.69242)" />
  <path
     class="st0"
     d="m 2552,191.3 c 16.5,-0.9 34.6,-5.9 51.8,-14.3 v 73.1 h 32.8 v -94.3 c 18.6,-15.5 33.3,-35.5 39.5,-58.3 -10.9,0 -21.9,0 -32.8,0 -14.2,34.7 -65.9,61.2 -96.8,61.2 z"
     style="fill:#ffffff;stroke-width:1.11111"
     id="path5"
     transform="matrix(0.9,0,0,0.9,178.41749,149.69242)" />
  <path
     class="st0"
     d="m 2698.4,217.7 c 0.8,2.9 7.8,30.3 8.3,32.3 31.9,-3.5 63,-26.3 85.4,-56 19.3,15 35.3,39.8 51.6,63.7 l 23.9,-29.1 c -17.4,-23.3 -37.2,-47.9 -58.3,-62.2 10.2,-20.2 16.3,-41.6 16.3,-61.3 V 72.3 H 2706 v 32.8 h 86.8 c -0.1,25.4 -27.1,91.7 -94.4,112.6 z"
     style="fill:#ffffff;stroke-width:1.11111"
     id="path6"
     transform="matrix(0.9,0,0,0.9,178.41749,149.69242)" />
  <rect
     x="3209"
     y="59.599998"
     class="st0"
     width="15.1"
     height="45.5"
     style="fill:#ffffff;stroke-width:1.11111"
     id="rect6"
     transform="matrix(0.9,0,0,0.9,178.41749,149.69242)" />
  <rect
     x="3243.2"
     y="59.599998"
     class="st0"
     width="15.1"
     height="45.5"
     style="fill:#ffffff;stroke-width:1.11111"
     id="rect7"
     transform="matrix(0.9,0,0,0.9,178.41749,149.69242)" />
  <rect
     x="3823.8999"
     y="59.599998"
     class="st0"
     width="15.1"
     height="45.400002"
     style="fill:#ffffff;stroke-width:1.11111"
     id="rect8"
     transform="matrix(0.9,0,0,0.9,178.41749,149.69242)" />
  <path
     class="st0"
     d="m 3341.5,217.3 h -37.9 l 5.1,32.8 h 32.8 c 69.6,0 104,-50.3 104,-102.5 v 0 -32.4 h -160 V 148 h 127.2 c -0.2,35.6 -23.7,69.3 -71.2,69.3 z"
     style="fill:#ffffff;stroke-width:1.11111"
     id="path8"
     transform="matrix(0.9,0,0,0.9,178.41749,149.69242)" />
  <path
     class="st0"
     d="m 2943.7,105 h 61.7 v 10.1 h 0.1 c 0,58.4 -54.1,97.2 -111.5,102.5 1.6,11.5 3.5,22.9 5.1,32.4 80.8,-12.3 139.2,-59.7 139.2,-134.9 0,0 -0.1,0 -0.1,0 v -18.3 0 -24.6 H 2956 c 0.8,-2.5 1.5,-4.9 2.2,-7.3 l -32.3,-8 c -8.4,30.2 -22.1,67.2 -44.3,89.6 l 13.5,31.1 c 20.1,-18.7 36.5,-45.2 48.6,-72.6 z"
     style="fill:#ffffff;stroke-width:1.11111"
     id="path9"
     transform="matrix(0.9,0,0,0.9,178.41749,149.69242)" />
  <path
     class="st0"
     d="m 3767.4,118.3 c 0,62.4 -36.7,99.6 -99,99.6 0,0 0,0 -5.1,0 0,0 4.5,29 5,32.2 90.8,0 131.9,-51.3 131.9,-131.7 v 0 -0.1 c 0,0 0,0 0,0 v 0 -13.3 0 -45.4 h -15.1 v 41.9 h -11.9 V 72.3 h -116.3 v 32.8 h 110.5 z"
     style="fill:#ffffff;stroke-width:1.11111"
     id="path10"
     transform="matrix(0.9,0,0,0.9,178.41749,149.69242)" />
  <polygon
     class="st0"
     points="190.9,259.8 190.9,60.4 130.2,60.4 130.2,174.8 129.7,174.8 89.7,60.4 0,60.4 0,259.8 60.7,259.8 60.7,144.7 61.2,144.7 101.2,259.8 "
     style="fill:#ffffff;stroke-width:1.11111"
     id="polygon10"
     transform="matrix(0.9,0,0,0.9,178.41749,149.69242)" />
  <polygon
     class="st0"
     points="529.3,259.8 529.3,60.4 468.7,60.4 468.7,174.8 468.2,174.8 428.1,60.4 338.4,60.4 338.4,259.8 399.1,259.8 399.1,144.7 399.6,144.7 439.6,259.8 "
     style="fill:#ffffff;stroke-width:1.11111"
     id="polygon11"
     transform="matrix(0.9,0,0,0.9,178.41749,149.69242)" />
  <polygon
     class="st0"
     points="1112.1,259.8 1112.1,60.4 1051.5,60.4 1051.5,174.8 1050.9,174.8 1010.9,60.4 921.2,60.4 921.2,259.8 981.9,259.8 981.9,144.7 982.4,144.7 1022.4,259.8 "
     style="fill:#ffffff;stroke-width:1.11111"
     id="polygon12"
     transform="matrix(0.9,0,0,0.9,178.41749,149.69242)" />
  <rect
     x="227.5"
     y="60.400002"
     class="st0"
     width="74.800003"
     height="199.3"
     style="fill:#ffffff;stroke-width:1.11111"
     id="rect12"
     transform="matrix(0.9,0,0,0.9,178.41749,149.69242)" />
  <polygon
     class="st0"
     points="721.1,114.6 721.1,60.4 551,60.4 551,114.6 598.6,114.6 598.6,259.8 673.4,259.8 673.4,114.6 "
     style="fill:#ffffff;stroke-width:1.11111"
     id="polygon13"
     transform="matrix(0.9,0,0,0.9,178.41749,149.69242)" />
  <path
     class="st0"
     d="m 1332.6,162.2 c 0,-59 -24.1,-101.8 -99.7,-101.8 h -88.6 v 199.3 h 93.1 c 58.1,0 95.2,-37.3 95.2,-97.5 z m -115.1,52.4 V 105.9 h 7.3 c 12.1,0 20.1,3.7 24.8,11.7 4.9,8.3 5.5,23.4 5.5,42.7 0,19.2 -0.5,34.3 -5.5,42.6 -4.7,8 -12.8,11.7 -24.8,11.7 z"
     style="fill:#ffffff;stroke-width:1.11111"
     id="path13"
     transform="matrix(0.9,0,0,0.9,178.41749,149.69242)" />
  <path
     class="st0"
     d="m 1449.9,265.1 c 65.2,0 97.6,-42.7 97.6,-104.9 0,-62.2 -32.5,-105 -97.6,-105 -65.2,0 -97.6,42.8 -97.6,105 0,62.1 32.5,104.9 97.6,104.9 z m 0,-159.4 c 12,0 20.1,6.8 20.1,54.5 0,48.8 -8.6,54.4 -20.1,54.4 -11.5,0 -20.2,-5.7 -20.1,-54.4 0,-47.8 8.1,-54.5 20.1,-54.5 z"
     style="fill:#ffffff;stroke-width:1.11111"
     id="path14"
     transform="matrix(0.9,0,0,0.9,178.41749,149.69242)" />
  <path
     class="st0"
     d="m 1639.9,164.5 c 33.6,0 58.8,-25.4 58.8,-58.1 0,-34.1 -22.9,-52.3 -47.9,-52.3 -13,0 -22.8,3.2 -30.6,10.1 h -0.8 c 4.3,-15.2 17,-28.6 48.6,-30.1 5.4,-0.3 9.3,-0.4 13.2,-0.1 l 0.2,-33.5 c -3.2,-0.3 -7.4,-0.7 -14.2,-0.3 -25.8,0.6 -46.9,8.2 -63.3,23.4 -17.2,16.1 -27.7,41.1 -27.7,70.7 0,36.3 19.3,70.2 63.7,70.2 z m -20.5,-67.7 c 2.5,-6.5 9.1,-11.7 17.4,-11.7 13.7,0 18.8,12.3 18.9,23.6 0,13.3 -6.2,23.8 -16.5,23.8 -14.1,0.1 -20.2,-13.3 -21.1,-26.1 0,-4.8 0.3,-7.6 1.3,-9.6 z"
     style="fill:#ffffff;stroke-width:1.11111"
     id="path15"
     transform="matrix(0.9,0,0,0.9,178.41749,149.69242)" />
  <path
     class="st0"
     d="m 1776.9,161.9 v 0 h 40 v -35.8 h 16.9 V 93.3 h -16.9 v -91 h -53.1 l -53.4,95.1 v 28.7 h 66.5 z m -28,-68.6 0.2,-0.5 13.1,-26.5 c 5.6,-11.1 9.9,-21.3 14.9,-32.1 h 0.9 c -0.5,11.2 -1.1,21.7 -1.1,31.8 v 27.4 z"
     style="fill:#ffffff;stroke-width:1.11111"
     id="path16"
     transform="matrix(0.9,0,0,0.9,178.41749,149.69242)" />
  <polygon
     class="st0"
     points="885.3,185.2 885.3,134 816.8,134 816.8,113.1 891.2,113.1 891.2,60.4 743.2,60.4 743.2,259.8 893.5,259.8 893.5,207.5 816.8,207.5 816.8,185.2 "
     style="fill:#ffffff;stroke-width:1.11111"
     id="polygon16"
     transform="matrix(0.9,0,0,0.9,178.41749,149.69242)" />
  <path
     class="st0"
     d="m 3283.5,382.8 h -143.6 -195.2 -35.9 -62.3 -21.5 V 776 C 2766,546 2585.3,382.8 2290.9,382.8 h -143.6 -195.2 -35.9 -62.3 -21.4 v 687.5 H 1650.6 V 382.7 H 1249 L 899.4,1006 C 843.5,853.6 708.7,773.9 564.5,773.9 c -98.7,0 -172,23.9 -231.2,75.8 h -5.7 c 32.8,-114.9 129,-216.3 367.6,-227.7 41.1,-1.9 70,-2.6 100.1,-0.5 V 368 C 770.7,365.7 739.9,363 688.1,365.7 492.6,370.5 333.3,428.3 209.3,542.8 79.4,664.7 0.1,853.9 0.1,1077.4 c 0,274.8 146.2,531.2 482,531.1 200.5,0 360.8,-119.3 419.9,-290.6 h 446.4 v 270.4 l 302.2,-0.1 v -270.4 h 181.9 v 270.5 h 21.4 62.3 35.9 195.2 143.6 c 294.4,0 475.1,-163.2 534.1,-393.2 v 393.2 h 21.4 62.3 35.9 195.2 143.6 c 365.4,0 555.5,-251.4 555.5,-569.8 v -66 C 3839,634.1 3648.8,382.8 3283.5,382.8 Z M 477.3,1365.7 h -1.6 c -105.6,0 -151.9,-101.3 -158.5,-197.6 0,-35.8 2.8,-57.1 9.9,-72 18.4,-48.6 68,-88.4 131,-88.4 104,0 143,92.7 143.5,178.1 0,101 -46.6,179.9 -124.3,179.9 z m 871.1,-502.6 v 207.3 h -210.9 l 1.3,-3.8 99,-200.8 c 42.2,-83.9 74.7,-161.3 112.5,-242.7 h 6.4 c -4,83.9 -8.3,163.6 -8.3,240 z m 942.5,476 h -143.6 v -707 h 143.6 c 113.1,0 210.5,114.9 210.5,353.5 0,238.6 -97.4,353.5 -210.5,353.5 z m 992.6,0 h -143.6 v -707 h 143.6 c 113.1,0 210.5,114.9 210.5,353.5 0,238.6 -97.4,353.5 -210.5,353.5 z"
     style="fill:#ffffff;stroke-width:1.11111"
     id="path17"
     transform="matrix(0.9,0,0,0.9,178.41749,149.69242)" />
  <path
     class="st0"
     d="m 2362.8,120.4 v 32.8 h 73.8 v 20.9 0.1 c 0,18.7 4.7,29.6 -56,48.8 l 8.5,27.1 c 44.5,-11.4 80.3,-24.5 80.3,-75.9 v -0.1 -20.9 h 61.5 v -32.8 z"
     style="fill:#ffffff;stroke-width:1.11111"
     id="path18"
     transform="matrix(0.9,0,0,0.9,178.41749,149.69242)" />
</svg>
