<?xml version="1.0" encoding="UTF-8" standalone="no"?>
<svg
   viewBox="0 0 600 290"
   version="1.1"
   id="svg1"
   sodipodi:docname="pcengine.svg"
   inkscape:version="1.3.2 (091e20e, 2023-11-25, custom)"
   xmlns:inkscape="http://www.inkscape.org/namespaces/inkscape"
   xmlns:sodipodi="http://sodipodi.sourceforge.net/DTD/sodipodi-0.dtd"
   xmlns="http://www.w3.org/2000/svg"
   xmlns:svg="http://www.w3.org/2000/svg">
  <defs
     id="defs1" />
  <sodipodi:namedview
     id="namedview1"
     pagecolor="#505050"
     bordercolor="#eeeeee"
     borderopacity="1"
     inkscape:showpageshadow="0"
     inkscape:pageopacity="0"
     inkscape:pagecheckerboard="0"
     inkscape:deskcolor="#505050"
     inkscape:zoom="1.0579167"
     inkscape:cx="-172.50886"
     inkscape:cy="-54.352107"
     inkscape:window-width="3840"
     inkscape:window-height="2126"
     inkscape:window-x="-11"
     inkscape:window-y="-11"
     inkscape:window-maximized="1"
     inkscape:current-layer="svg1" />
  <g
     id="surface1">
    <path
       d="m 61.278,213.427 c -0.415,0 -0.833,-0.094 -1.23,-0.289 C 19.855,193.631 -0.899,170.889 0.03,147.367 0.785,128.005 16.586,109.725 45.726,94.495 73.371,80.05 112.366,68.585 158.495,61.337 c 1.54,-0.24 2.981,0.812 3.221,2.349 0.244,1.537 -0.809,2.978 -2.346,3.221 C 65.927,81.581 7.031,112.498 5.663,147.592 c -0.824,20.806 19.365,42.286 56.848,60.478 1.398,0.68 1.982,2.361 1.302,3.769 -0.487,1.001 -1.492,1.588 -2.535,1.588 z"
       id="path7"
       style="fill:#ffffff;fill-opacity:1;stroke-width:1.25"
       transform="matrix(0.8,0,0,0.8,80.346618,47.262752)" />
    <path
       d="m 411.664,68.967 c -0.153,0 -0.307,-0.012 -0.463,-0.036 -29.693,-4.875 -61.032,-8.129 -93.155,-9.666 -1.558,-0.072 -2.758,-1.392 -2.682,-2.95 0.075,-1.552 1.419,-2.74 2.95,-2.677 32.34,1.546 63.9,4.821 93.804,9.732 1.534,0.25 2.577,1.7 2.322,3.236 -0.229,1.384 -1.42,2.361 -2.776,2.361 z"
       id="path11"
       style="fill:#ffffff;fill-opacity:1;stroke-width:1.25"
       transform="matrix(0.8,0,0,0.8,80.346618,47.262752)" />
    <path
       d="m 322.955,261.439 c -0.788,0 -1.57,0 -2.361,-0.004 -1.558,-0.003 -2.809,-1.266 -2.806,-2.824 0.006,-1.554 1.26,-2.809 2.815,-2.809 0.003,0 0.006,0 0.012,0 0.773,0.003 1.564,0.003 2.343,0.003 150.814,0.003 269.821,-39.199 271.391,-89.581 0.55,-17.633 -13.612,-35.519 -40.966,-51.723 C 526.148,98.36 487.11,84.603 440.503,74.718 c -1.522,-0.322 -2.493,-1.82 -2.175,-3.342 0.322,-1.521 1.823,-2.49 3.345,-2.171 47.2,10.012 86.823,23.997 114.583,40.448 29.224,17.317 44.345,36.941 43.726,56.745 -0.833,26.794 -30.433,51.218 -83.341,68.764 -51.158,16.962 -119.861,26.277 -193.686,26.277 z"
       id="path15"
       style="fill:#ffffff;fill-opacity:1;stroke-width:1.25"
       transform="matrix(0.8,0,0,0.8,80.346618,47.262752)" />
    <polygon
       points="336.449,67.334 344.278,102.754 269.881,159.463 357.267,124.573 381.82,150.134 373.989,114.726 448.389,58.014 361.006,92.895 "
       id="polygon17"
       style="fill:#ffffff;fill-opacity:1;stroke-width:1.25"
       transform="matrix(0.8,0,0,0.8,80.346618,47.262752)" />
    <path
       d="m 280.816,185.52 c 1.068,-5.251 3.014,-4.487 8.337,-5.335 l 4.957,-0.779 -1.543,8.264 -4.957,0.791 c -5.323,0.846 -7.669,2.268 -6.794,-2.941 z m -10.745,-7.567 -3.856,20.752 c -1.056,5.666 0.656,7.489 6.108,6.626 l 31.57,-5.008 6.767,-36.391 -31.573,5.002 c -5.452,0.863 -7.97,3.356 -9.016,9.019 z m 200.414,-32.754 -0.37,2.005 32.565,-5.169 c 2.571,-0.412 5.074,-3.011 5.6,-5.82 0.514,-2.809 -1.14,-4.755 -3.711,-4.343 l -8.364,1.321 -13.344,2.123 -3.381,0.529 c -3.913,0.626 -8.204,5.086 -8.995,9.354 z m -228.477,93.84 0.264,-1.447 c 1.119,0.084 2.62,0.517 3.931,0.322 l 33.844,-5.308 c -1.258,6.751 -10.175,8.445 -23.787,10.601 l -15.488,2.46 -8.307,44.665 20.352,-3.227 c 50.105,-4.945 69.166,-30.842 75.286,-61.711 l 61.053,-9.691 9.837,-52.938 4.966,-0.794 c 5.44,-0.863 4.637,-1.846 3.594,3.808 l -9.005,48.439 43.832,-6.957 0.598,-3.209 c 3.308,1.459 7.176,1.973 11.266,1.33 l 75.804,-12.024 7.068,-38.048 -4.911,-3.498 c 4.255,-5.044 7.573,-11.212 8.535,-16.391 l 1.194,-6 c 3.783,-22.442 -16.908,-28.403 -26.352,-26.902 l -43.5,6.902 c -7.706,1.224 -16.187,6.593 -22.361,13.705 -5.708,-5.654 -14.517,-7.852 -19.642,-7.037 l -48.43,7.681 5.423,11.982 43.675,-6.92 c 6.3,-1.005 10.508,1.509 11.663,6.499 -0.467,1.32 -11.663,60.935 -11.663,60.935 l -15.661,2.487 8.397,-45.133 c 1.041,-5.652 -0.667,-7.48 -6.105,-6.614 l -30.012,4.767 -9.846,52.938 -17.215,2.74 11.266,-60.613 -14.171,-16.716 -51.014,18.442 24.178,-3.838 0.391,-0.054 -15.375,82.716 c -3.907,21.01 -26.327,41.103 -46.216,44.261 l -20.349,3.224 3.086,-16.553 15.479,-2.448 c 13.609,-2.166 28.93,-15.787 31.573,-30.03 l 1.669,-8.963 -40.309,6.394 c -8.644,1.375 -13.335,-3.876 -11.636,-13.007 l 7.23,-38.884 c 1.278,-6.911 5.591,-12.647 11.359,-15.63 l 0.093,-1.038 20.226,-15.564 -11.814,1.988 c -6.288,0.993 -17.942,5.706 -25.35,15.152 -5.6,-6.683 -15.395,-9.299 -20.911,-8.424 l -43.449,6.902 7.082,-38.06 31.699,-5.031 c 16.872,-2.671 35.543,-21.651 38.863,-39.474 l 4.764,-25.648 C 271.986,28.721 259.445,14.697 242.57,17.374 l -69.275,10.989 -14.761,79.416 -63.789,10.123 c -5.398,0.858 -10.652,6.181 -11.708,11.886 l -23.84,128.219 c -1.056,5.708 2.463,9.645 7.861,8.794 l 121.717,-19.314 9.846,-52.938 4.957,-0.794 c 5.452,-0.854 4.649,-1.835 3.591,3.816 l -9.002,48.424 z m -90.322,-29.026 -40.7,6.457 1.531,-8.261 32.872,-5.227 8,-43.017 -32.872,5.224 1.53,-8.27 40.701,-6.46 z m -2.463,13.239 -3.38,18.196 -72.009,11.422 22.442,-120.772 59.488,-9.438 -3.073,16.548 -42.268,6.712 -6.454,34.74 34.436,-5.462 -3.073,16.539 -34.439,5.461 -6.467,34.752 z m 82.716,4.548 -17.224,2.721 8.387,-45.118 c 1.059,-5.657 -0.652,-7.492 -6.105,-6.629 l -30.009,4.767 -9.837,52.938 -17.224,2.737 12.914,-69.479 0.4,-0.066 57.134,-9.065 c 8.643,-1.374 13.332,3.868 11.633,13.007 z m 111.927,-85.2 16.833,-2.665 -12.923,69.483 -17.215,2.728 12.911,-69.474 z m 104.441,32.746 5.976,-32.141 c 1.895,-10.166 12.821,-20.151 22.126,-21.63 l 40.271,-6.382 c 6.785,-1.08 11.498,6.499 10.114,13.912 l -1.976,10.346 c -1.386,7.417 -8.962,15.299 -15.741,16.379 l -41.801,6.635 -0.602,3.753 c -0.794,4.265 2.036,7.597 5.949,6.974 l 46.722,-7.44 -3.149,16.956 -52.707,8.355 c -9.308,1.474 -17.064,-5.543 -15.182,-15.717 z M 199.181,85.268 205.024,53.831 226.94,50.354 c 2.875,-0.454 4.343,1.185 3.771,4.216 l -3.993,21.516 c -0.572,3.041 -2.746,5.248 -5.622,5.705 z"
       id="path21"
       style="fill:#ffffff;fill-opacity:1;stroke-width:1.25"
       transform="matrix(0.8,0,0,0.8,80.346618,47.262752)" />
    <path
       d="m 339.258,99.975 -4.649,-18.427 -2.626,0.315 -0.842,4.545 c -0.583,3.152 -3.116,5.714 -6.087,6.192 l -18.006,2.854 c -2.974,0.476 -4.674,-1.428 -4.087,-4.577 l 9.073,-48.806 c 0.584,-3.137 3.116,-5.705 6.085,-6.18 l 18.008,-2.854 c 2.972,-0.473 4.671,1.428 4.085,4.565 l -1.161,6.214 36.4,-5.781 1.383,-7.44 C 380.323,11.819 367.559,-2.455 349.785,0.354 L 314.958,5.882 C 297.195,8.703 278.179,28.02 274.69,46.796 l -9.687,52.114 c -3.486,18.776 9.278,33.049 27.053,30.228 l 11.639,-1.837 z"
       id="path25"
       style="fill:#ffffff;fill-opacity:1;stroke-width:1.25"
       transform="matrix(0.8,0,0,0.8,80.346618,47.262752)" />
    <path
       d="m 365.063,88.859 c 0.95,-2.556 1.606,-3.528 2.093,-6.15 l 1.236,-6.626 -14.484,2.304 z"
       id="path27"
       style="fill:#ffffff;fill-opacity:1;stroke-width:1.25"
       transform="matrix(0.8,0,0,0.8,80.346618,47.262752)" />
  </g>
</svg>
