<?xml version="1.0" encoding="UTF-8" standalone="no"?>
<!-- Created with Inkscape (http://www.inkscape.org/) -->

<svg
   width="226.88799mm"
   height="18.572271mm"
   viewBox="0 0 226.88798 18.572271"
   version="1.1"
   id="svg1"
   inkscape:version="1.3.2 (091e20e, 2023-11-25, custom)"
   sodipodi:docname="countline.svg"
   xmlns:inkscape="http://www.inkscape.org/namespaces/inkscape"
   xmlns:sodipodi="http://sodipodi.sourceforge.net/DTD/sodipodi-0.dtd"
   xmlns="http://www.w3.org/2000/svg"
   xmlns:svg="http://www.w3.org/2000/svg">
  <sodipodi:namedview
     id="namedview1"
     pagecolor="#505050"
     bordercolor="#eeeeee"
     borderopacity="1"
     inkscape:showpageshadow="0"
     inkscape:pageopacity="0"
     inkscape:pagecheckerboard="0"
     inkscape:deskcolor="#505050"
     inkscape:document-units="mm"
     inkscape:zoom="0.30252301"
     inkscape:cx="-1356.9216"
     inkscape:cy="-170.23499"
     inkscape:window-width="3840"
     inkscape:window-height="2126"
     inkscape:window-x="-11"
     inkscape:window-y="-11"
     inkscape:window-maximized="1"
     inkscape:current-layer="layer1" />
  <defs
     id="defs1">
    <inkscape:path-effect
       effect="fillet_chamfer"
       id="path-effect3"
       is_visible="true"
       lpeversion="1"
       nodesatellites_param="F,0,0,1,0,3.96875,0,1 @ F,0,0,1,0,3.96875,0,1 @ F,0,0,1,0,3.96875,0,1 @ F,0,0,1,0,3.96875,0,1"
       radius="15"
       unit="px"
       method="auto"
       mode="F"
       chamfer_steps="1"
       flexible="false"
       use_knot_distance="true"
       apply_no_radius="true"
       apply_with_radius="true"
       only_selected="false"
       hide_knots="false" />
    <inkscape:path-effect
       effect="fillet_chamfer"
       id="path-effect2"
       is_visible="true"
       lpeversion="1"
       nodesatellites_param="F,0,0,1,0,7.9375,0,1 @ F,0,0,1,0,7.9375,0,1 @ F,0,0,1,0,7.9375,0,1 @ F,0,0,1,0,7.9375,0,1"
       radius="30"
       unit="px"
       method="auto"
       mode="F"
       chamfer_steps="1"
       flexible="false"
       use_knot_distance="true"
       apply_no_radius="true"
       apply_with_radius="true"
       only_selected="false"
       hide_knots="false" />
    <inkscape:path-effect
       effect="fillet_chamfer"
       id="path-effect1"
       is_visible="true"
       lpeversion="1"
       nodesatellites_param="F,0,0,1,0,40,0,1 @ F,0,0,1,0,40,0,1 @ F,0,0,1,0,40,0,1 @ F,0,0,1,0,40,0,1"
       radius="40"
       unit="px"
       method="auto"
       mode="F"
       chamfer_steps="1"
       flexible="false"
       use_knot_distance="true"
       apply_no_radius="true"
       apply_with_radius="true"
       only_selected="false"
       hide_knots="false" />
    <inkscape:path-effect
       effect="fillet_chamfer"
       id="path-effect1-4"
       is_visible="true"
       lpeversion="1"
       nodesatellites_param="F,0,0,1,0,40,0,1 @ F,0,0,1,0,40,0,1 @ F,0,0,1,0,40,0,1 @ F,0,0,1,0,40,0,1"
       radius="40"
       unit="px"
       method="auto"
       mode="F"
       chamfer_steps="1"
       flexible="false"
       use_knot_distance="true"
       apply_no_radius="true"
       apply_with_radius="true"
       only_selected="false"
       hide_knots="false" />
    <inkscape:path-effect
       effect="fillet_chamfer"
       id="path-effect1-4-2"
       is_visible="true"
       lpeversion="1"
       nodesatellites_param="F,0,0,1,0,40,0,1 @ F,0,0,1,0,40,0,1 @ F,0,0,1,0,40,0,1 @ F,0,0,1,0,40,0,1"
       radius="40"
       unit="px"
       method="auto"
       mode="F"
       chamfer_steps="1"
       flexible="false"
       use_knot_distance="true"
       apply_no_radius="true"
       apply_with_radius="true"
       only_selected="false"
       hide_knots="false" />
    <inkscape:path-effect
       effect="fillet_chamfer"
       id="path-effect1-4-2-0"
       is_visible="true"
       lpeversion="1"
       nodesatellites_param="F,0,0,1,0,40,0,1 @ F,0,0,1,0,40,0,1 @ F,0,0,1,0,40,0,1 @ F,0,0,1,0,40,0,1"
       radius="40"
       unit="px"
       method="auto"
       mode="F"
       chamfer_steps="1"
       flexible="false"
       use_knot_distance="true"
       apply_no_radius="true"
       apply_with_radius="true"
       only_selected="false"
       hide_knots="false" />
    <inkscape:path-effect
       effect="fillet_chamfer"
       id="path-effect1-4-2-8"
       is_visible="true"
       lpeversion="1"
       nodesatellites_param="F,0,0,1,0,40,0,1 @ F,0,0,1,0,40,0,1 @ F,0,0,1,0,40,0,1 @ F,0,0,1,0,40,0,1"
       radius="40"
       unit="px"
       method="auto"
       mode="F"
       chamfer_steps="1"
       flexible="false"
       use_knot_distance="true"
       apply_no_radius="true"
       apply_with_radius="true"
       only_selected="false"
       hide_knots="false" />
    <inkscape:path-effect
       effect="fillet_chamfer"
       id="path-effect3-9"
       is_visible="true"
       lpeversion="1"
       nodesatellites_param="F,0,0,1,0,3.96875,0,1 @ F,0,0,1,0,3.96875,0,1 @ F,0,0,1,0,3.96875,0,1 @ F,0,0,1,0,3.96875,0,1"
       radius="15"
       unit="px"
       method="auto"
       mode="F"
       chamfer_steps="1"
       flexible="false"
       use_knot_distance="true"
       apply_no_radius="true"
       apply_with_radius="true"
       only_selected="false"
       hide_knots="false" />
  </defs>
  <g
     inkscape:label="Layer 1"
     inkscape:groupmode="layer"
     id="layer1"
     transform="translate(467.14391,-87.166667)">
    <path
       d="m 118.18326,35.113499 c 25.8632,0 46.82947,20.684296 46.82947,46.199672 0,24.983799 -20.10176,45.335729 -45.21956,46.172879 l -1.60991,0.0268 H 78.072075 c -25.863189,0 -46.829421,-20.6843 -46.829421,-46.199666 0,-24.983806 20.101747,-45.335731 45.219519,-46.172888 l 1.609902,-0.02683 z m -1.65831,49.499645 c -4.61842,0 -8.36238,3.693626 -8.36238,8.249935 0,4.556323 3.74396,8.249951 8.36238,8.249951 4.61843,0 8.36241,-3.693628 8.36241,-8.249951 0,-4.556309 -3.74398,-8.249935 -8.36241,-8.249935 z M 71.367999,61.51331 c -2.540145,0 -4.639403,1.862204 -4.971621,4.278288 l -0.04587,0.671679 v 9.88673 l -10.034854,0.0046 c -2.771059,0 -5.017456,2.216174 -5.017456,4.949963 0,2.505972 1.887598,4.577016 4.336636,4.904779 l 0.68082,0.0452 10.034854,-0.0046 v 9.913133 c 0,2.73379 2.246399,4.949958 5.017439,4.949958 2.540146,0 4.639424,-1.862197 4.971659,-4.278277 l 0.04587,-0.671681 v -9.913139 l 10.034874,0.0046 c 2.771099,0 5.017436,-2.216178 5.017436,-4.949967 0,-2.505973 -1.887557,-4.577006 -4.336595,-4.904779 l -0.680841,-0.0452 -10.034874,-0.0046 v -9.886725 c 0,-2.733791 -2.246378,-4.949967 -5.017477,-4.949969 z m 58.536801,0 c -4.61845,0 -8.36241,3.69362 -8.36241,8.249939 0,4.556317 3.74396,8.249944 8.36241,8.249944 4.61843,0 8.36241,-3.693627 8.36241,-8.249944 0,-4.556319 -3.74398,-8.249939 -8.36241,-8.249939 z"
       id="🎨-Color"
       style="clip-rule:evenodd;fill:#ffffff;fill-opacity:1;fill-rule:nonzero;stroke:none;stroke-width:8.74675;stroke-linejoin:round;stroke-miterlimit:2"
       transform="matrix(0.20099995,0,0,0.20099995,-373.42368,80.108862)" />
    <path
       style="fill:#ffffff;stroke:#ffffff;stroke-width:0"
       id="rect2"
       width="336.54465"
       height="8.6770258"
       x="518.349"
       y="15.288094"
       transform="matrix(0.20799618,0,0,0.26458333,-438.07052,91.121692)"
       inkscape:path-effect="#path-effect3"
       sodipodi:type="rect"
       d="M 522.31775,15.288094 H 850.9249 a 3.96875,3.96875 45 0 1 3.96875,3.96875 v 0.739525 a 3.96875,3.96875 135 0 1 -3.96875,3.96875 H 522.31775 a 3.96875,3.96875 45 0 1 -3.96875,-3.96875 v -0.739525 a 3.96875,3.96875 135 0 1 3.96875,-3.96875 z" />
    <path
       style="fill:#ffffff;stroke:#ffffff;stroke-width:0"
       id="rect2-6"
       width="336.54465"
       height="8.6770258"
       x="518.349"
       y="15.288094"
       transform="matrix(0.20799618,0,0,0.26458333,-554.95852,91.121692)"
       inkscape:path-effect="#path-effect3-9"
       sodipodi:type="rect"
       d="M 522.31775,15.288094 H 850.9249 a 3.96875,3.96875 45 0 1 3.96875,3.96875 v 0.739525 a 3.96875,3.96875 135 0 1 -3.96875,3.96875 H 522.31775 a 3.96875,3.96875 45 0 1 -3.96875,-3.96875 v -0.739525 a 3.96875,3.96875 135 0 1 3.96875,-3.96875 z" />
  </g>
</svg>
