<?xml version="1.0" encoding="UTF-8" standalone="no"?>
<svg
   width="796.64722"
   height="149.71806"
   inkscape:version="1.3.2 (091e20e, 2023-11-25, custom)"
   sodipodi:docname="final-fantasy.svg"
   version="1.0"
   viewBox="0 0 808.1986 161.14392"
   xml:space="preserve"
   id="svg3"
   xmlns:inkscape="http://www.inkscape.org/namespaces/inkscape"
   xmlns:sodipodi="http://sodipodi.sourceforge.net/DTD/sodipodi-0.dtd"
   xmlns:xlink="http://www.w3.org/1999/xlink"
   xmlns="http://www.w3.org/2000/svg"
   xmlns:svg="http://www.w3.org/2000/svg"
   xmlns:rdf="http://www.w3.org/1999/02/22-rdf-syntax-ns#"
   xmlns:cc="http://creativecommons.org/ns#"
   xmlns:dc="http://purl.org/dc/elements/1.1/"><defs
   id="defs3" /><sodipodi:namedview
   bordercolor="#666666"
   borderopacity="1"
   gridtolerance="10"
   guidetolerance="10"
   inkscape:current-layer="svg3"
   inkscape:cx="410.05657"
   inkscape:cy="-51.176097"
   inkscape:pageopacity="0"
   inkscape:pageshadow="2"
   inkscape:window-height="2126"
   inkscape:window-maximized="1"
   inkscape:window-width="3840"
   inkscape:window-x="-11"
   inkscape:window-y="-11"
   inkscape:zoom="0.77184472"
   objecttolerance="10"
   pagecolor="#ffffff"
   showgrid="false"
   id="namedview1"
   inkscape:showpageshadow="0"
   inkscape:pagecheckerboard="0"
   inkscape:deskcolor="#000000" /><title
   id="title1">Final Fantasy wordmark</title><metadata
   id="metadata1"><rdf:RDF><cc:Work
       rdf:about=""><dc:format>image/svg+xml</dc:format><dc:type
         rdf:resource="http://purl.org/dc/dcmitype/StillImage" /><dc:title>Final Fantasy wordmark</dc:title></cc:Work></rdf:RDF></metadata>
<g
   transform="matrix(0.9961,0,0,0.9851,-0.04628875,0.00303411)"
   id="g3"
   style="fill:#ffffff">
	
	<g
   transform="matrix(1.076,0,0,1.076,-33.97,186.5)"
   id="g2"
   style="fill:#ffffff">
		<defs
   id="defs1">
			<path
   id="cvfa"
   d="m 784.1,8.888 v 3.646 c -4.066,-1.018 -5.693,5.193 -3.959,18.46 l 4.915,37.65 4.447,-37.2 c 0.5,-4.226 0.722,-7.488 0.881,-9.299 0.507,-5.779 -0.778,-8.987 -3.833,-9.61 V 8.889 h 19.27 v 3.958 c -3.259,0.205 -4.551,1.664 -4.902,4.269 l -11.06,82.08 v 45.18 c -0.21,5.074 1.331,7.837 4.59,8.225 v 3.981 h -22 v -4.288 c 2.838,-0.182 4.271,-2.844 4.271,-7.918 v -50.68 l -7.991,-67.34 c -0.921,-7.767 -4.135,-13.02 -6.916,-14.1 l -0.318,-3.358 h 22.61 z m -82.83,95.21 16.5,-8.543 c -2.03,31.74 -1.484,48.4 1.672,50.04 3.157,1.626 4.954,0.818 5.347,-2.435 1.848,-12.22 1.848,-24.51 0,-36.94 -0.603,-6.303 -1.825,-10.77 -3.652,-13.44 -11.42,-17.68 -17.94,-30.91 -19.55,-39.66 l -0.313,-30.2 c 2.241,-10.6 8.344,-15.88 18.32,-15.88 11.22,0.206 17.11,7.34 17.73,21.38 l 0.91,19.53 -15.28,9.764 c 0.204,-12.21 0.204,-23.62 0,-34.19 0,-5.079 -1.178,-7.681 -3.521,-7.789 -2.35,-0.102 -3.492,2.295 -3.492,7.189 l 0.284,30.52 c 10.4,16.66 17.42,29.47 21.1,38.44 3.646,8.964 4.977,21.77 3.959,38.46 -1.012,18.52 -7.639,27.65 -19.87,27.45 -11.81,-0.604 -18.51,-8.748 -20.15,-24.48 v -29.21 z m -46.39,53.09 v -2.138 c 2.45,-2.446 3.259,-11.19 2.45,-26.24 h -7.638 c -1.229,15.05 -0.522,23.8 2.138,26.24 v 2.138 h -19.87 v -2.138 c 1.644,-0.206 3.003,-0.854 4.124,-1.969 1.12,-1.126 4.532,-49.89 10.24,-146.3 h 15.88 c 7.537,96.43 11.71,145.2 12.54,146.3 0.809,1.115 2.037,1.763 3.652,1.969 v 2.138 z m -4.75,-41.51 h 5.973 l -3.049,-49.42 z m -83.8,-109.9 h 42.76 v 54.03 h -5.188 c -1.024,-21.77 -3.862,-34.69 -8.554,-38.77 v 125.1 c 0,4.903 2.241,7.951 6.729,9.169 v 2.138 h -28.42 v -2.138 c 4.874,-1.218 7.115,-4.38 6.723,-9.477 V 21.03 c -5.107,3.879 -8.372,16.8 -9.776,38.77 h -4.271 V 5.77 Z m -66.55,11.3 c 0.597,-3.671 -1.041,-5.884 -4.903,-6.717 V 6.402 h 21.69 l 11.92,85.13 v -75.68 c 0,-3.045 -1.229,-4.766 -3.68,-5.181 V 6.399 h 18.64 v 3.958 c -2.634,0.623 -3.862,4.897 -3.652,12.81 v 133.7 h -14.37 l -14.68,-95.8 v 85.75 c -0.603,4.459 0.939,6.585 4.591,6.403 v 3.652 h -20.78 l 0.313,-3.368 c 3.469,-0.386 5.085,-2.729 4.903,-6.995 v -129.4 z m -51.6,140.1 v -2.138 c 2.452,-2.446 3.256,-11.19 2.452,-26.24 h -7.639 c -1.226,15.05 -0.523,23.8 2.135,26.24 v 2.138 h -19.87 v -2.138 c 1.641,-0.206 2.998,-0.854 4.118,-1.969 1.121,-1.126 4.539,-49.89 10.25,-146.3 h 15.88 c 7.536,96.43 11.71,145.2 12.54,146.3 0.811,1.115 2.036,1.763 3.651,1.969 v 2.138 z m -4.743,-41.51 h 5.969 l -3.055,-49.42 z m -82.29,-100.1 c 0,-3.253 -1.826,-4.869 -5.5,-4.869 V 6.74 h 46.75 v 50.05 h -4.274 c -1.433,-15.89 -3.677,-26.72 -6.725,-32.52 -3.055,-5.784 -7.645,-8.776 -13.74,-8.984 v 51.87 c 5.503,1.822 8.344,-5.805 8.555,-22.89 l 4.277,0.315 v 62.55 h -4.277 c 0,-16.48 -2.844,-25.34 -8.555,-26.54 v 64.99 c 0,5.892 1.411,8.133 4.278,6.7 l 0.313,4.584 h -25.68 l -0.313,-4.584 c 3.467,1.216 5.11,-0.91 4.903,-6.405 v -130.3 z m -95.5,3.671 c -0.21,-5.284 -2.241,-8.02 -6.103,-8.23 V 6.427 h 27.8 v 4.271 c -4.066,0.415 -6.1,3.256 -6.1,8.54 l 0.077,128.3 c 7.693,-0.512 13.66,-17.86 17.94,-52.02 h 3.987 v 61.63 h -44.02 v -4.266 c 4.07,-0.421 6.206,-2.832 6.416,-7.325 v -126.3 z m -51.81,137.9 v -2.138 c 2.452,-2.446 3.262,-11.19 2.452,-26.24 h -7.639 c -1.229,15.05 -0.523,23.8 2.138,26.24 v 2.138 h -19.87 v -2.138 c 1.641,-0.206 3,-0.854 4.118,-1.969 1.124,-1.126 4.536,-49.89 10.25,-146.3 h 15.88 c 7.534,96.43 11.71,145.2 12.54,146.3 0.808,1.115 2.036,1.763 3.652,1.969 v 2.138 z m -4.744,-41.51 h 5.97 l -3.052,-49.42 z m -83.73,-98.56 c 0.6,-3.671 -1.044,-5.884 -4.903,-6.717 V 6.393 h 21.7 l 11.92,85.13 v -75.68 c 0,-3.045 -1.226,-4.766 -3.677,-5.181 V 6.39 h 18.64 v 3.958 c -2.633,0.623 -3.859,4.897 -3.651,12.81 v 133.7 h -14.37 l -14.68,-95.8 v 85.75 c -0.603,4.459 0.938,6.585 4.587,6.403 v 3.652 h -20.78 l 0.31,-3.368 c 3.47,-0.386 5.085,-2.729 4.903,-6.995 V 17.1 Z M 74.443,10.665 V 6.393 h 23.52 l -0.284,4.271 c -2.867,0.415 -4.278,2.445 -4.278,6.092 v 127.6 c 0.08,5.995 1.721,8.85 4.875,8.543 v 4.266 h -23.83 v -4.266 c 2.841,0.421 4.274,-2.446 4.274,-8.543 v -127.6 c 0.001,-3.647 -1.433,-5.677 -4.274,-6.092 z m -63.12,4.869 c 0,-3.253 -1.829,-4.869 -5.503,-4.869 V 6.706 h 46.75 v 50.05 H 48.292 C 46.859,40.866 44.615,30.036 41.566,24.236 38.515,18.452 33.925,15.46 27.826,15.252 v 51.87 c 5.502,1.822 8.344,-5.805 8.554,-22.89 l 4.277,0.315 v 62.55 H 36.38 c 0,-16.48 -2.841,-25.34 -8.554,-26.54 v 64.99 c 0,5.892 1.41,8.133 4.277,6.7 l 0.313,4.584 H 6.736 l -0.313,-4.584 c 3.467,1.216 5.108,-0.91 4.903,-6.405 v -130.3 z" />
		</defs>
		
		<clipPath
   id="cvfb">
			<use
   width="811.62701"
   height="163.603"
   xlink:href="#cvfa"
   id="use1" />
		</clipPath>
	<use
   transform="translate(2.724,-179.1)"
   width="811.62701"
   height="163.603"
   xlink:href="#cvfa"
   id="use2"
   style="fill:#ffffff" /></g>
</g>
</svg>
