<?xml version="1.0" encoding="UTF-8" standalone="no"?>
<svg
   viewBox="0 0 1078.9 618.7"
   version="1.1"
   id="svg2"
   sodipodi:docname="flash.svg"
   inkscape:version="1.3.2 (091e20e, 2023-11-25, custom)"
   xmlns:inkscape="http://www.inkscape.org/namespaces/inkscape"
   xmlns:sodipodi="http://sodipodi.sourceforge.net/DTD/sodipodi-0.dtd"
   xmlns="http://www.w3.org/2000/svg"
   xmlns:svg="http://www.w3.org/2000/svg">
  <defs
     id="defs2" />
  <sodipodi:namedview
     id="namedview2"
     pagecolor="#505050"
     bordercolor="#eeeeee"
     borderopacity="1"
     inkscape:showpageshadow="0"
     inkscape:pageopacity="0"
     inkscape:pagecheckerboard="0"
     inkscape:deskcolor="#505050"
     inkscape:zoom="0.20800631"
     inkscape:cx="-2612.9015"
     inkscape:cy="-1353.3243"
     inkscape:window-width="3840"
     inkscape:window-height="2126"
     inkscape:window-x="-11"
     inkscape:window-y="-11"
     inkscape:window-maximized="1"
     inkscape:current-layer="svg2" />
  <path
     style="fill:#ffffff;fill-opacity:1;stroke:none;stroke-width:1.5625"
     d="m 257.221,560.401 v -58.292 l 9.991,-1.002 c 48.016,-4.813 70.977,-15.185 101.759,-45.967 35.902,-35.902 59.944,-80.902 99.753,-186.711 26.342,-70.014 48.179,-112.521 82.39,-160.38 C 580.973,66.278 628.292,32.429 681.278,14.937 707.386,6.319 742.898,0 765.22,0 h 8.567 v 58.347 58.347 l -9.991,0.873 c -26.478,2.311 -47.939,8.879 -68.659,21.013 -27.562,16.14 -61.414,57.572 -80.451,98.465 -6.606,14.19 -10.25,13.097 43.65,13.097 h 47.365 v 59.191 59.191 l -72.656,0.384 -72.656,0.384 -7.991,17.663 c -20.485,45.279 -44.381,87.918 -67.793,120.968 -44.988,63.509 -105.049,98.039 -188.901,108.603 -9.361,1.179 -21.85,2.15 -27.752,2.156 l -10.731,0.012 z"
     id="path3820"
     transform="matrix(0.64,0,0,0.64,216.3396,158.64904)" />
  <path
     d="M 60.799,347.309 54.904,332.403 H 25.518 l -5.575,14.906 H 0 l 31.846,-75.924 h 17.803 l 31.525,75.924 z M 40.425,291.653 30.773,317.71 h 19.089 z m 117.945,17.478 c 0,6.651 -1.233,12.388 -3.698,17.211 -2.468,4.827 -5.72,8.796 -9.758,11.908 -4.04,3.109 -8.598,5.396 -13.673,6.861 -5.076,1.465 -10.224,2.198 -15.445,2.198 H 87.487 v -75.924 h 27.455 c 5.36,0 10.649,0.626 15.867,1.878 5.221,1.252 9.868,3.325 13.94,6.22 4.076,2.896 7.366,6.774 9.87,11.636 2.501,4.859 3.751,10.863 3.751,18.012 z m -19.089,0 c 0,-4.289 -0.697,-7.846 -2.092,-10.67 -1.394,-2.824 -3.252,-5.076 -5.575,-6.755 -2.322,-1.679 -4.967,-2.875 -7.933,-3.59 -2.967,-0.715 -6.024,-1.073 -9.171,-1.073 h -9.113 v 44.394 h 8.686 c 3.286,0 6.45,-0.375 9.491,-1.126 3.037,-0.75 5.718,-1.983 8.04,-3.697 2.323,-1.718 4.181,-4.006 5.575,-6.866 1.395,-2.86 2.092,-6.399 2.092,-10.617 z m 110.346,-0.107 c 0,6.007 -1.036,11.495 -3.11,16.464 -2.074,4.969 -4.951,9.223 -8.632,12.762 -3.682,3.536 -8.06,6.269 -13.135,8.2 -5.076,1.931 -10.582,2.897 -16.518,2.897 -5.933,0 -11.419,-0.966 -16.459,-2.897 -5.04,-1.931 -9.4,-4.664 -13.082,-8.2 -3.681,-3.539 -6.558,-7.793 -8.632,-12.762 -2.073,-4.969 -3.11,-10.457 -3.11,-16.464 0,-6.075 1.037,-11.561 3.11,-16.459 2.074,-4.897 4.951,-9.062 8.632,-12.494 3.682,-3.433 8.042,-6.077 13.082,-7.934 5.04,-1.86 10.526,-2.79 16.459,-2.79 5.936,0 11.442,0.93 16.518,2.79 5.075,1.857 9.453,4.501 13.135,7.934 3.681,3.432 6.558,7.597 8.632,12.494 2.074,4.898 3.11,10.384 3.11,16.459 z m -19.622,0 c 0,-3.286 -0.537,-6.359 -1.611,-9.219 -1.071,-2.86 -2.554,-5.309 -4.45,-7.347 -1.896,-2.037 -4.183,-3.647 -6.861,-4.828 -2.682,-1.177 -5.632,-1.766 -8.851,-1.766 -3.215,0 -6.146,0.589 -8.792,1.766 -2.643,1.181 -4.93,2.791 -6.861,4.828 -1.932,2.038 -3.415,4.487 -4.45,7.347 -1.038,2.86 -1.557,5.933 -1.557,9.219 0,3.433 0.537,6.596 1.61,9.491 1.071,2.896 2.554,5.38 4.45,7.454 1.896,2.073 4.165,3.7 6.808,4.881 2.646,1.178 5.577,1.766 8.792,1.766 3.219,0 6.151,-0.588 8.798,-1.766 2.642,-1.181 4.929,-2.808 6.861,-4.881 1.931,-2.074 3.432,-4.558 4.503,-7.454 1.074,-2.895 1.611,-6.058 1.611,-9.491 z m 90.922,16.192 c 0,4.148 -0.821,7.633 -2.465,10.457 -1.646,2.824 -3.827,5.094 -6.541,6.808 -2.717,1.718 -5.809,2.952 -9.277,3.702 -3.468,0.751 -7.025,1.126 -10.67,1.126 h -30.24 v -75.924 h 30.24 c 2.93,0 5.932,0.304 9.005,0.912 3.077,0.608 5.865,1.645 8.366,3.11 2.504,1.466 4.542,3.449 6.114,5.949 1.572,2.504 2.358,5.686 2.358,9.545 0,4.218 -1.144,7.704 -3.431,10.457 -2.287,2.753 -5.289,4.737 -9.006,5.953 v 0.214 c 2.145,0.356 4.164,1.017 6.056,1.985 1.896,0.964 3.541,2.196 4.935,3.697 1.394,1.501 2.502,3.253 3.324,5.255 0.821,2.002 1.232,4.254 1.232,6.754 z m -20.802,-31.845 c 0,-2.575 -0.983,-4.453 -2.95,-5.634 -1.967,-1.177 -4.88,-1.766 -8.739,-1.766 h -9.011 v 15.654 h 9.87 c 3.429,0 6.091,-0.698 7.987,-2.092 1.896,-1.394 2.843,-3.448 2.843,-6.162 z m 2.465,30.133 c 0,-3.148 -1.179,-5.328 -3.537,-6.541 -2.361,-1.217 -5.507,-1.825 -9.438,-1.825 h -10.19 v 17.372 h 10.297 c 1.43,0 2.913,-0.125 4.45,-0.374 1.536,-0.252 2.93,-0.699 4.182,-1.339 1.252,-0.644 2.271,-1.556 3.057,-2.737 0.786,-1.181 1.179,-2.7 1.179,-4.556 z m 30.463,23.805 v -75.924 h 51.042 v 15.552 h -33.35 v 14.261 h 31.525 v 14.692 h -31.525 v 15.761 h 35.281 v 15.658 z"
     style="fill:#ffffff;stroke-width:1.5625"
     id="path1"
     transform="matrix(0.64,0,0,0.64,216.3396,158.64904)" />
  <path
     d="m 770.255,286.984 v 15.695 h 29.464 v 15.161 h -29.464 v 29.571 h -18.172 v -76.127 h 50.108 v 15.7 z m 43.754,60.427 v -76.127 h 18.493 v 60.105 h 29.459 v 16.022 z m 108.17,0 -5.916,-14.946 h -29.46 l -5.59,14.946 h -20.001 l 31.936,-76.127 h 17.845 l 31.615,76.127 z m -20.43,-55.805 -9.677,26.127 h 19.14 z m 87.401,-0.535 c -1.577,-2.008 -3.638,-3.604 -6.184,-4.788 -2.543,-1.184 -4.999,-1.776 -7.366,-1.776 -1.217,0 -2.452,0.109 -3.708,0.326 -1.255,0.214 -2.384,0.626 -3.386,1.236 -1.005,0.61 -1.849,1.398 -2.53,2.365 -0.681,0.966 -1.022,2.204 -1.022,3.712 0,1.288 0.27,2.363 0.808,3.226 0.539,0.859 1.327,1.612 2.365,2.257 1.041,0.646 2.278,1.236 3.712,1.771 1.433,0.539 3.046,1.095 4.836,1.669 2.582,0.859 5.271,1.81 8.067,2.851 2.796,1.038 5.34,2.416 7.633,4.135 2.293,1.723 4.193,3.855 5.698,6.398 1.505,2.546 2.257,5.719 2.257,9.517 0,4.372 -0.806,8.154 -2.418,11.346 -1.612,3.188 -3.78,5.822 -6.505,7.901 -2.725,2.079 -5.843,3.62 -9.356,4.622 -3.513,1.005 -7.132,1.508 -10.859,1.508 -5.446,0 -10.715,-0.95 -15.808,-2.851 -5.089,-1.901 -9.317,-4.606 -12.683,-8.115 l 12.041,-12.261 c 1.862,2.293 4.317,4.212 7.366,5.756 3.046,1.541 6.074,2.311 9.084,2.311 1.362,0 2.689,-0.144 3.98,-0.433 1.29,-0.286 2.419,-0.751 3.386,-1.396 0.966,-0.646 1.737,-1.505 2.311,-2.579 0.574,-1.077 0.861,-2.368 0.861,-3.873 0,-1.433 -0.358,-2.651 -1.075,-3.654 -0.717,-1.005 -1.739,-1.92 -3.065,-2.744 -1.327,-0.824 -2.975,-1.576 -4.944,-2.257 -1.972,-0.681 -4.213,-1.416 -6.723,-2.204 -2.436,-0.788 -4.819,-1.721 -7.147,-2.798 -2.333,-1.073 -4.412,-2.453 -6.238,-4.14 -1.829,-1.683 -3.298,-3.725 -4.408,-6.125 -1.112,-2.404 -1.669,-5.325 -1.669,-8.763 0,-4.229 0.862,-7.851 2.584,-10.864 1.719,-3.01 3.977,-5.482 6.772,-7.415 2.796,-1.936 5.951,-3.352 9.463,-4.247 3.513,-0.899 7.062,-1.348 10.646,-1.348 4.301,0 8.691,0.79 13.17,2.37 4.479,1.576 8.404,3.905 11.774,6.986 z m 71.388,56.34 v -31.829 h -29.678 v 31.829 h -18.386 v -76.127 h 18.386 v 28.817 h 29.678 v -28.817 h 18.386 v 76.127 z"
     style="fill:#ffffff;stroke-width:1.5625"
     id="path2"
     transform="matrix(0.64,0,0,0.64,216.3396,158.64904)" />
</svg>
