<?xml version="1.0" encoding="UTF-8" standalone="no"?>
<!-- Generator: Adobe Illustrator 22.1.0, SVG Export Plug-In . SVG Version: 6.00 Build 0)  -->

<svg
   version="1.1"
   id="Layer_1"
   x="0px"
   y="0px"
   viewBox="0 0 10883.2 5095.7"
   enable-background="new 0 0 10883.2 5095.7"
   xml:space="preserve"
   sodipodi:docname="mario.svg"
   inkscape:version="1.3.2 (091e20e, 2023-11-25, custom)"
   xmlns:inkscape="http://www.inkscape.org/namespaces/inkscape"
   xmlns:sodipodi="http://sodipodi.sourceforge.net/DTD/sodipodi-0.dtd"
   xmlns="http://www.w3.org/2000/svg"
   xmlns:svg="http://www.w3.org/2000/svg"><defs
   id="defs14" /><sodipodi:namedview
   id="namedview14"
   pagecolor="#505050"
   bordercolor="#eeeeee"
   borderopacity="1"
   inkscape:showpageshadow="0"
   inkscape:pageopacity="0"
   inkscape:pagecheckerboard="0"
   inkscape:deskcolor="#505050"
   inkscape:zoom="0.11664768"
   inkscape:cx="1307.3557"
   inkscape:cy="4136.3876"
   inkscape:window-width="3840"
   inkscape:window-height="2126"
   inkscape:window-x="-11"
   inkscape:window-y="-11"
   inkscape:window-maximized="1"
   inkscape:current-layer="Layer_1" />
<g
   id="g14"
   transform="matrix(0.83512196,0,0,0.83512196,1025.5586,582.95731)"
   style="fill:#ffffff;stroke-width:1.19743">
	<g
   id="g12"
   style="fill:#ffffff;stroke-width:1.19743">
		<path
   id="path1"
   d="M 2655.9004,0.40039062 1877,74.699219 c -21,1.99998 -40.1004,13.401751 -51.9004,31.101561 l -418.7988,625 c -12.1,18.0998 -18.6016,39.39903 -18.6016,61.29883 v 294.20119 c 0,20.7 10.9016,40.1 28.6016,51 L 1549,1218 1339,1497.8008 c -13.1,17.3 -20,38.4988 -20,60.2988 l 0.1992,289.7012 c 0,21.2 10.4016,40.1996 25.6016,55.0996 l 198.2988,168.7988 -551.79882,-73.3984 c -22.8998,-3.1 -45.00049,9.4992 -53.90039,30.6992 L 15.300781,4185.5996 C 5.000886,4209.2996 0,4234.7004 0,4260.4004 v 254.4004 c 0,23.6 14.001001,44.9992 35.800781,54.1992 L 1099.5,5023.0996 c 19.1,8.2 40.9992,-2.1004 47.1992,-21.9004 L 1436.5996,4055 l 254.8008,457.9004 c 9.1,16.2 31.9,18.2988 43.5,3.7988 L 2067,4109 l 56.8008,948.9004 c 1.3,20.6 20.2984,35.2 40.3984,31 L 3073.3008,4901 l 626.5996,118.5 c 21,3.9 41.1996,-10.0992 44.5996,-31.1992 l 78.6992,-466.4004 327.5,-49.2012 104.9004,505.5 c 4.4,21.1 24.8996,34.9004 46.0996,30.9004 l 717.4004,-135.6992 10.5996,91 c 2.4,21.5 21.6012,37.0992 43.2012,35.1992 l 861,-77.6992 c 21.9,-2 38.7996,-20.3004 38.5996,-42.4004 l -0.5,-249.5 248.0996,378.6992 c 12.3,18.8 36.4004,25.9016 56.9004,16.6016 l 631.4004,-282.7012 -3.9004,225.5 c -0.3,20.9 17.2,37.7012 38,36.2012 l 834.5,-57.2012 c 22.9,-1.5 41.7992,-18.5 45.6992,-41 l 107.1016,-603.7988 143.0996,412.5996 c 8,23.1 26.4988,41.2004 49.7988,48.9004 l 1002,326.7988 c 23.7,7.8 49.7004,6.3004 72.4004,-4.0996 l 951.4004,-434 c 22.4,-10.2 39,-30.1004 45,-53.9004 l 261.4,-1034.1992 c 6.3,-25.2 9.5,-51.0012 9.5,-76.7012 V 3293 c -0.2,-25.2 -8.101,-49.9992 -22.701,-70.6992 L 9825.4004,2351.5 c -14.2,-20.2 -36.6012,-33.5 -61.2012,-36.5 l -610.7988,-74.3008 168.5,-71.3984 c 18.6,-7.8 30.9004,-26.3 30.9004,-46.5 v -312.6016 c 0,-21.1 -9.5016,-41.3992 -25.6016,-55.1992 l -213.0996,-181.5996 c 6.6,-4.3 11.3996,-11.1004 12.5996,-18.9004 l 126,-761.40039 c 3.6,-21.9998 5.5,-44.3002 5.5,-66.5 V 544.30078 c 0,-20.6998 -10.9984,-39.90049 -28.8984,-50.40039 L 8544.9004,90.900391 c -18.6,-10.99989 -40.5,-15.200361 -62,-11.900391 l -1015,155.19922 c -19.1,2.8 -33.0996,19.3002 -33.0996,38.5 v 64.60156 l -1037.5,-180.70117 c -18.8,-3.2 -37.1008,8.2002 -42.3008,26.5 l -64,224.80078 -493.4004,-266.09961 c -18.9,-10.2999 -40.9988,-13.70039 -62.2988,-9.90039 L 4729,317.30078 c -19.1,3.6 -33,20.19981 -33,39.59961 v 182.19922 c 0,3.3 0.3008,6.60039 0.3008,9.90039 L 4079.5996,467 V 324.09961 c 0,-18.9998 -14.3988,-34.89922 -33.2988,-36.69922 l -911.9004,-85.30078 c -18.3,-1.7 -34.2,12.00098 -35.5,30.30078 l -4.7012,75 -378.5,-289.800781 c -17,-12.999866 -38.4988,-19.1991984 -59.7988,-17.19921838 z M 2631.002,154.16211 c 12.7166,1.18125 24.9972,5.96295 35.1972,13.83789 L 3154.5,542.09961 c 11.6,8.89994 13.8992,25.70084 4.6992,37.30078 L 2928,872.69922 c -9.2,11.69994 -26.2,14.30072 -38.5,5.80078 L 2415,553.09961 2277.6992,778.30078 3093.9004,1315.5996 c 12.9,8.6 17.8,25.1008 11.5,39.3008 l -269.3008,609.7988 c -6.6,14.9 -21.3,24.6004 -37.5,24.9004 l -784.5,13.8008 c -17.2,0.3 -34.0992,-5.7004 -47.1992,-16.9004 l -472.8008,-402.0996 c -11.4,-9.8 -13.2988,-26.7008 -4.2988,-38.8008 l 268.5996,-357.9004 c 8.6,-11.5 25.4004,-13.4996 36.4004,-4.0996 l 459.5,386.9004 176.3984,-239.8008 L 1568.3008,805.5 c -12.4,-7.59994 -16,-24.09928 -8,-36.19922 l 353.2988,-527.10156 c 9.5,-13.89994 24.6,-23.09883 41.5,-24.79883 l 663.0996,-63.20117 c 4.275,-0.425 8.5637,-0.43086 12.8028,-0.0371 z m 5841.3945,78.6875 c 12.7968,0.24375 25.4531,3.74971 36.7031,10.34961 L 9070.8008,574 c 13.9,8.1999 21.2988,24.1002 18.7988,40 l -97.1992,586 c -2.6,16.8 -12.5996,31.5996 -27.0996,40.5996 l -272.9004,170 460.7988,392.5996 c 9.5,8 7.1004,23 -4.0996,28 l -503.1992,213 c -14.4,6.1 -30.8008,1 -39.3008,-12 l -372.2988,-573 -19.7012,3.9004 16.2012,526.5996 c 0.4,15.1 -10.9004,27.8016 -25.9004,29.1016 L 7798.0996,2054.5 c -14.8,1.3 -27.6988,-9.5008 -29.2988,-24.3008 l -112.2012,-1092.89842 86,-512.40039 c 2.9,-18.2998 -9.2,-35.60117 -27.5,-38.70117 l -104,-18.09961 c 3.8,-3.1 8.2004,-5.7 13.4004,-6.5 l 835.0996,-127.90039 c 4.25,-0.65 8.5313,-0.93086 12.7969,-0.84961 z M 5729.832,286.0293 c 12.8672,-0.15469 25.693,2.99539 37.168,9.07031 l 566.5,305.59961 c 14.1,7.59992 22.0004,23.40094 19.4004,39.30078 l -82.5,561.3008 c -2.6,17.1 -10.7008,33 -23.3008,45 L 5943,1537.1992 c -12.5,12 -28.8996,19.1 -46.0996,20 l -398.0996,21.9004 24,391.0996 c 1,14.9 -10.1004,27.9004 -24.9004,29.4004 L 5081.5,2041.5 c -14.8,1.5 -28.1008,-9.2 -29.8008,-24 l -115.5,-954.3008 L 5010,624.40039 C 5013,606.30055 5000.5004,589.4 4982.4004,587 l -105.7012,-14.09961 -12.0996,-101.30078 c -1.9,-14.89992 8.2,-28.7 23,-31.5 L 5717,287.30078 c 4.25,-0.8 8.543,-1.21992 12.832,-1.27148 z M 6490.3008,324.5 7556.9004,510.30078 c 10.5,1.9 17.6004,11.8997 15.9004,22.59961 L 7505.5996,934 c -1.7,10.19991 -12.0004,16.49961 -21.9004,13.59961 l -557,-168.5 -76.1992,278.99999 501.9004,7.5 c 10.3,0.1 18.3004,9.2996 16.9004,19.5996 L 7326.9004,1409.5 c -1.5,10.5 -11.2008,18.0008 -21.8008,16.3008 l -487.6992,-73.7012 43.1992,296.8008 604.0996,-89.3008 c 10.6,-1.7 20.7008,5.7004 22.3008,16.4004 l 65.3008,429.4004 c 1.4,9.9 -6.5016,18.8996 -16.6016,18.5996 l -1215.3984,-43.0996 c -11.4,-0.4 -20.9016,-8.7008 -22.6016,-19.8008 l -77.8984,-481.6992 163.0996,-156 c 15.6,-14.9 25.8,-34.8012 29,-56.2012 l 103.5,-702.49998 c 2.8,-19.89982 -7.1008,-39.5997 -24.8008,-49.09961 l -64.7988,-35 L 6465.6992,340 c 3.1,-10.69991 13.7016,-17.3 24.6016,-15.5 z m -3223,40.30078 612.3984,57.29883 c 14.5,1.4 24.8004,14.50046 22.4004,28.90039 L 3731,1507.1992 l 483.8008,-31.2988 -36.9004,-818.30079 c -0.7,-14.09993 11.4992,-25.19883 25.1992,-23.29883 l 612.8008,81.29883 c 14.7,1.9 24.5996,15.50046 22.0996,29.90039 l -150.0996,892.0996 c -2.9,17.2 -10.5996,33.4 -22.0996,46.5 l -271.3008,309.5 c -11.2,12.6 -27.5,19.8004 -44.5,19.4004 l -771.1992,-19.6992 c -17.2,-0.5 -33.7,-7.1016 -46.5,-18.6016 L 3180.5,1658.5 c -12.6,-11.2 -19.4008,-27.6996 -18.3008,-44.5996 l 1.4004,-20.8008 L 3265,1363.3008 c 8.7,-19.8 10.5992,-42.1016 5.1992,-63.1016 L 3264,1275.8008 c -5.2,-20.9 -18.0996,-39.1004 -36.0996,-50.9004 l -39.8008,-26.2012 28.2012,-450.39842 106.7988,-135.5 c 13.3,-16.79986 19.2996,-38.30014 16.5996,-59.5 l -3.7988,-30.60156 c -2.5,-21.09986 -13.5996,-40.49968 -30.5996,-53.59961 L 3237.1992,417 l 1.7012,-28 c 1,-14.69993 13.7004,-25.59922 28.4004,-24.19922 z M 8189.5996,650.19922 8206,1205.4004 8524.3008,1154.3008 8579.5996,788 Z M 5444.1992,690 5477,1221.5996 l 316.3008,-55.4004 54.0996,-337.09959 z m -4351.0996,1499.9004 469.9004,62.5 c 18.8,2.4 34.6992,15.5996 40.6992,33.5996 l 231.6016,690.3008 336.5,-651.2012 c 8.7,-16.5 26.7988,-25.9004 45.2988,-23.4004 l 507.5,68.5 c 18.3,2.4 33.3004,16.5012 36.9004,34.7012 l 402.5996,1992.5 c 3.3,16.8 -7.3988,33.2988 -24.2988,36.7988 L 2320.5,4603.5 c -16.1,3.3 -31.3008,-8.4008 -32.3008,-24.8008 l -72.0996,-1205.5996 -458.6992,563.2012 c -9.5,11.6 -27.6012,10 -34.7012,-3 l -333.5996,-599.5 -356.2988,1162.5996 c -4.9,15.9 -22.4012,24.1 -37.70119,17.5 L 238.90039,4191.1992 c -15.69996,-6.9 -23.10115,-25.1984 -16.20117,-40.8984 L 1049.9004,2214.4004 c 7.2,-16.8 25.0992,-26.9 43.1992,-24.5 z m 5006.3789,7.1445 c 14.9156,0.1547 29.7457,4.2055 42.7207,11.8555 L 6930.9004,2669.5 c 16.1,9.5 24.6,28.1004 21,46.4004 l -135.5,704.9004 c -3.6,19.4 -15.6008,36.3988 -32.8008,46.2988 l -388.5,226.8008 612,507.6992 c 11,9.2 8.7,26.8012 -4.5,32.7012 L 6335,4533.1992 c -16.2,7.3 -35.6004,1.7012 -45.4004,-13.2988 l -499.2988,-762.0996 -26,5.2988 24.3984,690.7012 c 0.6,17.4 -12.3988,32.2984 -29.7988,33.8984 L 5367.4004,4523 5097.8008,3749 4942.9004,2414.5996 c -2.1,-17.3 9.8996,-33.1004 27.0996,-35.9004 l 1114.5996,-180.5 c 4.925,-0.825 9.907,-1.2058 14.8789,-1.1543 z m 1104.957,63.4258 c 1.9262,0.018 3.8903,0.2535 5.8653,0.7285 l 793.0996,189.7012 c 17.1,4.1 27.9004,20.8 24.9004,38 l -352.2012,1985.6992 c -3.2,17.9 -18.2996,31.4012 -36.5996,32.7012 l -515.8008,35.3984 c -16.6,1 -30.5,-12.3996 -30,-29.0996 l 4.9004,-128.6992 L 7180,4348.5 c 22.1,-9.8 37.6004,-30.5004 40.9004,-54.4004 l 12.7988,-91.2988 c 3.3,-23.8 -6.1988,-47.9004 -24.7988,-63.4004 l -97.5996,-81.0996 67.5,-1773.3008 c 0.525,-14.0875 12.1519,-24.6537 25.6347,-24.5293 z m -3720.6347,39.0293 925.5,95 c 18.9,1.9 34.9988,14.7996 41.2988,32.5996 l 676.0996,1942 c 5.3,15.6 -4.2984,32.3008 -20.3984,35.3008 l -674.7012,127.5 c -16.9,3.3 -33.4004,-7.7012 -36.9004,-24.7012 L 4289.5996,4000.5 3670,4093.5996 l -71.3008,422.5996 c -2.8,16.9 -18.8988,28.1004 -35.7988,24.9004 L 3365.5996,4503.6992 3138.9004,3380 3444.1992,2326.3008 c 5.1,-17.3 21.8016,-28.5008 39.6016,-26.8008 z M 8634.0996,2355.5996 9672.8008,2482 c 19.8,2.4 37.5996,12.9992 49.0996,29.1992 l 532.9996,753.2012 c 11.5,16 15.3,36.4992 10.6,55.6992 l -224.301,888.2012 c -4.9,19 -18.2,34.8996 -36,43.0996 L 9179.4004,4628 c -18.2,8.2 -39.0004,9.3992 -57.9004,3.1992 l -867.9004,-283 c -18.7,-6 -33.4988,-20.5 -39.7988,-39 L 7996.9004,3683.8008 8125.5996,2955.5 8583.8008,2376.3008 c 12,-15.2 31.0988,-23.1012 50.2988,-20.7012 z M 5728.3008,2768 l 23.5,656.3008 407.3984,-94.9004 52.1016,-430.9004 z m -1863.4004,169.0996 -100.8008,598.2012 432.2012,15.3984 L 4072,2953.5 Z m 5072.6992,152.2012 -250.6992,430.5996 348.5,368.7988 424.5,-210.8984 L 9402.3008,3214 Z"
   style="fill:#ffffff;stroke-width:1.19743" />
		<g
   id="g11"
   style="display:inline;fill:#ffffff;stroke-width:1.19743">
			
			
			
			
			
			
			
			
			<g
   id="g10"
   style="fill:#ffffff;stroke-width:1.19743">
				
			</g>
			
		</g>
	</g>
	<g
   id="g13"
   style="fill:#ffffff;stroke-width:1.19743">
		
		
	</g>
</g>
</svg>
