<?xml version="1.0" encoding="UTF-8" standalone="no"?>
<svg
   id="svg2"
   version="1.1"
   viewBox="0 0 264 159"
   sodipodi:docname="megadrivejp.svg"
   inkscape:version="1.3.2 (091e20e, 2023-11-25, custom)"
   xmlns:inkscape="http://www.inkscape.org/namespaces/inkscape"
   xmlns:sodipodi="http://sodipodi.sourceforge.net/DTD/sodipodi-0.dtd"
   xmlns="http://www.w3.org/2000/svg"
   xmlns:svg="http://www.w3.org/2000/svg">
  <defs
     id="defs1" />
  <sodipodi:namedview
     id="namedview1"
     pagecolor="#505050"
     bordercolor="#eeeeee"
     borderopacity="1"
     inkscape:showpageshadow="0"
     inkscape:pageopacity="0"
     inkscape:pagecheckerboard="0"
     inkscape:deskcolor="#505050"
     inkscape:zoom="2.4043561"
     inkscape:cx="-156.17487"
     inkscape:cy="-87.965339"
     inkscape:window-width="3840"
     inkscape:window-height="2126"
     inkscape:window-x="-11"
     inkscape:window-y="-11"
     inkscape:window-maximized="1"
     inkscape:current-layer="svg2" />
  <path
     style="display:inline;fill:#ffffff;fill-opacity:1;stroke:#000000;stroke-width:1.36162px;stroke-linecap:butt;stroke-linejoin:miter;stroke-opacity:0"
     d="M 85.169,0 V 102.761 H 15.949 Z"
     id="path3038"
     transform="matrix(0.576,0,0,0.57258835,51.157147,36.596438)" />
  <rect
     style="display:inline;fill:#ffffff;fill-opacity:1;stroke:#000000;stroke-width:9.09153;stroke-linecap:round;stroke-linejoin:miter;stroke-miterlimit:4;stroke-dasharray:none;stroke-dashoffset:0;stroke-opacity:0"
     id="rect3834"
     width="33.437"
     height="101.59"
     x="158.491"
     y="2.049"
     transform="matrix(0.576,0,0,0.57258835,51.157147,36.596438)" />
  <path
     style="display:inline;fill:#ffffff;fill-opacity:1;stroke:#000000;stroke-width:8.97608;stroke-linecap:round;stroke-linejoin:miter;stroke-miterlimit:4;stroke-dasharray:none;stroke-dashoffset:0;stroke-opacity:0"
     d="m 199.127,2.097 c -0.358,-0.01 -0.756,-0.019 -1.205,-0.026 l -0.205,34.803 c 0.027,10e-4 0.055,0 0.081,0 v -0.108 c 0.569,-0.076 1.142,-0.113 1.726,-0.127 l 7.02,-34.107 C 203.805,2.2 201.225,2.164 199.127,2.097 Z m 12.874,0.967 -9.857,33.729 c 0.878,0.121 1.739,0.312 2.566,0.568 L 220.901,5.292 c -2.86,-1.002 -5.831,-1.757 -8.9,-2.228 z m 14.312,4.491 -19.362,30.681 c 0.647,0.313 1.274,0.672 1.87,1.064 l 24.874,-27.317 c -2.321,-1.679 -4.789,-3.159 -7.382,-4.428 z m 12.035,8.244 -27.828,24.791 c 0.665,0.576 1.288,1.208 1.852,1.884 l 32.743,-19.028 c -1.993,-2.774 -4.266,-5.337 -6.767,-7.647 z m 9.306,11.551 -34.071,16.766 c 0.39,0.608 0.739,1.241 1.048,1.903 l 37.405,-8.983 c -1.124,-3.404 -2.598,-6.646 -4.382,-9.686 z m 5.782,14.845 -38.119,5.564 c 0.391,1.174 0.654,2.412 0.768,3.689 h 38.472 c -0.091,-3.167 -0.475,-6.26 -1.121,-9.253 z m -37.351,12.301 c -0.789,8.256 -7.724,14.709 -16.154,14.709 -0.726,0 -1.432,-0.052 -2.133,-0.145 v -0.703 c -0.026,0 -0.054,-0.001 -0.081,0 v 35.141 c 2.887,-0.021 4.377,-0.141 6.623,-0.141 27.223,0 49.388,-21.732 50.217,-48.861 z"
     id="path3838"
     transform="matrix(0.576,0,0,0.57258835,51.157147,36.596438)" />
  <path
     style="display:inline;fill:#ffffff;fill-opacity:1;stroke:#000000;stroke-width:1.36162px;stroke-linecap:butt;stroke-linejoin:miter;stroke-opacity:0"
     d="M 143.096,0 V 102.761 H 73.875 Z"
     id="path3038-4"
     transform="matrix(0.576,0,0,0.57258835,51.157147,36.596438)" />
  <path
     style="font-style:normal;font-weight:normal;font-size:69.4688px;font-family:NiseMegaDrive;display:inline;fill:#ffffff;fill-opacity:1;stroke:none;stroke-width:1.74128"
     d="m 0,135.231 13.092,-21.706 c 0.623,-1.24 1.247,-1.861 1.87,-1.861 h 9.352 v 2.884 l 0.623,-1.023 c 0.623,-1.24 1.247,-1.861 1.87,-1.861 h 11.222 v 23.567 h -7.482 v -18.605 l -11.221,18.605 h -7.481 l 11.222,-18.605 h -3.741 c -0.416,0 -0.831,0.206 -1.247,0.621 L 7.481,135.231 Z m 48.004,-9.303 v 4.342 h 17.455 v 4.961 H 40.522 v -15.504 c 0,-0.414 0.104,-0.827 0.312,-1.241 l 3.429,-6.201 c 0.208,-0.414 0.623,-0.621 1.247,-0.621 h 19.949 v 4.962 H 50.497 c -0.416,0 -0.728,0.206 -0.935,0.621 l -1.558,3.721 h 17.455 l -2.494,4.96 z m 27.43,4.342 h 12.468 v -4.342 h -4.988 l 2.494,-4.96 h 9.975 v 13.024 c 0,0.826 -0.416,1.239 -1.247,1.239 H 69.2 c -0.832,0 -1.247,-0.413 -1.247,-1.239 v -14.265 c 0,-0.414 0.104,-0.827 0.311,-1.241 l 3.429,-6.201 c 0.208,-0.414 0.623,-0.621 1.247,-0.621 h 21.196 v 4.962 H 77.927 c -0.415,0 -0.727,0.206 -0.935,0.621 l -1.558,3.721 z m 53.614,4.961 h -8.728 l -3.429,-4.961 h -9.04 l -2.493,-4.496 v 9.457 h -7.481 v -23.567 h 14.338 c 0.624,0 1.247,0.621 1.871,1.861 z m -15.617,-9.922 -5.58,-8.062 c -0.415,-0.415 -0.831,-0.621 -1.246,-0.621 h -1.247 v 8.683 z"
     id="text8337-2"
     transform="matrix(0.576,0,0,0.57258835,51.157147,36.596438)" />
  <path
     style="font-style:normal;font-weight:normal;font-size:72.2677px;font-family:NiseMegaDrive;display:inline;fill:#ffffff;fill-opacity:1;stroke:none;stroke-width:1.74128"
     d="m 142.48,130.555 h 9.05 c 0.431,0 0.754,-0.194 0.969,-0.582 l 2.747,-5.891 0.162,-0.648 -0.162,-0.647 -2.747,-5.826 c -0.215,-0.431 -0.538,-0.648 -0.969,-0.648 h -9.05 z m -7.756,-19.42 h 21.654 c 0.646,0 1.185,0.432 1.616,1.295 l 5.009,10.357 0.162,0.647 -0.162,0.648 -5.009,10.357 c -0.431,0.863 -0.97,1.295 -1.616,1.295 h -21.654 z m 31.026,0 h 20.684 c 0.647,0 1.185,0.432 1.616,1.295 l 3.394,7.12 0.161,0.648 -0.161,0.647 -5.01,5.826 5.171,9.063 h -7.756 l -7.434,-12.3 h 3.879 c 0.431,0 0.754,-0.108 0.969,-0.323 l 2.586,-2.913 -1.293,-3.237 c -0.216,-0.431 -0.539,-0.648 -0.97,-0.648 h -8.079 v 19.421 h -7.757 z m 36.197,24.599 h -7.756 v -24.599 h 7.756 z m 10.342,-16.507 7.757,11.328 7.757,-11.328 v -8.092 h 7.756 v 9.063 c 0,0.863 -0.108,1.51 -0.323,1.942 l -8.726,13.594 h -12.927 l -8.726,-13.594 c -0.217,-0.432 -0.324,-1.079 -0.324,-1.942 v -9.063 h 7.756 z m 33.612,6.797 v 4.531 H 264 v 5.179 H 238.145 V 119.55 c 0,-0.431 0.108,-0.863 0.323,-1.294 l 3.555,-6.473 c 0.215,-0.432 0.647,-0.648 1.293,-0.648 H 264 v 5.178 h -15.513 c -0.431,0 -0.754,0.217 -0.969,0.648 l -1.617,3.884 H 264 l -2.585,5.179 z"
     id="text8339-0"
     transform="matrix(0.576,0,0,0.57258835,51.157147,36.596438)" />
  <path
     d="m 55.625,158 1.797,-2.691 h 9.771 l 2.303,-3.672 -2.303,-2.887 c -0.309,-0.411 -0.758,-0.617 -1.347,-0.617 h -3.931 l 1.797,-2.69 h 5.39 c 0.6,0 1.105,0.262 1.517,0.785 l 1.264,1.598 1.712,-2.775 c 0.6,-0.934 1.498,-1.401 2.696,-1.401 h 3.594 l -4.998,8.001 4.998,6.349 h -5.391 l -1.98,-2.523 -1.053,1.682 C 71.087,157.719 70.6,158 70.001,158 Z"
     id="path3065"
     style="fill:#ffffff;stroke-width:1.74128"
     transform="matrix(0.576,0,0,0.57258835,51.157147,36.596438)" />
  <path
     d="m 83.479,149.031 v -2.69 h 5.504 l 0.73,-1.234 c 0.636,-0.971 1.554,-1.457 2.752,-1.457 h 3.594 l -1.685,2.691 h 4.38 c 0.599,0 1.123,0.317 1.573,0.952 l 3.425,4.764 c 0.263,0.374 0.3,0.767 0.113,1.178 l -2.64,3.812 c -0.449,0.636 -0.973,0.953 -1.572,0.953 h -7.188 v -2.691 h 3.594 c 0.598,0 1.086,-0.225 1.46,-0.673 l 0.955,-1.626 c 0.187,-0.261 0.187,-0.523 0,-0.784 l -1.798,-2.578 c -0.327,-0.412 -0.833,-0.617 -1.516,-0.617 H 92.69 L 87.073,158 h -5.391 l 5.616,-8.969 z m 15.275,-5.381 h 3.594 l 3.763,5.269 -1.516,2.803 z m 4.662,0 h 6.121 l -2.864,4.483 z"
     id="path3067"
     style="fill:#ffffff;stroke-width:1.74128"
     transform="matrix(0.576,0,0,0.57258835,51.157147,36.596438)" />
  <path
     d="m 118.522,158 v -14.35 h 5.391 v 3.587 h 8.985 c 0.6,0 1.105,0.318 1.517,0.953 l 2.976,4.428 H 132 l -1.123,-1.794 c -0.449,-0.598 -0.974,-0.897 -1.572,-0.897 h -5.392 V 158 Z m 10.783,-11.659 -1.797,-2.691 h 3.594 l 1.796,2.691 z m 4.492,0 L 132,143.65 h 3.594 l 1.797,2.691 z"
     id="path3069"
     style="fill:#ffffff;stroke-width:1.74128"
     transform="matrix(0.576,0,0,0.57258835,51.157147,36.596438)" />
  <path
     d="m 139.188,146.341 v -2.691 h 18.87 v 2.691 z m 0,3.586 v -2.69 h 18.87 v 2.69 c 0,0.599 -0.131,1.178 -0.393,1.739 l -2.752,5.493 c -0.3,0.56 -0.749,0.841 -1.348,0.841 h -11.681 v -2.691 h 7.188 c 0.599,0 1.067,-0.298 1.404,-0.897 l 2.191,-4.485 z"
     id="path3071"
     style="fill:#ffffff;stroke-width:1.74128"
     transform="matrix(0.576,0,0,0.57258835,51.157147,36.596438)" />
  <path
     d="m 159.855,149.031 v -2.69 h 12.973 c 0.636,0 1.122,-0.3 1.46,-0.898 l 0.842,-1.793 h 5.391 l -1.797,3.587 c -0.599,1.196 -1.497,1.794 -2.695,1.794 h -3.595 V 158 h -5.391 v -8.969 z"
     id="path3073"
     style="fill:#ffffff;stroke-width:1.74128"
     transform="matrix(0.576,0,0,0.57258835,51.157147,36.596438)" />
  <path
     d="m 199.84,155.084 -1.685,2.019 c -0.375,0.598 -0.861,0.897 -1.46,0.897 h -14.377 v -2.691 h 9.884 c 0.478,0 0.908,-0.298 1.292,-0.897 l 0.505,-0.855 v -7.216 h -11.681 v -2.691 h 17.971 v 9.865 c 0,0.598 -0.15,1.121 -0.449,1.569 z m 2.246,-6.053 2.696,-5.381 h 3.594 l -2.696,5.381 z m -0.899,0 v -5.381 h 2.696 z"
     id="path3075"
     style="fill:#ffffff;stroke-width:1.74128"
     transform="matrix(0.576,0,0,0.57258835,51.157147,36.596438)" />
</svg>
