<?xml version="1.0" encoding="UTF-8" standalone="no"?>
<!-- Uploaded to: SVG Repo, www.svgrepo.com, Generator: SVG Repo Mixer Tools -->

<svg
   fill="#000000"
   width="800"
   height="288.26666"
   viewBox="0 0 24 8.6479999"
   role="img"
   version="1.1"
   id="svg1"
   sodipodi:docname="pokemon.svg"
   inkscape:version="1.3.2 (091e20e, 2023-11-25, custom)"
   xmlns:inkscape="http://www.inkscape.org/namespaces/inkscape"
   xmlns:sodipodi="http://sodipodi.sourceforge.net/DTD/sodipodi-0.dtd"
   xmlns="http://www.w3.org/2000/svg"
   xmlns:svg="http://www.w3.org/2000/svg"
   xmlns:rdf="http://www.w3.org/1999/02/22-rdf-syntax-ns#"
   xmlns:cc="http://creativecommons.org/ns#"
   xmlns:dc="http://purl.org/dc/elements/1.1/">
  <defs
     id="defs1" />
  <sodipodi:namedview
     id="namedview1"
     pagecolor="#505050"
     bordercolor="#eeeeee"
     borderopacity="1"
     inkscape:showpageshadow="0"
     inkscape:pageopacity="0"
     inkscape:pagecheckerboard="0"
     inkscape:deskcolor="#505050"
     inkscape:zoom="0.6003125"
     inkscape:cx="-522.22801"
     inkscape:cy="-55.804269"
     inkscape:window-width="3840"
     inkscape:window-height="2126"
     inkscape:window-x="-11"
     inkscape:window-y="-11"
     inkscape:window-maximized="1"
     inkscape:current-layer="svg1" />
  <title
     id="title1">Pokémon icon</title>
  <path
     d="M 4.463,11.691 C 4.382,11.255 3.812,11.015 3.246,11.323 l 0.146,0.498 0.23,0.737 0.104,0.335 c 0.423,-0.272 0.85,-0.599 0.737,-1.203 z m -0.562,0.67 A 56.82,56.82 0 0 0 3.704,11.725 L 3.645,11.522 a 0.54,0.54 0 0 1 0.33,0.033 c 0.053,0.026 0.146,0.084 0.166,0.196 0.047,0.25 -0.037,0.429 -0.24,0.608 z m 9.108,-1.362 a 0.774,0.774 0 1 0 -0.963,1.207 l 1.018,-1.153 a 1.058,1.058 0 0 0 -0.055,-0.054 z m -0.961,0.812 a 0.5,0.5 0 0 1 0.618,-0.707 z m 7.551,0.225 a 0.375,0.375 0 0 1 0.013,0.105 c -0.01,0.215 -0.213,0.382 -0.454,0.37 -0.241,-0.008 -0.43,-0.191 -0.42,-0.405 0.007,-0.203 0.187,-0.362 0.409,-0.372 a 0.712,0.712 0 0 0 -0.132,-0.017 c -0.405,-0.017 -0.735,0.27 -0.748,0.626 -0.017,0.38 0.289,0.692 0.686,0.709 0.406,0.015 0.735,-0.272 0.75,-0.651 A 0.625,0.625 0 0 0 19.6,12.036 M 7.345,12.472 c 0,0.216 -0.197,0.39 -0.438,0.39 -0.242,0 -0.438,-0.173 -0.438,-0.39 0,-0.202 0.173,-0.368 0.394,-0.388 A 0.736,0.736 0 0 0 6.731,12.072 c -0.404,0 -0.723,0.3 -0.723,0.656 0,0.382 0.32,0.68 0.716,0.68 0.405,0 0.723,-0.298 0.723,-0.68 A 0.605,0.605 0 0 0 7.328,12.37 c 0.01,0.03 0.017,0.065 0.017,0.102 m 14.768,-2.185 -0.18,0.739 -0.166,-0.82 -2.218,-0.487 0.016,1.233 0.334,0.075 -0.024,0.223 -0.01,-0.007 c -0.414,-0.218 -0.927,-0.24 -1.41,-0.058 -0.163,0.06 -0.314,0.143 -0.45,0.242 L 17.67,9.315 h -1.475 l -0.04,0.244 h -1.553 l -0.177,1.085 -0.13,-0.159 A 1.986,1.986 0 0 0 12.77,9.755 l 1.318,-0.709 -0.918,-1.37 -1.663,1.913 0.287,0.35 A 2.19,2.19 0 0 0 11.12,10.368 L 9.696,9.104 9.199,10.057 9.218,9.141 6.992,9.853 7.049,11.049 7.428,10.951 7.484,11.556 C 7.051,11.363 6.53,11.366 6.048,11.57 A 2.12,2.12 0 0 0 5.649,11.799 1.695,1.695 0 0 0 5.572,10.741 1.904,1.904 0 0 0 4.755,9.841 1.958,1.958 0 0 0 3.89,9.533 C 3.12,9.398 2.194,9.536 1.284,9.925 A 6.339,6.339 0 0 0 0.356,10.408 L 0,10.634 l 0.215,0.363 0.667,1.127 c 0,0 0.204,0.346 0.205,0.345 l 0.361,-0.177 0.05,-0.023 1.658,3.7 0.16,0.355 0.37,-0.118 0.896,-0.288 0.394,-0.125 -0.104,-0.4 -0.476,-1.829 c 0.137,-0.101 0.264,-0.209 0.383,-0.321 -0.027,0.219 -0.013,0.44 0.047,0.652 0.124,0.443 0.416,0.793 0.818,0.986 0.435,0.21 0.965,0.21 1.456,0.002 0.247,-0.104 0.467,-0.257 0.651,-0.439 l 0.068,0.728 1.57,-0.231 -0.002,-1.407 3.282,1.62 v -1.57 a 3.335,3.335 0 0 0 1.347,-0.436 l -0.138,0.843 1.77,0.279 0.097,-0.637 0.461,0.854 0.283,-0.545 0.104,0.895 2.005,0.352 -0.106,-0.674 a 1.817,1.817 0 0 0 1.038,-0.198 l -0.08,0.718 1.336,0.189 0.01,0.547 1.39,0.438 L 24,10.745 Z M 14.274,11.097 14.366,11 14.254,11.69 13.965,11.428 Z M 13.097,8.284 13.584,8.945 12.194,9.634 12.097,9.488 Z M 3.895,13.375 4.45,15.503 3.552,15.79 1.711,11.678 c -0.1,0.053 -0.284,0.14 -0.455,0.223 L 0.59,10.775 c 0.266,-0.169 0.556,-0.319 0.865,-0.45 0.868,-0.369 1.697,-0.48 2.36,-0.362 0.233,0.027 0.481,0.095 0.7,0.24 0.298,0.168 0.525,0.406 0.657,0.711 0.32,0.74 -0.215,1.807 -1.276,2.461 z M 8.021,12.997 C 8.011,13.315 7.894,13.631 7.7,13.9 a 1.797,1.797 0 0 1 -0.749,0.605 c -0.779,0.33 -1.557,0 -1.764,-0.74 -0.203,-0.714 0.266,-1.565 1.02,-1.89 0.483,-0.202 0.966,-0.155 1.312,0.08 0.213,0.146 0.377,0.364 0.453,0.637 a 1.33,1.33 0 0 1 0.049,0.406 z m 4.236,1.504 -3.254,-1.629 0.006,1.707 -0.843,0.115 -0.059,-0.703 c 0.26,-0.446 0.355,-0.972 0.22,-1.454 a 1.526,1.526 0 0 0 -0.4,-0.68 L 7.806,10.424 7.429,10.522 7.412,10.16 8.764,9.756 l 0.083,1.396 0.997,-1.4 0.974,0.927 -1.362,1.436 1.28,0.507 c 0.142,0.27 0.36,0.5 0.634,0.67 0.264,0.163 0.568,0.26 0.889,0.291 v 0.918 z m -1.69,-2.36 -0.454,-0.174 0.423,-0.41 c -0.019,0.188 -0.01,0.385 0.03,0.584 z m 3.542,0.427 c -0.312,0.259 -0.67,0.427 -1.139,0.54 a 2.216,2.216 0 0 1 -0.302,0.051 c -0.747,0.073 -1.374,-0.27 -1.612,-0.826 a 1.191,1.191 0 0 1 -0.069,-0.209 c -0.11,-0.468 -0.016,-0.887 0.215,-1.215 a 1.47,1.47 0 0 1 0.235,-0.261 1.87,1.87 0 0 1 0.812,-0.413 c 0.712,-0.171 1.339,0.046 1.723,0.517 l -1.355,1.444 a 0.978,0.978 0 0 0 0.345,-0.033 c 0.323,-0.079 0.504,-0.25 0.663,-0.436 l 0.542,0.486 0.164,0.15 a 3.016,3.016 0 0 1 -0.222,0.205 z m 2.877,1.927 -0.294,-1.954 -0.418,1.078 -0.625,-1.348 h -0.007 l -0.246,1.56 -1.041,-0.18 0.146,-0.87 a 4.17,4.17 0 0 0 0.116,-0.114 l 0.338,-0.348 -0.329,-0.294 0.35,-2.073 h 1.05 l 0.262,1.436 0.294,-1.663 h 0.752 l 0.312,2.026 c -0.396,0.451 -0.59,1.06 -0.456,1.615 a 1.478,1.478 0 0 0 0.865,1.035 l 0.04,0.263 z m 2.595,-0.637 a 1.64,1.64 0 0 1 -0.377,0.2 1.397,1.397 0 0 1 -0.773,0.077 1.153,1.153 0 0 1 -0.448,-0.19 1.118,1.118 0 0 1 -0.43,-0.655 c -0.08,-0.336 -0.007,-0.696 0.174,-1.012 0.091,-0.154 0.207,-0.298 0.344,-0.423 0.152,-0.137 0.33,-0.25 0.527,-0.325 0.459,-0.172 0.912,-0.112 1.23,0.116 a 1.08,1.08 0 0 1 0.422,0.633 c 0.098,0.406 -0.018,0.838 -0.274,1.187 a 1.75,1.75 0 0 1 -0.395,0.392 z m 2.343,1.841 -0.77,-0.229 -0.066,-2.838 -0.388,2.19 -0.84,-0.135 0.062,-0.63 c 0.547,-0.464 0.838,-1.195 0.679,-1.856 a 1.457,1.457 0 0 0 -0.434,-0.744 l 0.071,-0.743 -0.317,-0.085 0.02,-0.396 1.448,0.29 0.487,2.308 0.499,-2.069 1.1,0.244 z"
     id="path1"
     style="fill:#ffffff"
     transform="translate(0,-7.676)" />
  <metadata
     id="metadata1">
    <rdf:RDF>
      <cc:Work
         rdf:about="">
        <dc:title>Pokémon icon</dc:title>
      </cc:Work>
    </rdf:RDF>
  </metadata>
</svg>
