<?xml version="1.0" encoding="UTF-8" standalone="no"?>
<svg
   version="1.1"
   viewBox="0 0 264 101"
   id="svg1"
   sodipodi:docname="sega32x.svg"
   inkscape:version="1.3.2 (091e20e, 2023-11-25, custom)"
   xmlns:inkscape="http://www.inkscape.org/namespaces/inkscape"
   xmlns:sodipodi="http://sodipodi.sourceforge.net/DTD/sodipodi-0.dtd"
   xmlns="http://www.w3.org/2000/svg"
   xmlns:svg="http://www.w3.org/2000/svg">
  <defs
     id="defs1" />
  <sodipodi:namedview
     id="namedview1"
     pagecolor="#505050"
     bordercolor="#eeeeee"
     borderopacity="1"
     inkscape:showpageshadow="0"
     inkscape:pageopacity="0"
     inkscape:pagecheckerboard="0"
     inkscape:deskcolor="#505050"
     inkscape:zoom="2.4043561"
     inkscape:cx="-11.437574"
     inkscape:cy="-76.735723"
     inkscape:window-width="3840"
     inkscape:window-height="2126"
     inkscape:window-x="-11"
     inkscape:window-y="-11"
     inkscape:window-maximized="1"
     inkscape:current-layer="svg1" />
  <path
     d="M 34.926,100.122 C 32.076,99.948 29.22,99.58 26.404,99.083 14.949,97.058 9.621,94.349 6.424,93.092 4.896,92.49 3.403,91.922 1.742,92.532 1.554,92.601 1.33,92.597 1.123,92.601 0.069,92.612 -0.257,92.203 0.203,91.258 0.748,90.134 1.39,89.052 2.035,87.98 c 1.749,-2.905 3.521,-5.798 5.286,-8.695 0.081,-0.136 0.174,-0.261 0.253,-0.398 0.361,-0.604 0.755,-1.162 1.579,-1.045 0.775,0.107 0.944,0.748 1.105,1.353 0.355,1.323 1.16,2.308 2.218,3.127 2.506,1.943 5.335,3.25 8.304,4.286 3.849,1.346 7.811,2.189 11.837,2.821 4.765,0.75 9.555,0.846 14.34,0.568 4.056,-0.236 8.05,-0.97 11.875,-2.468 2.327,-0.911 4.09,-2.517 5.506,-4.484 1.873,-2.607 1.107,-6.19 -1.45,-8.227 -3.47,-2.769 -7.507,-3.864 -11.783,-4.599 -3.845,-0.659 -7.683,-0.588 -11.532,-0.538 -1.808,0.023 -6.127,0.194 -7.782,1.732 -0.608,0.54 -1.094,0.58 -1.383,0.319 -0.291,-0.264 -0.303,-0.681 -0.306,-1.043 -0.032,-3.765 -0.035,-7.53 -0.011,-11.291 0.009,-1.232 0.583,-1.604 1.535,-0.935 1.204,0.843 2.541,1.213 3.937,1.394 2.317,0.298 9.882,0.034 11.428,-0.167 4.132,-0.542 3.77,-0.477 6.182,-1.124 2.581,-0.692 5.044,-2.508 6.33,-4.008 0.019,-0.025 0.041,-0.049 0.061,-0.073 1.792,-2.162 1.19,-4.652 -0.476,-6.433 C 57.486,46.339 55.475,45.246 53.235,44.584 49.562,43.5 45.8,42.905 41.986,43.085 c -6.911,0.325 -13.684,1.384 -19.931,4.601 -1.43,0.74 -2.772,1.665 -4.092,2.595 -1.127,0.792 -1.695,1.952 -1.727,3.35 -0.016,0.727 0.099,1.556 -0.763,1.873 -0.869,0.32 -1.317,-0.436 -1.815,-0.94 C 10.478,51.327 7.31,48.075 4.139,44.828 3.955,44.641 3.752,44.464 3.618,44.243 3.234,43.622 3.47,43.107 4.205,43.021 c 0.821,-0.094 1.702,0.036 2.465,-0.213 1.128,-0.369 2.183,-0.97 3.256,-1.497 2.854,-1.401 5.633,-2.98 8.564,-4.189 4.641,-1.913 9.528,-2.941 14.519,-3.561 4.775,-0.596 13.203,-0.841 19.301,0.061 4.074,0.618 8.114,1.437 11.897,3.126 3.337,1.49 6.595,3.154 9.086,5.964 1.8,2.03 3.01,4.301 3.415,7.055 0.388,2.639 -0.044,5.052 -1.172,7.419 -0.774,1.631 -1.935,2.685 -3.531,3.645 -3.129,1.881 -4.983,2.349 -5.379,2.591 -0.631,0.386 -0.658,0.897 -0.016,1.265 0.578,0.331 1.242,0.527 1.887,0.728 3.767,1.178 7.003,3.248 9.698,6.089 1.973,2.071 3.139,4.556 3.531,7.491 0.402,3.004 -0.302,5.662 -1.601,8.275 -1.007,2.033 -2.681,3.462 -4.44,4.76 -3.562,2.627 -7.524,4.402 -11.776,5.663 -3.162,0.937 -6.368,1.572 -9.615,2.003 -11.099,1.215 -16.769,0.584 -19.368,0.426 z m 129.404,0.511 c -1.249,-1.318 -4.608,-1.437 -5.13,-1.437 -23.523,0 -47.047,-0.002 -70.571,0 -2.393,0 -2.823,0.293 -2.528,-2.742 0.479,-4.968 2.301,-9.585 5.902,-13.152 0.69,-0.702 0.921,-0.939 2.497,-2.371 6.678,-6.063 19.985,-10.923 19.985,-10.923 0,0 11.135,-4.12 17.388,-6.586 2.808,-1.106 5.551,-2.383 8.053,-4.118 9.069,-7.161 4.36,-14.27 -7.599,-15.927 -8.374,-1.199 -16.005,0.848 -23.059,5.355 -0.922,0.589 -1.699,1.177 -2.588,1.816 -1.576,1.336 -2.929,2.893 -3.224,4.616 -0.158,0.928 -0.006,1.569 0.012,1.72 0.061,0.483 0.207,1.248 -0.149,1.596 -0.43,0.421 -1.322,-10e-4 -1.718,-0.376 -3.636,-3.442 -7.276,-6.876 -10.915,-10.311 -0.228,-0.216 -0.647,-0.677 -0.647,-0.677 0,0 -0.399,-0.461 -0.412,-0.779 -0.016,-0.355 0.332,-0.689 0.75,-0.82 1.983,-0.367 2.898,-0.483 4.087,-1.357 3.204,-2.342 6.548,-4.439 10.124,-6.184 4.776,-2.335 9.801,-3.723 15.063,-4.434 4.046,-0.544 15.93,-2.399 29.812,3.783 3.66,1.609 6.8,3.887 9.168,7.101 1.402,1.901 6.68,12.331 -4.078,20.658 -3.847,3.091 -8.437,5.002 -13.077,6.625 -3.971,1.39 -6.884,2.431 -13.381,4.314 -4.934,1.467 -8.475,2.618 -14.12,5.303 -4.49,2.132 -7.439,4.727 -7.439,4.727 0,0 -1.47,1.135 -1.184,2.024 0.244,0.772 1.473,0.695 2.195,0.696 17.369,0.011 34.738,0.007 52.108,0.008 1.798,0 3.54,-0.126 4.911,-1.539 0.202,-0.207 0.728,-0.317 0.968,-0.198 0.228,0.112 0.387,0.588 0.39,0.902 0.027,4.077 0.028,8.241 0.005,12.317 -0.004,0.396 -0.134,0.538 -0.329,0.653 -0.297,0.172 -0.928,0.082 -1.27,-0.283 z m 23.498,-67.054 c 3.701,0 7.406,0 11.109,0.003 0.367,0 0.735,-0.028 1.095,0.014 0.828,0.099 0.954,0.449 0.435,1.123 -0.926,1.209 -0.918,1.34 0.136,2.457 0.037,0.037 0.075,0.073 0.11,0.109 5.169,5.238 10.338,10.476 15.506,15.713 0.258,0.261 0.5,0.545 0.796,0.754 0.518,0.373 1.074,0.38 1.584,-0.029 0.285,-0.228 0.535,-0.498 0.792,-0.76 5.105,-5.156 10.208,-10.311 15.312,-15.47 0.183,-0.187 0.375,-0.366 0.539,-0.569 0.681,-0.847 0.664,-1.145 0.029,-2.054 -0.572,-0.772 -0.572,-1.247 0.594,-1.275 0.256,-0.007 0.519,-0.013 0.78,-0.013 7.513,0 15.026,-0.003 22.535,0.002 0.467,0 0.945,-0.006 1.397,0.093 0.192,0.043 0.424,0.331 0.457,0.538 0.032,0.202 -0.11,0.557 -0.278,0.641 -0.507,0.256 -1.05,0.475 -1.605,0.595 -2.103,0.462 -3.816,1.502 -5.336,3.053 -6.539,6.674 -13.145,13.283 -19.716,19.928 -1.647,1.668 -3.269,3.37 -4.884,5.073 -1.023,1.075 -1.025,1.586 0.011,2.645 1.82,1.862 3.69,3.67 5.501,5.54 1.342,1.382 2.59,2.858 3.942,4.23 3.595,3.642 7.234,7.239 10.834,10.875 2.423,2.447 4.824,4.916 7.207,7.402 1.37,1.436 2.968,2.434 4.895,2.93 0.701,0.176 1.389,0.445 2.05,0.74 0.181,0.082 0.369,0.421 0.342,0.613 -0.029,0.197 -0.286,0.449 -0.494,0.515 -0.337,0.108 -0.717,0.109 -1.078,0.109 -7.669,0.006 -15.336,0.004 -23.005,0 -0.312,0 -0.635,0.007 -0.929,-0.075 -0.489,-0.142 -0.674,-0.435 -0.372,-0.942 0.253,-0.426 0.654,-0.911 0.61,-1.33 -0.051,-0.443 -0.506,-0.877 -0.86,-1.241 -5.95,-6.08 -11.909,-12.15 -17.866,-18.223 -0.22,-0.223 -0.441,-0.447 -0.666,-0.663 -1.315,-1.276 -1.798,-1.292 -3.115,0.023 -3.809,3.795 -7.622,7.59 -11.397,11.421 -2.451,2.489 -4.84,5.04 -7.253,7.57 -0.908,0.952 -0.907,1.012 -0.218,2.277 0.394,0.72 0.246,1.037 -0.577,1.157 -0.356,0.052 -0.727,0.03 -1.092,0.03 -7.407,0.002 -14.815,0.011 -22.223,-0.011 -0.663,-0.003 -1.779,0.177 -1.835,-0.635 -0.118,-0.848 0.905,-0.89 1.505,-1.032 2.698,-0.632 4.759,-2.172 6.666,-4.132 6.08,-6.249 12.263,-12.396 18.38,-18.604 1.902,-1.93 3.717,-3.939 5.597,-5.889 0.722,-0.753 1.525,-1.422 2.266,-2.156 1.546,-1.539 1.551,-1.948 0.063,-3.453 -4.509,-4.57 -9.03,-9.128 -13.536,-13.703 -3.664,-3.713 -7.343,-7.416 -10.958,-11.178 -1.394,-1.446 -3.029,-2.35 -4.954,-2.799 -0.354,-0.083 -0.703,-0.194 -1.052,-0.301 -0.495,-0.153 -1.108,-0.271 -1.039,-0.948 0.068,-0.688 0.672,-0.688 1.21,-0.685 0.312,0 0.626,-0.003 0.939,-0.003 3.704,0 7.41,0 11.114,0 z"
     id="path23"
     style="fill:#ffffff;fill-opacity:1;stroke-width:1.12222"
     transform="matrix(0.89108706,0,0,0.89108706,14.972782,9.9818826)" />
  <g
     transform="matrix(1.1220301,0,0,1.1339546,-6.0798711,9.9818826)"
     id="g1"
     style="stroke-width:1.12222">
    <path
       d="m 109.385,12.379 c 0,0.988 0.805,1.771 1.771,1.761 h 7.233 v -2.203 h -6.793 V 11.32 h 5.353 V 9.128 h -7.553 z"
       id="path11"
       style="fill:#ffffff;fill-rule:evenodd;stroke-width:1.25939" />
    <path
       d="m 109.396,5.118 c 0,-0.911 0.784,-1.756 1.76,-1.752 h 7.233 v 2.192 h -6.793 v 0.617 h 5.353 v 2.222 h -7.564 z"
       id="path13"
       style="fill:#ffffff;fill-rule:evenodd;stroke-width:1.25939" />
    <path
       d="m 110.898,0.411 c -2.455,0 -4.446,1.991 -4.446,4.445 v 7.781 c 0,2.455 1.991,4.445 4.446,4.445 h 7.493 v -2.191 h -7.307 c -1.289,0 -2.432,-1.222 -2.432,-2.51 V 5.11 c 0,-1.289 1.143,-2.48 2.432,-2.48 h 7.307 V 0.408 h -7.493 z"
       id="path29"
       style="fill:#ffffff;fill-rule:evenodd;stroke-width:1.25939" />
    <path
       d="M 125.084,11.997 V 5.558 h 7.145 V 3.366 h -7.546 c -0.976,-0.004 -1.76,0.841 -1.76,1.752 l -0.009,7.261 c 0,0.988 0.803,1.771 1.769,1.761 h 4.603 l -0.012,-5.051 h -3.463 v 2.172 h 1.28 v 0.735 h -2.007 z"
       id="path31"
       style="fill:#ffffff;fill-rule:evenodd;stroke-width:1.25939" />
    <path
       d="m 104.333,0.39 h -7.178 c -3.024,0 -5.477,2.452 -5.477,5.476 0,3.025 2.453,5.418 5.477,5.392 h 2.187 v 0.739 h -7.616 v 2.144 h 7.368 c 1.385,0 2.509,-1.124 2.509,-2.507 0,-1.385 -1.124,-2.489 -2.509,-2.489 L 97.185,9.137 c -1.797,0 -3.254,-1.457 -3.254,-3.253 0,-1.797 1.456,-3.254 3.254,-3.254 h 7.153 z"
       id="path33"
       style="fill:#ffffff;fill-rule:evenodd;stroke-width:1.25939" />
    <path
       d="m 104.333,5.499 h -7.461 v 0.735 l 2.238,0.004 c 3.026,0 5.477,2.393 5.477,5.417 0,3.025 -2.451,5.424 -5.477,5.424 l -7.384,-0.015 v -2.179 h 7.368 c 1.797,0 3.254,-1.456 3.254,-3.253 0,-1.796 -1.457,-3.234 -3.254,-3.234 L 97.185,8.391 c -1.385,0 -2.509,-1.124 -2.509,-2.509 0,-1.385 1.124,-2.508 2.509,-2.508 h 7.153 z"
       id="path35"
       style="fill:#ffffff;fill-rule:evenodd;stroke-width:1.25939" />
    <path
       d="m 140.576,2.991 c -0.089,-0.209 -0.12,-0.259 -0.36,-0.259 -0.241,0 -0.299,0.125 -0.391,0.334 l -4.55,14.016 2.394,0.003 2.574,-7.77 0.847,2.624 h -1.699 v 2.211 h 4.835 z"
       id="path37"
       style="fill:#ffffff;fill-rule:evenodd;stroke-width:1.25939" />
    <path
       d="m 124.425,17.084 c -2.455,0 -4.447,-1.991 -4.447,-4.445 V 4.858 c 0,-2.455 1.992,-4.445 4.447,-4.445 h 7.804 v 2.222 h -7.616 c -1.291,0 -2.434,1.191 -2.434,2.48 v 7.27 c 0,1.289 1.142,2.51 2.434,2.51 h 5.395 V 8.359 h -4.195 V 6.177 h 6.425 V 16.572 L 136.815,2.409 C 137.307,1.006 138.643,0 140.216,0 c 1.604,0 2.966,1.05 3.429,2.502 l 4.753,14.583 h -9.007 v -2.191 h 5.851 L 141.275,2.731 c -0.232,-0.669 -0.646,-0.748 -1.059,-0.748 -0.432,0 -0.831,0.177 -1.056,0.788 l -4.657,14.314 h -10.078 z"
       id="path39"
       style="fill:#ffffff;fill-rule:evenodd;stroke-width:1.25939" />
  </g>
</svg>
