<?xml version="1.0" encoding="UTF-8" standalone="no"?>
<!-- Generator: Adobe Illustrator 25.0.0, SVG Export Plug-In . SVG Version: 6.00 Build 0)  -->

<svg
   version="1.1"
   id="Layer_1"
   x="0px"
   y="0px"
   viewBox="0 0 3840 1650.9"
   style="enable-background:new 0 0 3840 1650.9;"
   xml:space="preserve"
   sodipodi:docname="triforce.svg"
   inkscape:version="1.3.2 (091e20e, 2023-11-25, custom)"
   xmlns:inkscape="http://www.inkscape.org/namespaces/inkscape"
   xmlns:sodipodi="http://sodipodi.sourceforge.net/DTD/sodipodi-0.dtd"
   xmlns="http://www.w3.org/2000/svg"
   xmlns:svg="http://www.w3.org/2000/svg"><defs
   id="defs153" /><sodipodi:namedview
   id="namedview151"
   pagecolor="#ffffff"
   bordercolor="#666666"
   borderopacity="1.0"
   inkscape:pageshadow="2"
   inkscape:pageopacity="0.0"
   inkscape:pagecheckerboard="0"
   showgrid="false"
   inkscape:zoom="0.41189654"
   inkscape:cx="1919.1713"
   inkscape:cy="824.23611"
   inkscape:window-width="3840"
   inkscape:window-height="2126"
   inkscape:window-x="-11"
   inkscape:window-y="-11"
   inkscape:window-maximized="1"
   inkscape:current-layer="Layer_1"
   inkscape:showpageshadow="0"
   inkscape:deskcolor="#505050" />
<style
   type="text/css"
   id="style2">
	.st0{fill:#887EC9;}
	.st1{fill:#6B4284;}
	.st2{fill:#FFFFFF;}
</style>
<g
   id="g148"
   style="fill:#ffffff;fill-opacity:1"
   transform="translate(2.4277941,-72.833824)">
	<rect
   x="3414.2"
   y="699.09998"
   class="st0"
   width="124"
   height="437.20001"
   id="rect4"
   style="fill:#ffffff;fill-opacity:1;stroke-width:1.25"
   transform="matrix(0.8,0,0,0.8,410.30483,288.9075)" />
	<rect
   x="1323.5"
   y="699.09998"
   class="st0"
   width="124"
   height="437.20001"
   id="rect6"
   style="fill:#ffffff;fill-opacity:1;stroke-width:1.25"
   transform="matrix(0.8,0,0,0.8,410.30483,288.9075)" />
	<rect
   x="1110.1"
   y="699.09998"
   class="st0"
   width="124"
   height="437.20001"
   id="rect8"
   style="fill:#ffffff;fill-opacity:1;stroke-width:1.25"
   transform="matrix(0.8,0,0,0.8,410.30483,288.9075)" />
	<rect
   x="189.7"
   y="699.09998"
   class="st0"
   width="124"
   height="437.20001"
   id="rect10"
   style="fill:#ffffff;fill-opacity:1;stroke-width:1.25"
   transform="matrix(0.8,0,0,0.8,410.30483,288.9075)" />
	
		<rect
   x="3578.1001"
   y="535.29999"
   transform="matrix(0,0.8,-0.8,0,3910.5064,-2014.2823)"
   class="st0"
   width="98.099998"
   height="425.79999"
   id="rect12"
   style="fill:#ffffff;fill-opacity:1;stroke-width:1.25" />
	
		<rect
   x="3534.3"
   y="748.59998"
   transform="matrix(0,0.8,-0.8,0,4011.1075,-1843.5673)"
   class="st0"
   width="98.099998"
   height="338.10001"
   id="rect14"
   style="fill:#ffffff;fill-opacity:1;stroke-width:1.25" />
	
		<rect
   x="3578.1001"
   y="874.40002"
   transform="matrix(0,0.8,-0.8,0,4181.822,-1742.9667)"
   class="st0"
   width="98.099998"
   height="425.79999"
   id="rect16"
   style="fill:#ffffff;fill-opacity:1;stroke-width:1.25" />
	
		<rect
   x="1475.3"
   y="547.40002"
   transform="matrix(0,0.8,-0.8,0,2228.2746,-332.04954)"
   class="st0"
   width="98.099998"
   height="401.60001"
   id="rect18"
   style="fill:#ffffff;fill-opacity:1;stroke-width:1.25" />
	
		<rect
   x="1455.9"
   y="736.29999"
   transform="matrix(0,0.8,-0.8,0,2348.4544,-180.91378)"
   class="st0"
   width="98.099998"
   height="362.89999"
   id="rect20"
   style="fill:#ffffff;fill-opacity:1;stroke-width:1.25" />
	<path
   class="st0"
   d="m 1855.2,699.1 c -50.4,0 -91.2,40.8 -91.2,91.2 v 6.9 247.9 c 0,50.4 40.8,91.2 91.2,91.2 h 335.3 c 50.4,0 91.2,-40.8 91.2,-91.2 V 790.3 c 0,-50.4 -40.8,-91.2 -91.2,-91.2 z m 302.5,339.1 H 1888 v -241 h 269.7 z"
   id="path22"
   style="fill:#ffffff;fill-opacity:1;stroke-width:1.25"
   transform="matrix(0.8,0,0,0.8,410.30483,288.9075)" />
	<path
   class="st0"
   d="m 2864.9,790.3 v 254.8 c 0,50.4 40.8,91.2 91.2,91.2 h 321 c 50.4,0 91.2,-40.8 91.2,-91.2 V 966.8 H 3237 v 71.5 H 2988.9 V 797.2 H 3237 v 71.5 h 131.3 v -78.3 c 0,-50.4 -40.8,-91.2 -91.2,-91.2 h -321 c -50.4,-0.1 -91.2,40.7 -91.2,91.1 z"
   id="path24"
   style="fill:#ffffff;fill-opacity:1;stroke-width:1.25"
   transform="matrix(0.8,0,0,0.8,410.30483,288.9075)" />
	
		<rect
   x="202.7"
   y="496.39999"
   transform="matrix(0,0.8,-0.8,0,1210.1753,686.0487)"
   class="st0"
   width="98.099998"
   height="503.39999"
   id="rect26"
   style="fill:#ffffff;fill-opacity:1;stroke-width:1.25" />
	<path
   class="st0"
   d="m 1182.5,1252.4 c 0,10.7 -8.6,19.3 -19.4,19.3 -10.7,0 -19.4,-8.7 -19.4,-19.3 0,-10.8 8.7,-19.4 19.4,-19.4 10.7,0 19.4,8.6 19.4,19.4 z"
   id="path28"
   style="fill:#ffffff;fill-opacity:1;stroke-width:1.25"
   transform="matrix(0.8,0,0,0.8,410.30483,288.9075)" />
	<path
   class="st0"
   d="m 2208.2,1252.4 c 0,10.7 -8.7,19.3 -19.4,19.3 -10.7,0 -19.4,-8.7 -19.4,-19.3 0,-10.8 8.7,-19.4 19.4,-19.4 10.7,0 19.4,8.6 19.4,19.4 z"
   id="path30"
   style="fill:#ffffff;fill-opacity:1;stroke-width:1.25"
   transform="matrix(0.8,0,0,0.8,410.30483,288.9075)" />
	<rect
   x="103.6"
   y="1193.9"
   class="st0"
   width="40.599998"
   height="23.4"
   id="rect32"
   style="fill:#ffffff;fill-opacity:1;stroke-width:1.25"
   transform="matrix(0.8,0,0,0.8,410.30483,288.9075)" />
	<path
   class="st0"
   d="m 303.7,1222 v 88.8 h 30 v -93.5 h 64.1 v 93.5 h 30 V 1222 c 0,-15.5 -12.6,-28.1 -28.1,-28.1 h -67.9 c -15.5,0 -28.1,12.6 -28.1,28.1 z"
   id="path34"
   style="fill:#ffffff;fill-opacity:1;stroke-width:1.25"
   transform="matrix(0.8,0,0,0.8,410.30483,288.9075)" />
	<rect
   x="303.70001"
   y="1240.6"
   class="st0"
   width="124"
   height="23.4"
   id="rect36"
   style="fill:#ffffff;fill-opacity:1;stroke-width:1.25"
   transform="matrix(0.8,0,0,0.8,410.30483,288.9075)" />
	<g
   id="g42"
   style="fill:#ffffff;fill-opacity:1;stroke-width:1.25"
   transform="matrix(0.8,0,0,0.8,410.30483,288.9075)">
		<path
   class="st0"
   d="m 1938,1222 v 88.8 h 30 v -93.5 h 64.1 v 93.5 h 30 V 1222 c 0,-15.5 -12.6,-28.1 -28.1,-28.1 h -67.9 c -15.5,0 -28.1,12.6 -28.1,28.1 z"
   id="path38"
   style="fill:#ffffff;fill-opacity:1;stroke-width:1.25" />
		<rect
   x="1938"
   y="1240.6"
   class="st0"
   width="124"
   height="23.4"
   id="rect40"
   style="fill:#ffffff;fill-opacity:1;stroke-width:1.25" />
	</g>
	<g
   id="g48"
   style="fill:#ffffff;fill-opacity:1;stroke-width:1.25"
   transform="matrix(0.8,0,0,0.8,410.30483,288.9075)">
		<rect
   x="498.89999"
   y="1193.9"
   class="st0"
   width="30"
   height="116.9"
   id="rect44"
   style="fill:#ffffff;fill-opacity:1;stroke-width:1.25" />
		<rect
   x="622.90002"
   y="1193.9"
   class="st0"
   width="30"
   height="116.9"
   id="rect46"
   style="fill:#ffffff;fill-opacity:1;stroke-width:1.25" />
	</g>
	<path
   class="st0"
   d="m 836.6,1217.3 v -23.4 h -96 c -15.5,0 -28.1,12.6 -28.1,28.1 v 60.7 c 0,15.5 12.6,28.1 28.1,28.1 h 96 v -23.4 h -94.1 v -70.1 z"
   id="path50"
   style="fill:#ffffff;fill-opacity:1;stroke-width:1.25"
   transform="matrix(0.8,0,0,0.8,410.30483,288.9075)" />
	<path
   class="st0"
   d="m 903.9,1222 v 60.7 c 0,15.5 12.6,28.1 28.1,28.1 h 67.9 c 15.5,0 28.1,-12.6 28.1,-28.1 V 1222 c 0,-15.5 -12.6,-28.1 -28.1,-28.1 H 932 c -15.6,0 -28.1,12.6 -28.1,28.1 z m 94,65.4 h -64.1 v -70.1 h 64.1 z"
   id="path52"
   style="fill:#ffffff;fill-opacity:1;stroke-width:1.25"
   transform="matrix(0.8,0,0,0.8,410.30483,288.9075)" />
	<g
   id="g58"
   style="fill:#ffffff;fill-opacity:1;stroke-width:1.25"
   transform="matrix(0.8,0,0,0.8,410.30483,288.9075)">
		<rect
   x="1533.3"
   y="1240.6"
   class="st0"
   width="94.099998"
   height="23.4"
   id="rect54"
   style="fill:#ffffff;fill-opacity:1;stroke-width:1.25" />
		<path
   class="st0"
   d="m 1652.4,1217.3 v -23.4 h -96 c -15.5,0 -28.1,12.6 -28.1,28.1 v 60.7 c 0,15.5 12.6,28.1 28.1,28.1 h 96 v -23.4 h -94.1 v -70.1 z"
   id="path56"
   style="fill:#ffffff;fill-opacity:1;stroke-width:1.25" />
	</g>
	<g
   id="g64"
   style="fill:#ffffff;fill-opacity:1;stroke-width:1.25"
   transform="matrix(0.8,0,0,0.8,410.30483,288.9075)">
		<rect
   x="1786.5"
   y="1240.6"
   class="st0"
   width="70.699997"
   height="23.4"
   id="rect60"
   style="fill:#ffffff;fill-opacity:1;stroke-width:1.25" />
		<path
   class="st0"
   d="m 1763.2,1217.3 h 94.1 v -23.4 h -96 c -15.5,0 -28.1,12.6 -28.1,28.1 v 60.7 c 0,15.5 12.6,28.1 28.1,28.1 h 67.9 c 15.5,0 28.1,-12.6 28.1,-28.1 v -42.1 h -30 v 46.8 h -64.1 z"
   id="path62"
   style="fill:#ffffff;fill-opacity:1;stroke-width:1.25" />
	</g>
	<g
   id="g72"
   style="fill:#ffffff;fill-opacity:1;stroke-width:1.25"
   transform="matrix(0.8,0,0,0.8,410.30483,288.9075)">
		<rect
   x="103.6"
   y="1193.9"
   class="st0"
   width="30"
   height="116.9"
   id="rect66"
   style="fill:#ffffff;fill-opacity:1;stroke-width:1.25" />
		<rect
   x="197.7"
   y="1193.9"
   class="st0"
   width="30"
   height="116.9"
   id="rect68"
   style="fill:#ffffff;fill-opacity:1;stroke-width:1.25" />
		<polygon
   class="st0"
   points="224.3,1308 144.4,1193.9 139.2,1193.9 123.5,1204.9 197.7,1310.8 220.3,1310.8 "
   id="polygon70"
   style="fill:#ffffff;fill-opacity:1;stroke-width:1.25" />
	</g>
	<path
   class="st0"
   d="m 3612.7,1222 v 60.7 c 0,15.5 12.6,28.1 28.1,28.1 h 67.9 c 15.5,0 28.1,-12.6 28.1,-28.1 V 1222 c 0,-15.5 -12.6,-28.1 -28.1,-28.1 h -67.9 c -15.5,0 -28.1,12.6 -28.1,28.1 z m 94.1,65.4 h -64.1 v -70.1 h 64.1 z"
   id="path74"
   style="fill:#ffffff;fill-opacity:1;stroke-width:1.25"
   transform="matrix(0.8,0,0,0.8,410.30483,288.9075)" />
	<path
   class="st0"
   d="m 3414.2,1193.9 v 116.9 h 96 c 15.5,0 28.1,-12.6 28.1,-28.1 V 1222 c 0,-15.5 -12.6,-28.1 -28.1,-28.1 z m 94.1,93.5 h -64.1 v -70.1 h 64.1 z"
   id="path76"
   style="fill:#ffffff;fill-opacity:1;stroke-width:1.25"
   transform="matrix(0.8,0,0,0.8,410.30483,288.9075)" />
	<g
   id="g82"
   style="fill:#ffffff;fill-opacity:1;stroke-width:1.25"
   transform="matrix(0.8,0,0,0.8,410.30483,288.9075)">
		<rect
   x="3041"
   y="1240.6"
   class="st0"
   width="94.099998"
   height="23.4"
   id="rect78"
   style="fill:#ffffff;fill-opacity:1;stroke-width:1.25" />
		<path
   class="st0"
   d="m 3165,1217.3 v -23.4 h -96 c -15.5,0 -28.1,12.6 -28.1,28.1 v 60.7 c 0,15.5 12.6,28.1 28.1,28.1 h 96 v -23.4 h -94 v -70.1 z"
   id="path80"
   style="fill:#ffffff;fill-opacity:1;stroke-width:1.25" />
	</g>
	<g
   id="g94"
   style="fill:#ffffff;fill-opacity:1;stroke-width:1.25"
   transform="matrix(0.8,0,0,0.8,410.30483,288.9075)">
		<rect
   x="2333.6001"
   y="1193.9"
   class="st0"
   width="40.599998"
   height="23.4"
   id="rect84"
   style="fill:#ffffff;fill-opacity:1;stroke-width:1.25" />
		<g
   id="g92"
   style="fill:#ffffff;fill-opacity:1;stroke-width:1.25">
			<rect
   x="2333.6001"
   y="1193.9"
   class="st0"
   width="30"
   height="116.9"
   id="rect86"
   style="fill:#ffffff;fill-opacity:1;stroke-width:1.25" />
			<rect
   x="2427.7"
   y="1193.9"
   class="st0"
   width="30"
   height="116.9"
   id="rect88"
   style="fill:#ffffff;fill-opacity:1;stroke-width:1.25" />
			<polygon
   class="st0"
   points="2374.4,1193.9 2369.2,1193.9 2353.5,1204.9 2427.7,1310.8 2450.3,1310.8 2454.3,1308 "
   id="polygon90"
   style="fill:#ffffff;fill-opacity:1;stroke-width:1.25" />
		</g>
	</g>
	<g
   id="g100"
   style="fill:#ffffff;fill-opacity:1;stroke-width:1.25"
   transform="matrix(0.8,0,0,0.8,410.30483,288.9075)">
		<g
   id="g98"
   style="fill:#ffffff;fill-opacity:1;stroke-width:1.25">
			<rect
   x="2539.3999"
   y="1193.9"
   class="st0"
   width="30"
   height="116.9"
   id="rect96"
   style="fill:#ffffff;fill-opacity:1;stroke-width:1.25" />
		</g>
	</g>
	<g
   id="g106"
   style="fill:#ffffff;fill-opacity:1;stroke-width:1.25"
   transform="matrix(0.8,0,0,0.8,410.30483,288.9075)">
		<g
   id="g104"
   style="fill:#ffffff;fill-opacity:1;stroke-width:1.25">
			<rect
   x="2891.8999"
   y="1193.9"
   class="st0"
   width="30"
   height="116.9"
   id="rect102"
   style="fill:#ffffff;fill-opacity:1;stroke-width:1.25" />
		</g>
	</g>
	<g
   id="g118"
   style="fill:#ffffff;fill-opacity:1;stroke-width:1.25"
   transform="matrix(0.8,0,0,0.8,410.30483,288.9075)">
		<rect
   x="3215.8"
   y="1193.9"
   class="st0"
   width="40.599998"
   height="23.4"
   id="rect108"
   style="fill:#ffffff;fill-opacity:1;stroke-width:1.25" />
		<g
   id="g116"
   style="fill:#ffffff;fill-opacity:1;stroke-width:1.25">
			<rect
   x="3215.8"
   y="1193.9"
   class="st0"
   width="30"
   height="116.9"
   id="rect110"
   style="fill:#ffffff;fill-opacity:1;stroke-width:1.25" />
			<rect
   x="3309.8"
   y="1193.9"
   class="st0"
   width="30"
   height="116.9"
   id="rect112"
   style="fill:#ffffff;fill-opacity:1;stroke-width:1.25" />
			<polygon
   class="st0"
   points="3256.5,1193.9 3251.3,1193.9 3235.6,1204.9 3309.8,1310.8 3332.4,1310.8 3336.4,1308 "
   id="polygon114"
   style="fill:#ffffff;fill-opacity:1;stroke-width:1.25" />
		</g>
	</g>
	<g
   id="g130"
   style="fill:#ffffff;fill-opacity:1;stroke-width:1.25"
   transform="matrix(0.8,0,0,0.8,410.30483,288.9075)">
		<rect
   x="2653.7"
   y="1193.9"
   class="st0"
   width="40.599998"
   height="23.4"
   id="rect120"
   style="fill:#ffffff;fill-opacity:1;stroke-width:1.25" />
		<g
   id="g128"
   style="fill:#ffffff;fill-opacity:1;stroke-width:1.25">
			<rect
   x="2653.7"
   y="1193.9"
   class="st0"
   width="30"
   height="116.9"
   id="rect122"
   style="fill:#ffffff;fill-opacity:1;stroke-width:1.25" />
			<rect
   x="2747.7"
   y="1193.9"
   class="st0"
   width="30"
   height="116.9"
   id="rect124"
   style="fill:#ffffff;fill-opacity:1;stroke-width:1.25" />
			<polygon
   class="st0"
   points="2694.4,1193.9 2689.2,1193.9 2673.5,1204.9 2747.7,1310.8 2770.3,1310.8 2774.3,1308 "
   id="polygon126"
   style="fill:#ffffff;fill-opacity:1;stroke-width:1.25" />
		</g>
	</g>
	<polygon
   class="st0"
   points="561.6,1310.8 590.2,1310.8 630.5,1193.9 605.7,1193.9 575.9,1280.6 546,1193.9 521.3,1193.9 "
   id="polygon132"
   style="fill:#ffffff;fill-opacity:1;stroke-width:1.25"
   transform="matrix(0.8,0,0,0.8,410.30483,288.9075)" />
	<rect
   x="2844.8999"
   y="1193.9"
   class="st0"
   width="124"
   height="23.4"
   id="rect134"
   style="fill:#ffffff;fill-opacity:1;stroke-width:1.25"
   transform="matrix(0.8,0,0,0.8,410.30483,288.9075)" />
	<g
   id="g140"
   style="fill:#ffffff;fill-opacity:1;stroke-width:1.25"
   transform="matrix(0.8,0,0,0.8,410.30483,288.9075)">
		<polygon
   class="st0"
   points="2308.6,651.2 1938,0 1567.4,651.2 1672.1,651.2 1938,184 2203.9,651.2 "
   id="polygon136"
   style="fill:#ffffff;fill-opacity:1;stroke-width:1.25" />
		<polygon
   class="st0"
   points="1269.6,1358.6 1164.9,1358.6 998.6,1650.9 2877.4,1650.9 2711.1,1358.6 2606.4,1358.6 2720.9,1559.9 1155.1,1559.9 "
   id="polygon138"
   style="fill:#ffffff;fill-opacity:1;stroke-width:1.25" />
	</g>
	<path
   class="st0"
   d="m 1447.6,1217.3 v -23.4 h -96 c -15.5,0 -28.1,12.6 -28.1,28.1 v 14 c 0,15.5 12.6,28.1 28.1,28.1 h 66 v 23.4 h -94.1 v 23.4 h 96 c 15.5,0 28.1,-12.6 28.1,-28.1 v -14 c 0,-15.5 -12.6,-28.1 -28.1,-28.1 h -66 v -23.4 z"
   id="path142"
   style="fill:#ffffff;fill-opacity:1;stroke-width:1.25"
   transform="matrix(0.8,0,0,0.8,410.30483,288.9075)" />
	<path
   class="st0"
   d="m 732.8,881.4 v 85.9 l 202,169.1 h 152.8 l -187.4,-157 h 36.5 c 50.4,0 91.2,-40.8 91.2,-91.2 v -97.9 c 0,-50.4 -40.8,-91.2 -91.2,-91.2 h -389 v 98.1 339.1 h 124 V 797.2 h 231.6 v 84.2 z"
   id="path144"
   style="fill:#ffffff;fill-opacity:1;stroke-width:1.25"
   transform="matrix(0.8,0,0,0.8,410.30483,288.9075)" />
	<path
   class="st0"
   d="m 2518.7,881.4 v 85.9 l 202,169.1 h 152.8 L 2686.1,979.5 h 36.5 c 50.4,0 91.2,-40.8 91.2,-91.2 v -97.9 c 0,-50.4 -40.8,-91.2 -91.2,-91.2 h -388.9 v 98.1 339.1 h 124 V 797.2 h 231.6 v 84.2 z"
   id="path146"
   style="fill:#ffffff;fill-opacity:1;stroke-width:1.25"
   transform="matrix(0.8,0,0,0.8,410.30483,288.9075)" />
</g>
</svg>
