<?xml version="1.0" encoding="UTF-8" standalone="no"?>
<svg
   version="1.1"
   id="Layer_1"
   x="0px"
   y="0px"
   width="100%"
   viewBox="0 0 1200 600"
   enable-background="new 0 0 1200 600"
   xml:space="preserve"
   sodipodi:docname="zelda.svg"
   inkscape:version="1.3.2 (091e20e, 2023-11-25, custom)"
   xmlns:inkscape="http://www.inkscape.org/namespaces/inkscape"
   xmlns:sodipodi="http://sodipodi.sourceforge.net/DTD/sodipodi-0.dtd"
   xmlns="http://www.w3.org/2000/svg"
   xmlns:svg="http://www.w3.org/2000/svg"><defs
   id="defs73" /><sodipodi:namedview
   id="namedview73"
   pagecolor="#505050"
   bordercolor="#eeeeee"
   borderopacity="1"
   inkscape:showpageshadow="0"
   inkscape:pageopacity="0"
   inkscape:pagecheckerboard="0"
   inkscape:deskcolor="#505050"
   inkscape:zoom="0.52895833"
   inkscape:cx="-866.79795"
   inkscape:cy="246.7113"
   inkscape:window-width="3840"
   inkscape:window-height="2126"
   inkscape:window-x="-11"
   inkscape:window-y="-11"
   inkscape:window-maximized="1"
   inkscape:current-layer="Layer_1" />
<path
   id="path1"
   style="fill:#ffffff;fill-opacity:0"
   d="M 5.5,0.90625 C 1.7506974,0.905313 0.904233,1.7509214 0.90625,5.5 c 0.1060228,196.99954 0.1060688,394.00046 0,591 -0.002019,3.74945 0.8447404,4.59503 4.59375,4.59375 C 301.49935,600.99231 597.5006,601 894,601 c 101.16655,0 201.8336,-0.0233 302.5,0.0957 3.7502,0.004 4.5957,-0.84692 4.5938,-4.5957 -0.106,-196.99954 -0.1061,-394.00045 0,-591 0,-3.7496376 -0.8451,-4.594686 -4.5938,-4.59375 -396.9992,0.0991348 -794.00082,0.0991808 -1191,0 z m 834.70508,248.77539 c 0.53459,-0.0332 0.97763,0.60304 0.60742,1.56836 -0.96559,2.51774 -1.10985,5.29936 -1.12305,7.96484 -0.0189,3.82947 0.27862,7.8527 0.49414,11.65625 0.62758,9.52498 0.32415,4.77992 0.91407,14.23438 0.10302,1.65098 -1.56496,1.75449 -1.66797,0.10351 -0.58988,-9.45381 -0.2857,-4.70566 -0.91407,-14.24414 -0.21676,-3.83508 -0.52114,-7.96464 -0.49414,-11.83007 0.0202,-2.88634 0.20116,-5.88316 1.2793,-8.59571 0.22913,-0.57645 0.58354,-0.83748 0.9043,-0.85742 z m -5.3125,33.17774 c 0.36602,0.033 0.73054,0.38687 0.8164,1.10546 0.85563,7.1608 2.1473,14.25974 3.36524,21.36524 1.10276,6.47017 2.22788,12.93671 3.3457,19.4043 0.28173,1.63001 -1.36476,1.91517 -1.64648,0.28515 -1.11796,-6.46834 -2.24281,-12.93532 -3.34571,-19.40625 -1.21893,-7.11155 -2.51325,-14.21782 -3.36914,-21.38476 -0.11034,-0.92393 0.36339,-1.41155 0.83399,-1.36914 z" />
<path
   fill="#631A20"
   opacity="1.000000"
   stroke="none"
   d=" M860.668213,165.025696   C884.299744,173.808182 901.800964,189.461594 914.225403,210.702652   C925.358826,229.736710 930.891968,250.591782 933.119934,272.487488   C934.464294,285.699799 935.723877,298.845123 934.009766,312.543457   C935.964050,314.305664 935.993408,316.213959 935.839905,318.307556   C933.983459,343.633057 928.310120,367.898499 915.986938,390.336060   C915.424561,391.360046 915.118591,392.496613 914.429382,393.887878   C907.943237,403.093475 900.185364,410.656342 892.501404,418.740631   C892.211426,419.247284 892.081604,419.441071 891.696899,419.871613   C890.507019,420.688904 889.333923,420.881104 888.435303,422.104919   C888.092957,422.538361 887.942566,422.701080 887.519958,423.052612   C886.245850,423.629395 885.186951,423.893738 883.732666,424.811035   C880.103210,424.482208 878.205322,426.835999 876.027283,428.107635   C861.172668,436.780487 844.963989,441.220184 828.173645,443.999023   C816.492249,445.932312 804.726746,446.034973 792.925964,446.029938   C671.144775,445.978088 549.363586,446.034729 427.582611,445.873840   C422.316162,445.866882 420.232758,447.458435 418.553680,452.451904   C411.471619,473.513855 403.760681,494.363708 396.418732,515.339783   C395.497040,517.973083 394.212585,519.239441 391.425385,519.012573   C389.936157,518.891296 388.428497,518.997925 386.929169,518.997925   C288.637939,518.998108 190.346695,518.997925 92.055458,518.997681   C81.444687,518.997681 80.832436,518.577698 76.747879,508.142334   C81.229904,505.371155 85.902359,507.292877 90.822327,506.870728   C183.261963,506.363159 275.249969,506.867554 367.237366,506.701355   C369.737274,506.696838 372.237305,506.717560 374.737030,506.690308   C382.088379,506.610138 382.999207,505.966064 385.626007,498.932098   C391.978088,481.922760 398.683868,465.047241 404.942749,448.003937   C406.265472,444.402039 409.081177,441.517120 409.804382,437.146240   C410.456848,435.798279 411.196442,435.182190 412.600861,434.662842   C419.856659,433.450226 426.691681,433.685516 433.516296,433.685211   C474.170593,433.683472 514.824890,433.684540 555.479187,433.684113   C557.145325,433.684113 558.811707,433.697479 560.477661,433.671265   C567.654846,433.558441 568.629456,432.666473 568.659729,425.592896   C568.728943,409.431335 568.597351,393.268921 568.705200,377.107880   C568.834106,357.794708 568.067627,338.467712 569.507568,318.702454   C569.300964,315.654724 570.458984,313.709839 572.506775,312.341705   C575.645691,310.244507 578.828979,308.183655 583.112976,307.853394   C585.265015,309.561829 585.205017,311.640625 585.214355,313.605377   C585.373901,347.152008 585.374817,380.698792 585.227417,414.245514   C585.222290,415.410400 584.993958,416.557312 584.842102,418.151581   C585.393616,421.663391 584.101929,424.455719 583.575439,427.369873   C583.263611,429.095673 582.022339,430.749390 583.260986,432.914795   C586.247925,434.754333 589.115479,433.629333 591.871399,433.634094   C633.529541,433.706177 675.187866,433.689087 716.846191,433.686035   C718.179260,433.685944 719.512512,433.696716 720.845398,433.673279   C727.659790,433.553497 728.642456,432.655518 728.657959,425.779602   C728.724304,396.285614 728.751892,366.791199 728.625366,337.297699   C728.599548,331.281952 729.650696,325.351562 729.448669,318.903015   C729.744568,312.557983 733.983276,308.642426 742.403748,306.846741   C742.883240,339.264923 742.940979,371.687836 742.997986,404.110718   C743.005005,408.101624 743.008606,412.092499 743.025452,416.553375   C744.840759,418.907745 744.120972,420.984741 743.540649,423.080627   C742.664429,426.245850 741.375671,429.309357 741.323853,432.924622   C742.116150,433.841461 742.829590,434.142578 743.729797,434.107574   C763.867188,433.323822 784.027649,434.372589 804.150024,433.633972   C821.463318,432.998444 838.583191,430.623291 854.879333,424.084076   C881.294495,413.484375 899.080322,394.671722 909.000488,368.106476   C914.817017,352.530334 917.504272,336.382019 918.918579,319.905914   C921.086121,294.656189 919.523438,269.703461 912.814392,245.246429   C904.745178,215.831406 888.678345,192.504715 860.495483,178.823746   C858.396484,177.804779 856.275696,176.770218 855.079346,174.074127   C854.929810,169.716660 856.308350,166.609924 860.668213,165.025696  z"
   id="path2"
   style="fill:#ffffff" />
<path
   fill="#631A20"
   opacity="1.000000"
   stroke="none"
   d=" M426.601562,100.286346   C431.741211,105.214218 432.477020,112.240562 428.855560,117.700111   C421.247681,129.169418 413.689575,140.671722 406.077087,152.501678   C406.001770,153.488190 406.190979,154.263779 405.820251,154.751755   C403.049591,158.398773 405.083649,160.139343 408.663147,161.639343   C415.550964,168.083832 422.950531,173.391495 429.525360,179.659576   C431.119446,181.179276 432.798553,182.495544 432.336670,185.349274   C429.470032,188.523193 426.079620,189.660812 421.884888,189.678772   C419.007172,189.720840 417.145752,188.489502 415.277954,186.948273   C410.150543,182.717468 405.052216,178.453918 400.040558,174.087814   C397.519073,171.891129 395.639648,171.962570 393.652130,174.988876   C374.571472,204.041992 355.017334,232.780426 335.995300,261.874268   C317.519073,290.133362 298.548859,318.066833 279.921326,346.226532   C252.854706,387.143799 225.714417,428.011902 198.550369,468.864410   C196.705276,471.639313 194.417542,474.062561 192.427780,477.184540   C185.953125,481.593048 179.459274,485.140381 171.461929,485.713135   C168.273865,482.536926 170.410889,479.954407 172.008865,477.517517   C181.131500,463.605774 190.489105,449.849274 199.620529,435.943054   C227.287430,393.809235 255.220490,351.851593 283.023651,309.808014   C307.520203,272.764648 332.055176,235.745804 356.449463,198.635895   C373.904816,172.081848 391.741119,145.778534 408.896240,119.027893   C410.515015,116.503716 412.577728,114.337929 414.337463,111.500244   C418.377380,107.555412 420.537842,102.022461 426.601562,100.286346  z"
   id="path3"
   style="fill:#ffffff" />
<path
   fill="#E26974"
   opacity="1.000000"
   stroke="none"
   d=" M90.923897,508.657349   C86.264191,509.166168 81.981529,508.849670 77.322617,508.067871   C82.506325,497.616241 89.591331,488.298676 96.004204,478.549500   C117.444214,445.955444 139.060181,413.477173 160.541260,380.910065   C181.037384,349.836212 201.412109,318.682281 221.908112,287.608368   C242.759613,255.995560 263.905212,224.574371 284.502716,192.797485   C294.761932,176.970078 305.163910,161.249573 315.900513,145.347031   C315.967834,143.534576 316.725464,142.369492 317.912384,141.748199   C323.136902,139.013397 328.007050,135.348785 334.608826,135.377213   C337.397369,138.662262 335.393372,141.244339 333.806915,143.712418   C326.787628,154.632660 319.401306,165.311310 312.295502,176.175400   C290.429596,209.606384 268.296112,242.860855 246.315018,276.215729   C225.525894,307.761902 204.670853,339.264404 183.876694,370.806824   C161.987701,404.010040 140.057770,437.186462 118.218956,470.422455   C110.906616,481.550934 103.509117,492.622314 96.214645,503.761749   C94.903290,505.764343 93.405487,507.456207 90.923897,508.657349  z"
   id="path4"
   style="fill:#ffffff" />
<path
   fill="#EB8E98"
   opacity="1.000000"
   stroke="none"
   d=" M426.443298,100.068619   C423.450745,104.022606 419.995697,107.935730 416.259888,112.049301   C412.426239,114.700836 408.360535,114.287323 404.384399,114.287834   C314.901611,114.299339 225.418823,114.302193 135.936035,114.288696   C119.732727,114.286247 122.532303,113.672485 117.336220,127.367996   C109.360397,148.390167 101.720863,169.540573 93.855072,190.605667   C93.210213,192.332626 92.350159,193.930557 91.309158,195.939178   C91.051903,196.618591 90.953789,196.888702 90.738426,197.568268   C90.505257,198.814270 90.218170,199.593246 89.629639,200.682739   C85.146866,205.868637 79.644043,209.269821 74.749382,213.389252   C73.361481,214.557343 71.613716,215.251953 69.371262,214.246063   C78.040733,189.332809 86.982628,164.600464 96.028091,139.906052   C100.582329,127.472809 105.403473,115.136909 109.899017,102.683037   C110.595261,100.754242 111.394554,99.918167 113.315979,99.997360   C113.980774,100.024757 114.647697,99.999313 115.313652,99.999374   C218.869385,100.008751 322.425110,100.018257 426.443298,100.068619  z"
   id="path5"
   style="fill:#ffffff" />
<path
   fill="#631A20"
   opacity="1.000000"
   stroke="none"
   d=" M1034.594482,153.287659   C1038.008301,155.746368 1037.586914,159.701996 1038.454834,163.089951   C1049.722900,207.076691 1060.834351,251.103577 1072.016602,295.112366   C1081.158936,331.092682 1090.550537,367.011841 1099.335815,403.078918   C1101.116455,410.389221 1106.772705,413.373016 1111.432373,417.562714   C1117.824341,423.310059 1124.738525,428.472504 1131.322510,434.011963   C1135.056396,437.153290 1131.859985,440.911560 1131.680786,444.310669   C1131.551514,446.765961 1128.785889,445.958435 1127.112671,445.960266   C1085.957397,446.005493 1044.801880,445.960388 1003.646851,446.054840   C999.895813,446.063446 998.035767,444.839355 997.924194,441.012573   C997.881348,439.547272 997.382141,438.095306 997.125854,436.224823   C1002.263916,432.762268 1007.941650,434.009552 1013.842896,433.611633   C1018.388794,435.071198 1022.536255,433.676239 1026.658447,433.693085   C1052.480713,433.798798 1078.303589,433.757965 1104.126343,433.723938   C1106.075928,433.721375 1108.106323,434.172150 1110.351929,433.009369   C1105.175415,427.375214 1098.869995,423.316376 1093.283081,418.458313   C1090.373779,415.928406 1088.439087,413.203156 1087.453369,409.486847   C1080.751831,384.221222 1074.443237,358.855072 1067.909302,333.546783   C1055.423706,285.185211 1042.963745,236.817276 1030.649170,188.411789   C1028.557007,180.187866 1025.989746,172.084000 1024.607178,163.285904   C1025.791016,157.659882 1029.855957,155.397873 1034.594482,153.287659  z"
   id="path6"
   style="fill:#ffffff" />
<path
   fill="#EA8D97"
   opacity="1.000000"
   stroke="none"
   d=" M738.067871,435.612518   C739.363953,429.728302 741.130310,423.747162 742.966919,417.394714   C743.654907,416.868744 744.281372,416.742706 744.888977,416.555267   C754.862427,413.477844 755.226135,406.020203 755.181702,397.047607   C754.842896,328.668976 754.991150,260.287903 754.953308,191.438095   C757.535950,185.527084 762.245728,184.148605 768.160278,184.597595   C770.989563,187.509277 770.241028,190.838211 770.251953,193.909286   C770.346680,220.562042 770.301880,247.215179 770.302856,273.868195   C770.304504,318.345428 770.102173,362.824371 770.476990,407.298431   C770.550476,416.016815 768.371216,421.784973 760.047546,425.423431   C752.807251,428.588348 746.846924,434.535950 738.067871,435.612518  z"
   id="path7"
   style="fill:#ffffff" />
<path
   fill="#641A20"
   opacity="1.000000"
   stroke="none"
   d=" M699.906738,153.754547   C705.219910,159.419739 704.942810,163.772873 699.417664,167.827728   C692.344788,173.018417 685.265930,178.201538 678.233704,183.446945   C675.706665,185.331924 673.874756,187.278854 673.883667,191.100830   C674.050476,262.372406 674.022400,333.644440 674.038208,405.374512   C672.910645,411.395538 668.577087,415.136566 661.604004,415.997803   C658.909302,412.637970 659.750305,409.007019 659.745361,405.599579   C659.673340,356.131348 659.696472,306.663025 659.699158,257.194702   C659.700439,234.376007 659.855347,211.555328 659.598999,188.739899   C659.527039,182.331970 661.667297,178.084763 667.183044,174.906433   C673.364258,171.344604 678.969849,166.824081 685.604370,163.174774   C690.008667,159.132645 693.852356,155.007584 699.906738,153.754547  z"
   id="path8"
   style="fill:#ffffff" />
<path
   fill="#631A20"
   opacity="1.000000"
   stroke="none"
   d=" M69.110542,214.378052   C76.105255,210.621353 81.354195,204.785263 87.820465,200.000000   C88.351837,199.398346 88.523682,198.978943 88.819916,198.253967   C89.036568,197.986221 89.048759,198.028854 89.027679,198.035736   C96.828209,188.340652 107.219933,181.538025 116.766739,173.840805   C132.565918,161.102554 148.390793,148.389343 164.270660,135.748398   C167.950943,132.818741 171.680573,131.725067 176.173279,131.726028   C210.483047,131.733398 244.792831,131.744278 279.102600,131.738480   C295.924377,131.735641 312.746399,131.677628 329.567688,131.791138   C332.132935,131.808441 335.012787,131.185593 337.006195,134.248199   C336.936920,134.917770 336.775391,135.159958 335.805603,135.683746   C328.512238,138.123657 322.808075,141.909500 316.329987,144.891083   C270.405426,145.009964 224.808609,145.043198 179.212204,144.920914   C175.588608,144.911194 172.845352,146.181122 170.209213,148.305588   C149.859344,164.705643 129.497665,181.091080 109.148277,197.491745   C100.261391,204.654144 91.178505,211.596603 82.628616,219.142044   C79.349022,222.036316 77.424255,222.041824 74.345741,219.316574   C72.623123,217.791626 70.902374,216.232178 69.110542,214.378052  z"
   id="path9"
   style="fill:#ffffff" />
<path
   fill="#EA8C96"
   opacity="1.000000"
   stroke="none"
   d=" M911.685425,394.373718   C923.922729,371.243958 931.818237,347.209473 933.140259,321.243347   C933.265991,318.773956 933.684326,316.319489 933.990723,313.425049   C937.640869,304.401245 939.382568,295.243439 941.941528,286.336670   C947.373413,267.430542 952.576172,248.458023 957.791199,229.490250   C961.594604,215.656799 965.267212,201.787369 969.006592,187.529602   C972.302063,183.188751 976.554871,183.908997 981.229065,184.817291   C984.971191,187.505066 983.466370,190.780838 982.640442,193.667816   C978.887817,206.785248 975.307495,219.950424 971.594604,233.078583   C960.410828,272.622375 949.302856,312.187561 938.201233,351.754517   C932.807922,370.976807 927.253418,390.154266 922.064148,409.433044   C920.913086,413.709015 918.342590,416.722565 914.816345,419.203796   C906.798279,424.845367 899.163635,431.020538 890.724854,436.713379   C885.410034,440.375336 880.679871,444.386444 874.097107,445.686584   C870.458496,443.169281 869.771912,436.271912 872.644348,433.869110   C875.988281,431.071960 879.425232,428.386017 882.979431,425.341370   C883.137085,425.030945 883.057373,425.007263 883.045776,425.047150   C883.973450,423.890472 885.113708,422.954498 886.810181,422.219147   C887.083557,422.053131 887.018311,422.120636 887.052368,422.152985   C887.908569,420.851837 889.110657,419.986267 890.804565,419.219055   C891.078369,419.048645 891.012573,419.021027 891.027588,419.053406   C893.111023,416.444458 895.692566,414.268402 898.319885,412.307617   C904.502930,407.693237 908.912598,401.902405 911.685425,394.373718  z"
   id="path10"
   style="fill:#ffffff" />
<path
   fill="#631A20"
   opacity="1.000000"
   stroke="none"
   d=" M874.227051,445.884949   C878.111511,441.847839 883.338196,439.174652 888.553101,435.889404   C893.124207,434.072723 897.528687,433.662445 902.080750,433.687286   C919.889832,433.784454 937.699707,433.740204 955.509277,433.706451   C957.296570,433.703064 959.154785,434.105347 961.231750,433.050385   C958.086121,429.230194 954.115845,426.565430 950.335327,423.792725   C945.328674,420.120819 943.569397,416.011993 945.283264,409.668701   C950.619751,389.917328 955.768616,370.111664 960.804565,350.278473   C962.312195,344.340790 964.178040,342.887970 970.283875,342.812408   C985.262512,342.627045 1000.243103,342.685760 1015.222595,342.793427   C1017.032959,342.806427 1018.915833,342.726318 1020.759460,344.276917   C1020.962402,350.802124 1016.025696,352.681183 1011.263794,355.060364   C1000.034424,355.029541 989.207092,355.094513 978.382446,354.951477   C975.190735,354.909302 973.716248,355.967987 972.889954,359.209106   C968.553650,376.217987 964.009216,393.174805 959.384521,410.108093   C958.588074,413.024323 959.017395,415.025818 961.394714,416.963654   C968.066467,422.402069 974.593567,428.017761 981.195312,433.542480   C982.388367,434.540924 984.615784,435.059113 983.242920,437.272430   C981.429504,440.196045 982.190063,444.817169 977.632019,445.926971   C976.999695,446.080963 976.304810,445.992706 975.638916,445.992615   C941.994507,445.988129 908.350098,445.981079 874.227051,445.884949  z"
   id="path11"
   style="fill:#ffffff" />


<path
   fill="#EA8C96"
   opacity="1.000000"
   stroke="none"
   d=" M408.147736,163.352905   C407.517517,163.162155 407.361298,163.112366 407.207397,163.056137   C398.932312,160.031891 398.885498,159.775223 405.712097,152.948944   C426.821564,152.894089 447.600006,152.975418 468.378510,152.989944   C505.619415,153.015976 542.860291,153.001816 580.572144,153.025940   C580.531921,159.732300 575.382446,162.090698 569.891235,164.677765   C566.665710,165.432495 563.829285,165.305450 561.006531,165.306488   C513.942017,165.323807 466.877441,165.315475 419.812897,165.320541   C415.976837,165.320969 412.141174,165.397308 408.147736,163.352905  z"
   id="path14"
   style="fill:#ffffff" />
<path
   fill="#EA8D97"
   opacity="1.000000"
   stroke="none"
   d=" M662.930054,416.423523   C666.476074,412.746857 669.982544,409.489410 673.765015,406.032349   C686.782166,406.496429 686.731628,406.479156 690.813599,394.532440   C700.518616,366.129028 710.280396,337.744995 720.002625,309.347443   C720.654114,307.444580 721.174011,305.820435 723.864319,305.936584   C729.999756,306.201355 736.149231,306.139709 742.559387,306.526367   C738.537720,309.593872 734.472961,312.635223 730.628418,316.462219   C729.949158,328.637390 724.897339,339.264832 721.128479,350.193512   C714.308594,369.969666 707.339172,389.695953 700.493713,409.464478   C697.345154,418.556915 696.550598,419.186371 686.937744,419.231476   C680.791382,419.260315 674.643433,419.337433 668.498474,419.169128   C666.372986,419.110962 664.067871,419.278625 662.930054,416.423523  z"
   id="path15"
   style="fill:#ffffff" />
<path
   fill="#631A20"
   opacity="1.000000"
   stroke="none"
   d=" M570.438477,163.368561   C574.136597,159.895905 577.542236,156.809189 580.995483,153.384949   C581.043030,153.047409 581.495239,152.938614 581.721191,152.993713   C584.703491,154.844971 583.780090,158.092758 585.105103,160.844986   C585.960693,162.925262 587.067688,164.033417 588.871582,164.942108   C596.109680,168.588196 602.814087,173.144363 609.500122,177.711075   C611.041565,178.763931 612.475708,179.852737 612.236511,182.350006   C608.729980,186.110733 604.445862,187.104660 599.482178,187.450592   C595.493530,186.805939 592.837463,184.393555 589.812683,182.714874   C585.334595,180.229660 584.338257,180.710587 584.316833,185.894379   C584.244080,203.508652 584.302429,221.123291 584.284546,238.737778   C584.274963,248.209549 584.421265,257.683075 584.208984,267.152618   C584.063782,273.630920 582.630127,275.056854 576.182495,275.204437   C571.877930,275.303009 567.544067,275.663879 562.892212,274.497070   C560.236206,272.162537 561.335327,270.331696 562.933167,268.446045   C564.580933,266.501343 567.036865,265.236786 568.045776,262.188293   C569.122131,260.313660 569.442139,258.765350 569.355713,257.028473   C567.893738,227.665588 568.994324,198.284119 568.776245,168.911682   C568.762878,167.111038 568.736938,165.218521 570.438477,163.368561  z"
   id="path16"
   style="fill:#ffffff" />
<path
   fill="#EB8D97"
   opacity="1.000000"
   stroke="none"
   d=" M860.914185,164.619583   C859.449280,167.551605 857.819397,170.147919 856.023865,173.066849   C853.879761,175.453888 851.574524,174.826950 849.361572,174.039871   C830.162476,167.211426 810.275024,165.247772 790.044800,165.242996   C775.262939,165.239502 760.470581,165.827423 745.695435,164.845337   C745.035339,164.801483 744.384033,165.032166 743.280762,165.317841   C736.512024,164.744263 729.948486,166.622452 723.474487,163.264587   C726.488525,156.890778 730.116211,152.453003 738.715027,152.743301   C761.172485,153.501404 783.674683,152.806198 806.154907,153.058228   C825.030151,153.269836 843.198364,157.391876 860.914185,164.619583  z"
   id="path17"
   style="fill:#ffffff" />
<path
   fill="#EA8C96"
   opacity="1.000000"
   stroke="none"
   d=" M1010.919922,355.465210   C1013.994263,352.005707 1017.127808,348.967377 1020.537231,345.722778   C1024.540283,345.841248 1024.428589,349.110718 1024.969727,351.464722   C1027.501709,362.479523 1029.678711,373.574158 1032.057007,384.624329   C1033.945923,393.400604 1035.617065,402.222748 1037.613281,410.975647   C1038.519409,414.948822 1038.279541,418.617432 1035.023315,421.517334   C1030.433472,425.604950 1025.757446,429.594879 1020.986206,433.469543   C1019.523499,434.657288 1017.615417,434.835236 1015.533325,435.641052   C1009.465759,435.840088 1003.770081,435.858368 997.617615,435.844482   C1001.574768,430.476440 1007.645752,427.013031 1012.544250,422.203552   C1015.080261,419.713745 1018.086548,417.690491 1020.952576,415.553314   C1023.153687,413.911987 1023.325989,411.812317 1022.761475,409.393066   C1018.833435,392.557526 1014.914612,375.719818 1011.036865,358.872650   C1010.818298,357.923126 1010.989380,356.883911 1010.919922,355.465210  z"
   id="path18"
   style="fill:#ffffff" />
<path
   fill="#EA8C96"
   opacity="1.000000"
   stroke="none"
   d=" M583.396057,163.319946   C580.956055,160.271667 582.508911,156.978363 581.911865,153.490372   C620.375671,153.031860 658.804199,153.013519 697.232788,153.007141   C698.057922,153.007004 698.883057,153.144211 699.990662,153.558914   C696.494141,156.930450 692.715149,159.960434 688.624756,163.112900   C684.394043,164.816132 680.325684,165.349167 676.101868,165.341675   C649.450562,165.294388 622.799011,165.287354 596.147705,165.348083   C591.925903,165.357697 587.863708,164.753754 583.396057,163.319946  z"
   id="path19"
   style="fill:#ffffff" />

<path
   fill="#EA8C96"
   opacity="1.000000"
   stroke="none"
   d=" M1034.472656,153.067352   C1032.404541,156.164368 1029.596924,158.940323 1026.175049,161.537598   C1024.440430,164.417877 1021.797729,164.245972 1019.355103,164.232742   C999.646790,164.126038 979.932556,164.863037 960.229858,163.860092   C959.569580,163.826477 958.913147,163.989029 957.792664,164.292786   C952.451599,164.097839 947.417847,165.040955 942.399658,162.306458   C943.230347,154.017319 945.357117,151.996765 952.581055,151.996750   C967.017883,151.996735 981.458191,152.190536 995.890564,151.938065   C1008.625122,151.715286 1021.307739,152.578766 1034.472656,153.067352  z"
   id="path21"
   style="fill:#ffffff" />






<path
   fill="#641B21"
   opacity="1.000000"
   stroke="none"
   d=" M723.120361,163.349396   C729.345886,163.069489 735.632324,163.118164 742.373657,163.218048   C748.380005,164.646164 752.205566,168.753250 756.435852,172.121780   C759.398499,174.480957 762.270935,177.000778 765.069092,179.576752   C766.422424,180.822556 767.604736,182.227859 767.335205,184.606186   C763.319275,186.854324 759.439819,188.764954 755.239624,190.822083   C744.339661,181.871704 733.760437,172.774826 723.120361,163.349396  z"
   id="path28"
   style="fill:#ffffff" />
<path
   fill="#641A20"
   opacity="1.000000"
   stroke="none"
   d=" M942.123108,162.376785   C946.626465,162.057678 951.294861,162.025208 956.416992,162.061279   C961.098206,163.462524 964.411499,166.245117 967.610596,169.119690   C971.552673,172.661774 975.098938,176.626511 979.314270,179.891342   C981.000610,181.197403 982.562683,182.815933 982.074219,185.621490   C977.877380,186.290771 973.876465,186.654785 969.445435,187.072021   C960.106140,178.971313 951.197144,170.817368 942.123108,162.376785  z"
   id="path29"
   style="fill:#ffffff" />





<path
   fill="#EB8C96"
   opacity="1.000000"
   stroke="none"
   d=" M431.509308,185.107391   C431.957672,187.176239 432.140625,189.332794 432.141052,191.489365   C432.155914,265.188629 432.117188,338.887939 432.246979,412.586975   C432.254456,416.839996 431.054993,419.695343 427.739227,422.335358   C422.673676,426.368469 418.019379,430.918060 413.017395,435.530365   C412.451569,436.152466 412.058868,436.492615 411.525635,437.049194   C401.844788,443.378204 393.477814,451.018280 384.556366,457.934784   C373.374603,466.603546 362.331482,475.452271 351.293274,484.304047   C349.252289,485.940704 347.214081,486.846008 344.519379,486.842194   C287.413513,486.761230 230.307541,486.753540 173.201584,486.719269   C172.376236,486.718781 171.550964,486.562286 170.378601,486.265747   C170.059860,485.671906 170.257889,485.429596 170.843842,485.178528   C171.062149,485.031158 170.997101,485.042633 171.005615,485.074463   C177.850525,482.942108 184.097366,479.444092 190.787979,476.182800   C194.405853,473.700256 198.221558,473.696777 202.083496,473.698608   C245.885269,473.719269 289.687439,473.622345 333.488434,473.808624   C340.340973,473.837738 345.819214,472.212585 351.160767,467.594360   C372.174927,449.425751 393.633331,431.773041 414.775757,413.749023   C417.415405,411.498718 418.704468,408.965240 418.687134,405.558868   C418.668488,401.895782 418.710999,398.231201 418.711243,394.567291   C418.715485,329.114441 418.692535,263.661591 418.765747,198.208832   C418.769348,194.999878 417.798523,191.481293 420.790039,188.376251   C424.470734,187.109619 427.814758,186.152344 431.509308,185.107391  z"
   id="path35"
   style="fill:#ffffff" />
<path
   fill="#EB8E98"
   opacity="1.000000"
   stroke="none"
   d=" M582.970337,420.420654   C587.956482,416.914337 592.869385,413.788147 597.782410,410.662170   C599.882019,409.326263 600.045532,407.320404 600.037109,405.043762   C599.970154,386.910736 600.000549,368.777283 599.999329,350.643982   C599.995544,296.077728 599.990967,241.511444 599.944092,186.480209   C603.625305,184.693573 607.349243,183.371902 611.417480,181.966522   C611.843079,183.875488 611.995117,185.868118 611.995361,187.860794   C612.005493,261.144196 611.964722,334.427643 612.093506,407.710815   C612.101013,412.001099 611.022522,414.682678 607.253845,417.022949   C598.073608,422.723633 589.205200,428.926361 579.835205,434.982849   C580.605164,430.292786 581.751160,425.546844 582.970337,420.420654  z"
   id="path36"
   style="fill:#ffffff" />
<path
   fill="#EB8D97"
   opacity="1.000000"
   stroke="none"
   d=" M547.657104,345.194397   C552.809509,334.142761 555.713562,322.592682 559.674561,311.411163   C560.684204,308.560944 561.906372,307.904053 564.517395,307.963806   C569.996582,308.089294 575.480164,308.025696 581.422974,308.078583   C578.245850,310.894135 574.607666,313.670837 570.837585,316.796631   C562.472168,340.314972 554.228210,363.480499 546.010559,386.655365   C543.010803,395.115082 539.942444,403.554565 537.177917,412.091553   C536.199829,415.112000 534.761230,416.260468 531.532104,416.228149   C514.566406,416.058350 497.598602,416.106628 480.146362,416.004089   C480.654510,409.590546 485.894745,407.334808 490.985168,404.486145   C500.307343,403.006805 509.296478,403.993988 518.255676,403.779083   C526.026428,403.592651 526.032593,403.654266 528.550476,396.464935   C533.931274,381.101013 538.147400,365.329071 544.798828,349.979095   C545.332764,347.970856 545.895081,346.432892 547.657104,345.194397  z"
   id="path37"
   style="fill:#ffffff" />

<path
   fill="#000000"
   opacity="1.000000"
   stroke="none"
   d=" M890.707214,418.964294   C890.228210,420.336090 889.398438,421.646576 887.409790,422.100098   C886.842102,419.778442 888.442749,419.185303 890.707214,418.964294  z"
   id="path39"
   style="fill:#ffffff" />
<path
   fill="#000000"
   opacity="1.000000"
   stroke="none"
   d=" M886.714722,421.972473   C886.209839,423.320496 885.426514,424.692902 883.366089,425.027191   C882.910828,422.750031 884.490051,422.177612 886.714722,421.972473  z"
   id="path40"
   style="fill:#ffffff" />
<path
   fill="#000000"
   opacity="1.000000"
   stroke="none"
   d=" M420.773621,188.011841   C421.083466,211.050430 421.011566,234.033966 421.002808,257.017548   C420.983704,306.985077 420.960052,356.952728 421.068207,406.920013   C421.076630,410.809753 419.688416,412.958649 416.571503,415.337738   C408.891052,421.200165 401.807617,427.839417 394.402740,434.069519   C384.777832,442.167480 375.046387,450.138794 365.415283,458.229492   C360.137543,462.663147 354.893768,467.143982 349.785370,471.769928   C346.763580,474.506348 343.709961,476.111725 339.340759,476.097321   C290.206543,475.935089 241.071625,475.989288 191.470383,475.944672   C223.335342,427.267517 255.656693,378.624390 288.002838,329.997711   C302.983429,307.477020 318.044373,285.009766 333.011322,262.480072   C353.027039,232.350540 373.026855,202.210205 392.913788,171.995712   C395.102295,168.670670 396.350067,167.834457 399.767548,170.976318   C406.318604,176.998993 413.500427,182.335587 420.773621,188.011841  z"
   id="path41"
   style="fill:#ffffff;fill-opacity:0" />
<path
   fill="#C71B29"
   opacity="1.000000"
   stroke="none"
   d=" M88.799179,198.124695   C88.865494,198.481003 88.694420,198.975769 88.305466,199.625214   C88.245644,199.274307 88.403709,198.768753 88.799179,198.124695  z"
   id="path42"
   style="fill:#ffffff" />

<path
   fill="#E26974"
   opacity="1.000000"
   stroke="none"
   d=" M335.771973,135.145996   C335.902191,135.414734 335.702698,135.676682 335.186554,135.946503   C335.136963,135.740723 335.327728,135.469009 335.771973,135.145996  z"
   id="path44"
   style="fill:#ffffff" />


<path
   fill="#EA8D97"
   opacity="1.000000"
   stroke="none"
   d=" M561.910706,272.489563   C557.375427,268.607635 556.561707,262.560425 554.320984,257.361328   C545.783264,237.551819 537.917847,217.452301 529.823914,197.452011   C528.802368,194.927811 527.914856,192.349411 526.852600,189.422073   C525.973145,184.428070 527.391113,182.199219 532.911011,179.874664   C536.348389,179.514755 535.928284,182.324722 536.563843,183.825760   C547.202515,208.950928 557.706055,234.133347 568.249817,259.298737   C568.827881,260.678528 569.494995,262.021027 570.315063,263.709473   C568.627380,267.732117 564.283569,268.862549 561.910706,272.489563  z"
   id="path47"
   style="fill:#ffffff" />

<path
   fill="#651C22"
   opacity="1.000000"
   stroke="none"
   d=" M146.403061,469.220520   C147.060791,462.495026 151.346024,457.384125 154.368210,451.747986   C170.178925,422.262238 186.328384,392.958221 202.185196,363.496948   C204.126587,359.889954 206.513840,357.469025 210.314774,356.006195   C214.968094,354.215393 219.490112,352.064392 223.995590,349.915466   C226.687927,348.631317 228.101608,349.194031 228.292282,352.243805   C228.633987,357.709381 228.961334,363.175842 229.135986,368.979218   C226.829681,370.819153 224.695740,370.012787 222.875351,368.879242   C218.591507,366.211731 216.358932,368.324860 214.050430,371.836090   C198.143570,396.030334 181.963440,420.043610 165.953766,444.170013   C160.623871,452.202118 154.543671,459.691376 149.088257,467.631348   C148.512695,468.469055 147.849670,469.206146 146.403061,469.220520  z"
   id="path49"
   style="fill:#ffffff" />
<path
   fill="#E88A94"
   opacity="1.000000"
   stroke="none"
   d=" M361.446564,147.922928   C360.625885,152.316269 358.109711,155.700729 356.150757,159.336090   C338.252655,192.551346 320.218445,225.693420 302.392822,258.947357   C300.372681,262.715942 297.811249,265.143677 293.859070,266.649323   C288.429779,268.717743 283.169891,271.230804 277.396118,273.643921   C276.950348,270.455658 278.168549,267.635651 279.979492,264.945129   C300.189636,234.918579 319.835907,204.513260 340.412109,174.733795   C345.874786,166.827728 351.648804,159.126511 357.808228,151.278290   C358.078033,151.033844 358.017090,151.011536 358.021118,151.043732   C358.211029,150.796860 358.429352,150.546112 358.870361,150.161530   C359.060516,149.999435 358.998932,149.999374 359.008179,150.028748   C359.420227,149.588715 359.488007,148.985352 359.873535,148.212646   C360.077698,147.997879 360.005707,148.013550 360.013824,148.049469   C360.338440,147.692444 360.744690,147.542145 361.446564,147.922928  z"
   id="path50"
   style="fill:#ffffff" />
<path
   fill="#661C22"
   opacity="1.000000"
   stroke="none"
   d=" M357.738892,151.069580   C358.054474,153.230988 356.400146,154.597015 355.323242,156.211914   C329.356445,195.150192 303.348602,234.061096 277.151520,273.355713   C275.326599,267.111633 275.698578,260.307129 275.234741,253.583450   C275.155914,252.441101 276.045105,251.045944 276.844330,250.056000   C303.157837,217.463440 329.513580,184.904968 355.879120,152.354416   C356.283539,151.855103 356.888397,151.518097 357.738892,151.069580  z"
   id="path51"
   style="fill:#ffffff" />
<path
   fill="#E88A94"
   opacity="1.000000"
   stroke="none"
   d=" M146.038391,469.091034   C148.066162,468.254028 148.684280,466.205963 149.754440,464.600952   C171.058868,432.647797 192.415573,400.728302 213.453751,368.600372   C216.224289,364.369385 218.499023,363.849487 222.406082,366.324829   C224.214233,367.470337 226.298462,368.180054 228.617401,369.201904   C228.990326,370.776154 228.055847,371.763214 227.222656,372.790405   C200.306702,405.973328 173.388748,439.154602 146.457855,472.325409   C145.942932,472.959686 145.269775,473.465515 144.122101,473.798584   C143.520187,473.175385 143.553741,472.792572 143.876251,472.206238   C144.078110,471.995117 144.006577,472.005615 144.012024,472.041351   C144.217270,471.807861 144.437881,471.556946 144.870300,471.161377   C145.061188,470.998352 144.999634,471.000183 145.009827,471.029236   C145.417572,470.590149 145.487350,469.990082 145.877167,469.224121   C146.081482,469.011658 146.014832,469.057983 146.038391,469.091034  z"
   id="path52"
   style="fill:#ffffff" />
<path
   fill="#661B21"
   opacity="1.000000"
   stroke="none"
   d=" M242.646698,324.360229   C239.826050,318.281708 241.578171,311.677734 240.409332,305.354858   C240.138519,303.889923 241.733246,303.220795 242.965546,302.670532   C248.562576,300.171509 254.186935,297.731323 259.745026,295.148560   C262.090759,294.058533 263.140778,294.705170 263.294159,297.182861   C263.650909,302.946228 264.008698,308.709564 264.177063,314.789246   C261.684052,315.752319 259.339783,315.828003 257.280701,314.566223   C253.838058,312.456635 251.803452,314.014679 250.055695,316.907715   C248.256271,319.886292 246.173584,322.616211 242.646698,324.360229  z"
   id="path53"
   style="fill:#ffffff" />
<path
   fill="#DE6772"
   opacity="1.000000"
   stroke="none"
   d=" M242.593399,324.561890   C244.942490,320.500031 247.675568,316.608856 250.160400,312.565155   C251.536560,310.325653 252.930054,309.695923 255.333298,311.038025   C257.901794,312.472412 260.638245,313.606049 263.644714,314.988281   C257.429260,319.351593 250.252960,322.234253 242.593399,324.561890  z"
   id="path54"
   style="fill:#ffffff" />
<path
   fill="#DE6772"
   opacity="1.000000"
   stroke="none"
   d=" M143.227631,475.858917   C142.673080,477.816406 141.544479,478.961487 139.568649,480.513000   C140.491318,478.192474 140.359314,476.233948 142.719467,475.225128   C143.160156,475.292419 143.295212,475.454285 143.227631,475.858917  z"
   id="path55"
   style="fill:#ffffff" />
<path
   fill="#661C22"
   opacity="1.000000"
   stroke="none"
   d=" M361.690369,147.953735   C361.281738,148.244370 360.911102,148.277451 360.281189,148.197968   C360.091919,147.482391 360.253571,146.857834 360.961365,146.864227   C361.219513,146.866562 361.472809,147.403275 361.690369,147.953735  z"
   id="path56"
   style="fill:#ffffff" />
<path
   fill="#631A20"
   opacity="1.000000"
   stroke="none"
   d=" M170.867935,484.998901   C170.885330,485.318542 170.708481,485.605896 170.281601,485.973053   C169.844360,485.453583 170.010361,485.063080 170.867935,484.998901  z"
   id="path57"
   style="fill:#ffffff" />
<path
   fill="#E88A94"
   opacity="1.000000"
   stroke="none"
   d=" M143.290390,475.925659   C143.025024,476.101685 143.068237,475.615448 143.046661,475.372986   C143.025085,475.130554 143.074020,474.656616 143.071365,474.418396   C143.166458,473.919495 143.264221,473.658813 143.665771,473.684692   C143.969559,473.971283 143.979568,473.980774 143.980865,473.982117   C143.840042,474.572205 143.697891,475.160950 143.290390,475.925659  z"
   id="path58"
   style="fill:#ffffff" />
<path
   fill="#651C22"
   opacity="1.000000"
   stroke="none"
   d=" M144.003235,473.638123   C143.969559,473.971283 143.516769,474.067169 143.292725,474.123657   C143.231400,473.576172 143.394104,472.972168 143.817474,472.181641   C144.064377,472.431732 144.050659,472.868347 144.003235,473.638123  z"
   id="path59"
   style="fill:#ffffff" />
<path
   fill="#651C22"
   opacity="1.000000"
   stroke="none"
   d=" M145.796112,469.151184   C145.917923,469.597534 145.754349,470.183411 145.305389,470.913757   C145.183594,470.469055 145.347168,469.879883 145.796112,469.151184  z"
   id="path60"
   style="fill:#ffffff" />
<path
   fill="#661C22"
   opacity="1.000000"
   stroke="none"
   d=" M359.812347,148.163177   C359.914429,148.586853 359.751160,149.175842 359.302643,149.911469   C359.193939,149.481583 359.370483,148.905029 359.812347,148.163177  z"
   id="path61"
   style="fill:#ffffff" />
<path
   fill="#651C22"
   opacity="1.000000"
   stroke="none"
   d=" M144.802368,471.077148   C144.908981,471.346313 144.756775,471.694275 144.311020,472.059662   C144.192841,471.770050 144.368195,471.462982 144.802368,471.077148  z"
   id="path62"
   style="fill:#ffffff" />
<path
   fill="#661C22"
   opacity="1.000000"
   stroke="none"
   d=" M358.796021,150.070923   C358.908508,150.342880 358.756500,150.686325 358.314819,151.052826   C358.193939,150.764740 358.362732,150.453568 358.796021,150.070923  z"
   id="path63"
   style="fill:#ffffff" />
<path
   fill="#EA8C97"
   opacity="1.000000"
   stroke="none"
   d=" M813.212402,179.948730   C819.594482,178.105133 825.283997,180.751099 830.633972,183.681320   C848.987305,193.733475 860.066833,209.967087 866.986572,229.065414   C876.578735,255.539398 879.751953,283.024017 878.323853,311.120178   C877.181213,333.600616 873.316162,355.444641 863.945068,376.054443   C857.948608,389.242340 850.084045,401.151917 838.416687,410.082520   C831.172607,415.627350 823.233765,419.674225 813.455200,419.378571   C815.020996,412.689484 819.069092,407.772156 824.733826,403.645142   C833.332214,399.368927 838.580566,392.291077 842.963013,384.597595   C853.079956,366.836884 858.195312,347.476318 860.900757,327.333954   C862.589844,314.758698 863.298706,302.145508 862.699280,289.514526   C861.539612,265.078033 857.401001,241.257843 846.419128,219.062302   C841.553162,209.227692 835.443481,200.440414 825.265808,194.704193   C819.356506,191.180435 815.708374,186.259415 813.212402,179.948730  z"
   id="path64"
   style="fill:#ffffff" />
<path
   fill="#621A20"
   opacity="1.000000"
   stroke="none"
   d=" M813.047241,180.092590   C816.982117,183.852951 820.877441,188.108917 824.905640,192.672394   C827.384644,195.364075 827.283997,198.413589 827.294678,201.413498   C827.348206,216.395233 827.316406,231.377060 827.316772,246.358856   C827.318176,295.798828 827.343628,345.238831 827.270386,394.678711   C827.265625,397.915314 828.073181,401.389404 825.380920,404.661041   C821.263306,409.627808 817.482544,414.224030 813.426880,419.005463   C813.087402,418.028564 812.966309,416.866486 812.966431,415.704376   C812.973999,337.332306 812.991272,258.960266 813.047241,180.092590  z"
   id="path65"
   style="fill:#ffffff" />
<path
   fill="#621A20"
   opacity="1.000000"
   stroke="none"
   d=" M548.027710,344.569946   C547.965027,346.533142 548.151978,348.079987 547.020142,349.735077   C545.091553,350.945221 543.658936,352.409546 541.676941,352.992859   C533.396729,355.429504 530.613281,354.421204 525.655823,347.299622   C520.234314,339.511292 514.970398,331.613495 509.412201,323.920166   C506.372498,319.712799 501.050812,317.986633 496.228088,319.577637   C494.381592,320.186798 493.591187,321.472656 493.412750,323.279572   C493.232269,325.106567 493.273285,326.940643 493.272583,328.772491   C493.263580,351.594299 493.307739,374.416260 493.225006,397.237793   C493.215088,399.979858 493.934052,402.971008 491.349915,405.620148   C487.373077,409.062378 483.698822,412.200073 479.842896,415.633392   C478.685547,414.237274 478.943665,412.371490 478.943054,410.556366   C478.932007,377.757996 479.050110,344.958801 478.816681,312.162109   C478.779785,306.976715 480.392761,305.551605 485.350739,305.804596   C492.823303,306.185974 500.334625,306.064178 507.819580,305.834747   C511.377686,305.725708 513.624084,306.926422 515.660034,309.867432   C521.792725,318.726318 528.230225,327.374146 535.667664,335.822418   C535.667664,310.650696 535.667664,285.478973 535.540833,259.810120   C535.864990,254.137756 541.726807,248.233612 547.453857,247.668823   C547.875916,279.896759 547.944458,311.998108 548.027710,344.569946  z"
   id="path66"
   style="fill:#ffffff" />
<path
   fill="#621A20"
   opacity="1.000000"
   stroke="none"
   d=" M532.937256,179.541748   C531.165344,182.638748 529.025024,185.496658 526.812378,188.701294   C516.609253,189.032364 506.474487,189.176773 496.349762,188.922302   C492.299835,188.820511 490.887299,189.984116 490.914734,194.208511   C491.091583,221.444763 491.020721,248.682617 491.038269,276.378357   C489.791656,282.455963 485.528534,284.611115 480.187622,285.991516   C478.617401,284.404419 479.016449,282.511169 479.015167,280.716370   C478.992462,248.749008 479.065918,216.781326 478.919922,184.814636   C478.900024,180.459671 479.848022,178.611633 484.680145,178.710083   C499.159332,179.005112 513.648438,178.802277 528.133545,178.837585   C529.612305,178.841187 531.090454,179.140549 532.937256,179.541748  z"
   id="path67"
   style="fill:#ffffff" />
<path
   fill="#EA8D97"
   opacity="1.000000"
   stroke="none"
   d=" M480.211914,286.180542   C483.361176,283.078003 486.902985,280.122437 490.745087,277.001831   C493.701843,276.890198 496.436188,276.555847 499.000092,277.070496   C506.380280,278.552002 510.132904,274.164551 514.054382,269.011871   C520.471252,260.580353 527.424255,252.557220 534.136230,244.349670   C535.368347,242.843048 536.943420,242.590500 538.585449,243.271057   C541.564209,244.505630 544.471680,245.912262 547.608154,247.521255   C543.188538,250.803146 539.509644,254.855164 535.539917,259.018494   C528.403748,266.420074 522.509338,274.471039 516.255310,282.207825   C513.736267,285.324188 511.110504,286.842621 507.000244,286.675293   C498.211487,286.317535 489.404144,286.415985 480.211914,286.180542  z"
   id="path68"
   style="fill:#ffffff" />

<path
   fill="#EA8C96"
   opacity="1.000000"
   stroke="none"
   d=" M994.865479,239.733902   C1001.449463,263.778900 1007.748901,288.196533 1014.041382,312.615967   C1014.828369,315.669952 1015.466858,318.767334 1016.382202,321.781464   C1017.089600,324.110809 1016.636292,325.215454 1014.015930,325.168549   C999.580933,324.910126 985.135925,325.689880 970.364868,324.519409   C972.999756,318.793488 978.288025,316.211823 983.897217,313.517456   C987.877136,312.680176 991.539734,312.771179 995.190125,312.693268   C997.660217,312.640503 999.111328,311.476440 998.471313,308.937347   C996.286926,300.271362 994.245605,291.569519 991.878113,282.506470   C991.059631,267.983429 992.226624,254.005814 994.865479,239.733902  z"
   id="path70"
   style="fill:#ffffff" />
<path
   fill="#651B21"
   opacity="1.000000"
   stroke="none"
   d=" M994.885559,239.562042   C994.756165,253.616348 994.360229,267.871979 993.907532,282.597443   C994.379395,293.067108 989.976562,301.994690 987.657837,311.373016   C987.288147,312.868256 986.063354,313.844910 984.354858,314.765472   C979.577332,318.003754 975.136353,321.024475 970.359131,324.163635   C971.047607,315.136597 974.558594,306.646484 977.108643,297.915924   C982.784241,278.484650 988.763550,259.142090 994.885559,239.562042  z"
   id="path71"
   style="fill:#ffffff" />
<path
   id="path72"
   style="fill:#ffffff;fill-opacity:0"
   d="m 825.02539,193.44922 c -0.003,70.84019 0.008,141.21065 0.39453,211.56445 2.15332,0.14014 3.49793,-0.8808 4.81055,-1.79687 6.83915,-4.77313 11.48938,-11.47233 15.44922,-18.57618 12.59787,-22.60016 17.52844,-47.40075 19.12695,-72.80468 1.0321,-16.40235 0.15283,-32.85126 -2.63672,-49.22852 -2.85369,-16.75344 -7.17372,-32.94805 -15.35351,-47.80078 -5.05395,-9.17686 -10.49191,-18.58762 -21.79102,-21.35742 z m 15.17969,56.23242 c 0.53459,-0.0332 0.97763,0.60304 0.60742,1.56836 -0.96559,2.51774 -1.10985,5.29936 -1.12305,7.96484 -0.0189,3.82947 0.27862,7.8527 0.49414,11.65625 0.62758,9.52498 0.32415,4.77992 0.91407,14.23438 0.10302,1.65098 -1.56496,1.75449 -1.66797,0.10351 -0.58988,-9.45381 -0.2857,-4.70566 -0.91407,-14.24414 -0.21676,-3.83508 -0.52114,-7.96464 -0.49414,-11.83007 0.0202,-2.88634 0.20116,-5.88316 1.2793,-8.59571 0.22913,-0.57645 0.58354,-0.83748 0.9043,-0.85742 z m -5.3125,33.17774 c 0.36602,0.033 0.73054,0.38687 0.8164,1.10546 0.85563,7.1608 2.1473,14.25974 3.36524,21.36524 1.10276,6.47017 2.22788,12.93671 3.3457,19.4043 0.28173,1.63001 -1.36476,1.91517 -1.64648,0.28515 -1.11796,-6.46834 -2.24281,-12.93532 -3.34571,-19.40625 -1.21893,-7.11155 -2.51325,-14.21782 -3.36914,-21.38476 -0.11034,-0.92393 0.36339,-1.41155 0.83399,-1.36914 z" />

</svg>
